<mxfile host="Electron" agent="Mozilla/5.0 (Macintosh; Intel Mac OS X 10_15_7) AppleWebKit/537.36 (KHTML, like Gecko) draw.io/26.0.9 Chrome/128.0.6613.186 Electron/32.2.5 Safari/537.36" version="26.0.9">
  <diagram name="Page-1" id="MJULOAV7yFi__BREDWm6">
    <mxGraphModel dx="1430" dy="837" grid="1" gridSize="10" guides="1" tooltips="1" connect="1" arrows="1" fold="1" page="1" pageScale="1" pageWidth="850" pageHeight="1100" math="0" shadow="0">
      <root>
        <mxCell id="0" />
        <mxCell id="1" parent="0" />
        <mxCell id="lbS3CkcZTFjXa5OfJz5R-66" value="" style="rounded=1;whiteSpace=wrap;html=1;" vertex="1" parent="1">
          <mxGeometry x="170" y="90" width="540" height="800" as="geometry" />
        </mxCell>
        <mxCell id="lbS3CkcZTFjXa5OfJz5R-7" value="" style="group" vertex="1" connectable="0" parent="1">
          <mxGeometry x="440" y="429.2" width="60" height="110" as="geometry" />
        </mxCell>
        <mxCell id="lbS3CkcZTFjXa5OfJz5R-5" value="" style="shape=cylinder3;whiteSpace=wrap;html=1;boundedLbl=1;backgroundOutline=1;size=15;fillColor=#d5e8d4;gradientColor=#97d077;strokeColor=#82b366;" vertex="1" parent="lbS3CkcZTFjXa5OfJz5R-7">
          <mxGeometry width="60" height="80" as="geometry" />
        </mxCell>
        <mxCell id="lbS3CkcZTFjXa5OfJz5R-6" value="Data" style="text;html=1;align=center;verticalAlign=middle;resizable=0;points=[];autosize=1;strokeColor=none;fillColor=none;" vertex="1" parent="lbS3CkcZTFjXa5OfJz5R-7">
          <mxGeometry x="5" y="80" width="50" height="30" as="geometry" />
        </mxCell>
        <mxCell id="lbS3CkcZTFjXa5OfJz5R-8" value="" style="group" vertex="1" connectable="0" parent="1">
          <mxGeometry x="239" y="429.2" width="70" height="110" as="geometry" />
        </mxCell>
        <mxCell id="lbS3CkcZTFjXa5OfJz5R-3" value="" style="shape=cylinder3;whiteSpace=wrap;html=1;boundedLbl=1;backgroundOutline=1;size=15;fillColor=#d5e8d4;strokeColor=#82b366;gradientColor=#97d077;" vertex="1" parent="lbS3CkcZTFjXa5OfJz5R-8">
          <mxGeometry x="5" width="60" height="80" as="geometry" />
        </mxCell>
        <mxCell id="lbS3CkcZTFjXa5OfJz5R-4" value="Metadata" style="text;html=1;align=center;verticalAlign=middle;resizable=0;points=[];autosize=1;strokeColor=none;fillColor=none;" vertex="1" parent="lbS3CkcZTFjXa5OfJz5R-8">
          <mxGeometry y="80" width="70" height="30" as="geometry" />
        </mxCell>
        <mxCell id="lbS3CkcZTFjXa5OfJz5R-13" value="" style="group" vertex="1" connectable="0" parent="1">
          <mxGeometry x="60" y="248" width="70" height="97.19999999999999" as="geometry" />
        </mxCell>
        <mxCell id="lbS3CkcZTFjXa5OfJz5R-1" value="" style="aspect=fixed;sketch=0;html=1;dashed=0;whitespace=wrap;verticalLabelPosition=bottom;verticalAlign=top;fillColor=#2875E2;strokeColor=#ffffff;points=[[0.005,0.63,0],[0.1,0.2,0],[0.9,0.2,0],[0.5,0,0],[0.995,0.63,0],[0.72,0.99,0],[0.5,1,0],[0.28,0.99,0]];shape=mxgraph.kubernetes.icon2;prIcon=api" vertex="1" parent="lbS3CkcZTFjXa5OfJz5R-13">
          <mxGeometry width="70" height="67.2" as="geometry" />
        </mxCell>
        <mxCell id="lbS3CkcZTFjXa5OfJz5R-2" value="EIA API" style="text;html=1;align=center;verticalAlign=middle;resizable=0;points=[];autosize=1;strokeColor=none;fillColor=none;" vertex="1" parent="lbS3CkcZTFjXa5OfJz5R-13">
          <mxGeometry x="5" y="67.19999999999999" width="60" height="30" as="geometry" />
        </mxCell>
        <mxCell id="lbS3CkcZTFjXa5OfJz5R-14" value="" style="group" vertex="1" connectable="0" parent="1">
          <mxGeometry x="230" y="259.99999999999994" width="90" height="90.00000000000006" as="geometry" />
        </mxCell>
        <mxCell id="lbS3CkcZTFjXa5OfJz5R-9" value="fn" style="shape=mxgraph.electrical.abstract.function;html=1;shadow=0;dashed=0;align=center;strokeWidth=1;fontSize=24;aspect=fixed;" vertex="1" parent="lbS3CkcZTFjXa5OfJz5R-14">
          <mxGeometry x="15" width="60" height="60" as="geometry" />
        </mxCell>
        <mxCell id="lbS3CkcZTFjXa5OfJz5R-10" value="Data Refresh" style="text;html=1;align=center;verticalAlign=middle;resizable=0;points=[];autosize=1;strokeColor=none;fillColor=none;" vertex="1" parent="lbS3CkcZTFjXa5OfJz5R-14">
          <mxGeometry y="60.00000000000006" width="90" height="30" as="geometry" />
        </mxCell>
        <mxCell id="lbS3CkcZTFjXa5OfJz5R-15" style="edgeStyle=orthogonalEdgeStyle;rounded=0;orthogonalLoop=1;jettySize=auto;html=1;exitX=0.5;exitY=0;exitDx=0;exitDy=0;exitPerimeter=0;entryX=0.489;entryY=0.967;entryDx=0;entryDy=0;entryPerimeter=0;startArrow=classic;startFill=1;strokeWidth=2;" edge="1" parent="1" source="lbS3CkcZTFjXa5OfJz5R-3" target="lbS3CkcZTFjXa5OfJz5R-10">
          <mxGeometry relative="1" as="geometry" />
        </mxCell>
        <mxCell id="lbS3CkcZTFjXa5OfJz5R-16" style="edgeStyle=orthogonalEdgeStyle;rounded=0;orthogonalLoop=1;jettySize=auto;html=1;exitX=0;exitY=0.5;exitDx=0;exitDy=0;exitPerimeter=0;entryX=0.995;entryY=0.63;entryDx=0;entryDy=0;entryPerimeter=0;startArrow=classic;startFill=1;strokeWidth=2;" edge="1" parent="1" source="lbS3CkcZTFjXa5OfJz5R-9" target="lbS3CkcZTFjXa5OfJz5R-1">
          <mxGeometry relative="1" as="geometry" />
        </mxCell>
        <mxCell id="lbS3CkcZTFjXa5OfJz5R-20" value="&lt;b&gt;Raw&amp;nbsp;&lt;/b&gt;&lt;b style=&quot;background-color: transparent; color: light-dark(rgb(0, 0, 0), rgb(255, 255, 255));&quot;&gt;Data&lt;/b&gt;" style="text;html=1;align=center;verticalAlign=middle;whiteSpace=wrap;rounded=0;" vertex="1" parent="1">
          <mxGeometry x="340" y="220" width="60" height="30" as="geometry" />
        </mxCell>
        <mxCell id="lbS3CkcZTFjXa5OfJz5R-24" value="" style="shadow=0;dashed=0;html=1;strokeColor=none;fillColor=#4495D1;labelPosition=center;verticalLabelPosition=bottom;verticalAlign=top;align=center;outlineConnect=0;shape=mxgraph.veeam.data_file;" vertex="1" parent="1">
          <mxGeometry x="352.8" y="260" width="47.2" height="60.8" as="geometry" />
        </mxCell>
        <mxCell id="lbS3CkcZTFjXa5OfJz5R-25" style="edgeStyle=orthogonalEdgeStyle;rounded=0;orthogonalLoop=1;jettySize=auto;html=1;exitX=1;exitY=0.5;exitDx=0;exitDy=0;exitPerimeter=0;strokeWidth=2;endArrow=none;startFill=0;" edge="1" parent="1" source="lbS3CkcZTFjXa5OfJz5R-9" target="lbS3CkcZTFjXa5OfJz5R-24">
          <mxGeometry relative="1" as="geometry" />
        </mxCell>
        <mxCell id="lbS3CkcZTFjXa5OfJz5R-26" value="" style="group" vertex="1" connectable="0" parent="1">
          <mxGeometry x="425" y="259.99999999999994" width="110" height="90.00000000000006" as="geometry" />
        </mxCell>
        <mxCell id="lbS3CkcZTFjXa5OfJz5R-27" value="fn" style="shape=mxgraph.electrical.abstract.function;html=1;shadow=0;dashed=0;align=center;strokeWidth=1;fontSize=24;aspect=fixed;" vertex="1" parent="lbS3CkcZTFjXa5OfJz5R-26">
          <mxGeometry x="15" width="60" height="60" as="geometry" />
        </mxCell>
        <mxCell id="lbS3CkcZTFjXa5OfJz5R-28" value="Data Quality Checks" style="text;html=1;align=center;verticalAlign=middle;resizable=0;points=[];autosize=1;strokeColor=none;fillColor=none;" vertex="1" parent="lbS3CkcZTFjXa5OfJz5R-26">
          <mxGeometry x="-20" y="60.00000000000006" width="130" height="30" as="geometry" />
        </mxCell>
        <mxCell id="lbS3CkcZTFjXa5OfJz5R-29" style="edgeStyle=orthogonalEdgeStyle;rounded=0;orthogonalLoop=1;jettySize=auto;html=1;exitX=0;exitY=0.5;exitDx=0;exitDy=0;exitPerimeter=0;strokeWidth=2;startArrow=classic;startFill=1;endArrow=none;" edge="1" parent="1" source="lbS3CkcZTFjXa5OfJz5R-27" target="lbS3CkcZTFjXa5OfJz5R-24">
          <mxGeometry relative="1" as="geometry" />
        </mxCell>
        <mxCell id="lbS3CkcZTFjXa5OfJz5R-32" style="edgeStyle=orthogonalEdgeStyle;rounded=0;orthogonalLoop=1;jettySize=auto;html=1;exitX=0.5;exitY=0;exitDx=0;exitDy=0;exitPerimeter=0;entryX=0.5;entryY=1.133;entryDx=0;entryDy=0;entryPerimeter=0;startArrow=classic;startFill=1;endArrow=none;strokeWidth=2;" edge="1" parent="1" source="lbS3CkcZTFjXa5OfJz5R-5" target="lbS3CkcZTFjXa5OfJz5R-28">
          <mxGeometry relative="1" as="geometry" />
        </mxCell>
        <mxCell id="lbS3CkcZTFjXa5OfJz5R-35" value="" style="shape=image;verticalLabelPosition=bottom;labelBackgroundColor=default;verticalAlign=top;aspect=fixed;imageAspect=0;image=https://docs.pytest.org/en/stable/_static/pytest1.png;imageBackground=default;" vertex="1" parent="1">
          <mxGeometry x="520" y="260" width="70" height="70" as="geometry" />
        </mxCell>
        <mxCell id="lbS3CkcZTFjXa5OfJz5R-36" value="" style="group" vertex="1" connectable="0" parent="1">
          <mxGeometry x="230" y="630" width="100" height="90.00000000000006" as="geometry" />
        </mxCell>
        <mxCell id="lbS3CkcZTFjXa5OfJz5R-50" style="edgeStyle=orthogonalEdgeStyle;rounded=0;orthogonalLoop=1;jettySize=auto;html=1;exitX=1;exitY=0.5;exitDx=0;exitDy=0;exitPerimeter=0;strokeWidth=2;" edge="1" parent="lbS3CkcZTFjXa5OfJz5R-36" source="lbS3CkcZTFjXa5OfJz5R-37">
          <mxGeometry relative="1" as="geometry">
            <mxPoint x="210" y="30" as="targetPoint" />
          </mxGeometry>
        </mxCell>
        <mxCell id="lbS3CkcZTFjXa5OfJz5R-37" value="fn" style="shape=mxgraph.electrical.abstract.function;html=1;shadow=0;dashed=0;align=center;strokeWidth=1;fontSize=24;aspect=fixed;" vertex="1" parent="lbS3CkcZTFjXa5OfJz5R-36">
          <mxGeometry x="15" width="60" height="60" as="geometry" />
        </mxCell>
        <mxCell id="lbS3CkcZTFjXa5OfJz5R-38" value="Trigger Function" style="text;html=1;align=center;verticalAlign=middle;resizable=0;points=[];autosize=1;strokeColor=none;fillColor=none;" vertex="1" parent="lbS3CkcZTFjXa5OfJz5R-36">
          <mxGeometry x="-10" y="60.00000000000006" width="110" height="30" as="geometry" />
        </mxCell>
        <mxCell id="lbS3CkcZTFjXa5OfJz5R-39" style="edgeStyle=orthogonalEdgeStyle;rounded=0;orthogonalLoop=1;jettySize=auto;html=1;exitX=0.5;exitY=0;exitDx=0;exitDy=0;exitPerimeter=0;entryX=0.514;entryY=0.893;entryDx=0;entryDy=0;entryPerimeter=0;strokeWidth=2;startArrow=classic;startFill=1;endArrow=none;" edge="1" parent="1" source="lbS3CkcZTFjXa5OfJz5R-37" target="lbS3CkcZTFjXa5OfJz5R-4">
          <mxGeometry relative="1" as="geometry" />
        </mxCell>
        <mxCell id="lbS3CkcZTFjXa5OfJz5R-41" value="" style="group" vertex="1" connectable="0" parent="1">
          <mxGeometry x="425" y="630" width="105" height="90.00000000000006" as="geometry" />
        </mxCell>
        <mxCell id="lbS3CkcZTFjXa5OfJz5R-42" value="fn" style="shape=mxgraph.electrical.abstract.function;html=1;shadow=0;dashed=0;align=center;strokeWidth=1;fontSize=24;aspect=fixed;" vertex="1" parent="lbS3CkcZTFjXa5OfJz5R-41">
          <mxGeometry x="15" width="60" height="60" as="geometry" />
        </mxCell>
        <mxCell id="lbS3CkcZTFjXa5OfJz5R-43" value="Refresh Forecast" style="text;html=1;align=center;verticalAlign=middle;resizable=0;points=[];autosize=1;strokeColor=none;fillColor=none;" vertex="1" parent="lbS3CkcZTFjXa5OfJz5R-41">
          <mxGeometry x="-15" y="60.00000000000006" width="120" height="30" as="geometry" />
        </mxCell>
        <mxCell id="lbS3CkcZTFjXa5OfJz5R-44" value="" style="group" vertex="1" connectable="0" parent="1">
          <mxGeometry x="355" y="770" width="70" height="115" as="geometry" />
        </mxCell>
        <mxCell id="lbS3CkcZTFjXa5OfJz5R-45" value="" style="shape=cylinder3;whiteSpace=wrap;html=1;boundedLbl=1;backgroundOutline=1;size=15;fillColor=#d5e8d4;strokeColor=#82b366;gradientColor=#97d077;" vertex="1" parent="lbS3CkcZTFjXa5OfJz5R-44">
          <mxGeometry x="5" width="60" height="80" as="geometry" />
        </mxCell>
        <mxCell id="lbS3CkcZTFjXa5OfJz5R-46" value="Forecast&amp;nbsp;&lt;div&gt;Metadata&lt;/div&gt;" style="text;html=1;align=center;verticalAlign=middle;resizable=0;points=[];autosize=1;strokeColor=none;fillColor=none;" vertex="1" parent="lbS3CkcZTFjXa5OfJz5R-44">
          <mxGeometry y="75" width="70" height="40" as="geometry" />
        </mxCell>
        <mxCell id="lbS3CkcZTFjXa5OfJz5R-47" value="" style="group" vertex="1" connectable="0" parent="1">
          <mxGeometry x="540" y="770" width="70" height="115" as="geometry" />
        </mxCell>
        <mxCell id="lbS3CkcZTFjXa5OfJz5R-48" value="" style="shape=cylinder3;whiteSpace=wrap;html=1;boundedLbl=1;backgroundOutline=1;size=15;fillColor=#d5e8d4;strokeColor=#82b366;gradientColor=#97d077;" vertex="1" parent="lbS3CkcZTFjXa5OfJz5R-47">
          <mxGeometry x="5" width="60" height="80" as="geometry" />
        </mxCell>
        <mxCell id="lbS3CkcZTFjXa5OfJz5R-49" value="Forecast" style="text;html=1;align=center;verticalAlign=middle;resizable=0;points=[];autosize=1;strokeColor=none;fillColor=none;" vertex="1" parent="lbS3CkcZTFjXa5OfJz5R-47">
          <mxGeometry y="80" width="70" height="30" as="geometry" />
        </mxCell>
        <mxCell id="lbS3CkcZTFjXa5OfJz5R-51" style="edgeStyle=orthogonalEdgeStyle;rounded=0;orthogonalLoop=1;jettySize=auto;html=1;exitX=0.5;exitY=0;exitDx=0;exitDy=0;exitPerimeter=0;entryX=0.5;entryY=0.993;entryDx=0;entryDy=0;entryPerimeter=0;strokeWidth=2;startArrow=classic;startFill=1;endArrow=none;" edge="1" parent="1" source="lbS3CkcZTFjXa5OfJz5R-42" target="lbS3CkcZTFjXa5OfJz5R-6">
          <mxGeometry relative="1" as="geometry" />
        </mxCell>
        <mxCell id="lbS3CkcZTFjXa5OfJz5R-53" style="rounded=0;orthogonalLoop=1;jettySize=auto;html=1;exitX=0.855;exitY=0;exitDx=0;exitDy=4.35;exitPerimeter=0;entryX=0.254;entryY=0.967;entryDx=0;entryDy=0;entryPerimeter=0;endArrow=none;startFill=1;startArrow=classic;strokeWidth=2;" edge="1" parent="1" source="lbS3CkcZTFjXa5OfJz5R-3" target="lbS3CkcZTFjXa5OfJz5R-28">
          <mxGeometry relative="1" as="geometry" />
        </mxCell>
        <mxCell id="lbS3CkcZTFjXa5OfJz5R-55" style="edgeStyle=orthogonalEdgeStyle;rounded=0;orthogonalLoop=1;jettySize=auto;html=1;exitX=1;exitY=0.5;exitDx=0;exitDy=0;exitPerimeter=0;endArrow=none;startFill=1;startArrow=classic;strokeWidth=2;" edge="1" parent="1" source="lbS3CkcZTFjXa5OfJz5R-42" target="lbS3CkcZTFjXa5OfJz5R-52">
          <mxGeometry relative="1" as="geometry" />
        </mxCell>
        <mxCell id="lbS3CkcZTFjXa5OfJz5R-56" value="" style="group" vertex="1" connectable="0" parent="1">
          <mxGeometry x="580" y="632.93" width="120" height="84.13999999999999" as="geometry" />
        </mxCell>
        <mxCell id="lbS3CkcZTFjXa5OfJz5R-52" value="" style="dashed=0;outlineConnect=0;html=1;align=center;labelPosition=center;verticalLabelPosition=bottom;verticalAlign=top;shape=mxgraph.weblogos.json;aspect=fixed;" vertex="1" parent="lbS3CkcZTFjXa5OfJz5R-56">
          <mxGeometry x="35" width="50" height="54.14" as="geometry" />
        </mxCell>
        <mxCell id="lbS3CkcZTFjXa5OfJz5R-54" value="Forecast Settings" style="text;html=1;align=center;verticalAlign=middle;resizable=0;points=[];autosize=1;strokeColor=none;fillColor=none;" vertex="1" parent="lbS3CkcZTFjXa5OfJz5R-56">
          <mxGeometry y="54.139999999999986" width="120" height="30" as="geometry" />
        </mxCell>
        <mxCell id="lbS3CkcZTFjXa5OfJz5R-57" style="edgeStyle=orthogonalEdgeStyle;rounded=0;orthogonalLoop=1;jettySize=auto;html=1;exitX=0.5;exitY=0;exitDx=0;exitDy=0;exitPerimeter=0;endArrow=none;startFill=1;startArrow=classic;strokeWidth=2;" edge="1" parent="1" source="lbS3CkcZTFjXa5OfJz5R-48">
          <mxGeometry relative="1" as="geometry">
            <mxPoint x="500" y="720" as="targetPoint" />
          </mxGeometry>
        </mxCell>
        <mxCell id="lbS3CkcZTFjXa5OfJz5R-58" style="edgeStyle=orthogonalEdgeStyle;rounded=0;orthogonalLoop=1;jettySize=auto;html=1;exitX=0.5;exitY=0;exitDx=0;exitDy=0;exitPerimeter=0;entryX=0.408;entryY=0.967;entryDx=0;entryDy=0;entryPerimeter=0;endArrow=none;startFill=1;startArrow=classic;strokeWidth=2;" edge="1" parent="1" source="lbS3CkcZTFjXa5OfJz5R-45" target="lbS3CkcZTFjXa5OfJz5R-43">
          <mxGeometry relative="1" as="geometry" />
        </mxCell>
        <mxCell id="lbS3CkcZTFjXa5OfJz5R-59" value="" style="shape=image;verticalLabelPosition=bottom;labelBackgroundColor=default;verticalAlign=top;aspect=fixed;imageAspect=0;image=https://upload.wikimedia.org/wikipedia/commons/d/de/AirflowLogo.png;" vertex="1" parent="1">
          <mxGeometry x="192.96" y="125.33" width="100" height="38.67" as="geometry" />
        </mxCell>
        <mxCell id="lbS3CkcZTFjXa5OfJz5R-63" value="" style="shape=image;verticalLabelPosition=bottom;labelBackgroundColor=default;verticalAlign=top;aspect=fixed;imageAspect=0;image=https://upload.wikimedia.org/wikipedia/commons/thumb/c/c3/Python-logo-notext.svg/1869px-Python-logo-notext.svg.png;" vertex="1" parent="1">
          <mxGeometry x="395" y="119.99999999999999" width="45" height="49.32" as="geometry" />
        </mxCell>
        <mxCell id="lbS3CkcZTFjXa5OfJz5R-61" value="" style="shape=image;verticalLabelPosition=bottom;labelBackgroundColor=default;verticalAlign=top;aspect=fixed;imageAspect=0;image=data:image/svg+xml,PHN2ZyB4bWxuczp4bGluaz0iaHR0cDovL3d3dy53My5vcmcvMTk5OS94bGluayIgeG1sbnM9Imh0dHA6Ly93d3cudzMub3JnLzIwMDAvc3ZnIiBpZD0ic3ZnMiIgaGVpZ2h0PSIxNDUiIHdpZHRoPSI2MTAiIHZlcnNpb249IjEuMSIgdmlld0JveD0iMCAwIDYxMCAxNDUiPiYjeGE7ICA8bWV0YWRhdGEgaWQ9Im1ldGFkYXRhNCI+JiN4YTsgICAgJiN4YTsgICAgICAmI3hhOyAgICAgICAgaW1hZ2Uvc3ZnK3htbCYjeGE7ICAgICAgICAmI3hhOyAgICAgICAgJiN4YTsgICAgICAmI3hhOyAgICAmI3hhOyAgPC9tZXRhZGF0YT4mI3hhOyAgPGRlZnMgaWQ9ImRlZnM2Ij4mI3hhOyAgICA8Y2xpcFBhdGggaWQ9ImNsaXBQYXRoOCI+JiN4YTsgICAgICA8cGF0aCBpZD0icGF0aDEwIiBkPSJtIDc2LDIgMCw0NiAtMjIsMCAwLDIzIC0xOC40MTkyNjMsMCBjIC0wLjA3ODE4LDAuNjY1Njk0IC0wLjE0MTQ4NSwxLjMzMjg2OSAtMC4yMDU3MzcsMiAtMS4xNTExNjIsMTIuNTMwOTYzIDEuMDM2NDIyLDI0LjA4NzU0NiA2LjA2MjUsMzMuOTY4NzUgTCA0My4xMjUsMTEwIGMgMS4wMTE0MDMsMS44MTY3OCAyLjE5MTI0MSwzLjUyMjk3IDMuNDM3NSw1LjE4NzUgMS4yNDQ3MjUsMS42NjI0OCAxLjY4NTcxNiwyLjU4MjYyIDIuNDY4NzUsMy42ODc1IEMgNjIuMzE5OTExLDEzMy44MTA4MyA4Mi4xMjk0NzMsMTQxIDEwNSwxNDEgMTU1LjY0ODM2LDE0MSAxOTguNjMyOTksMTE4LjU2MjAxIDIxNy42NTYyNSw2OC4xNTYyNSAyMzEuMTUzMDIsNjkuNTQxMjIgMjQ0LjA5OTY4LDY2LjA4MDM1OCAyNTAsNTQuNTYyNSAyNDAuNjAxMzcsNDkuMTM4ODM1IDIyOC41MjE2Myw1MC44NzcyMjYgMjIxLjU2MjUsNTQuMzc1IEwgMjQwLDIgMTY4LDQ4IDE0NSw0OCAxNDUsMiB6Ii8+JiN4YTsgICAgPC9jbGlwUGF0aD4mI3hhOyAgPC9kZWZzPiYjeGE7ICA8cGF0aCBzdHlsZT0iZmlsbDpub25lO3N0cm9rZTojMzk0ZDU0O3N0cm9rZS13aWR0aDoxMC41O3N0cm9rZS1saW5lY2FwOnJvdW5kO3N0cm9rZS1saW5lam9pbjpyb3VuZCIgaWQ9InBhdGgxMiIgZD0ibSA0NjcuODIsMTEzLjI0MDkyIC0wLjA0MjIsLTI1LjU1Nzg2MiAtMC4xMjY4NywtNDUuNjU3MTggbSAyNS44NTQwNiwxOS42NzYxNyAtMjUuNzI3MTIsMjUuOTgxMDEgMjUuODU0MDcsMjUuNjQyNDkyIE0gMzIxLjI4NTQ3LDg4LjAyMTU3MyBjIDAuMTI0MTcsLTUuNDgwOTMzIC0xLjQ2OTA0LC0xMS4wODE0MyAtNC42OTY4OSwtMTUuNjEzOTk0IC00LjY1MTI2LC02LjUzMTMyIC0xMi4xNzkxOSwtMTAuOTkwNCAtMjAuNDM3ODMsLTExLjA4NjM2IC0wLjU1MDU5LDAgLTEuMDk1NTgsMCAtMS42NTAyNiwwLjA0MjI1IC0zLjI2NDgxLDAuMjAxNyAtNi40MjY2MiwwLjY1NTM3OCAtOS4yMjQ1MywxLjgxOTUxNyAtMTguNDAwNTcsNy42NTYgLTIxLjY2MDgyLDMzLjIwNzk2MiAtNi4xMzU1OCw0NC43Njg1NzUgMTMuNDQ0NzQsMTAuMDExMzkgMzMuMDAxNTUsNS45MjM2NSAzOS43NzU0OSwtOS4zNTE0NjYgMS40MzE0NCwtMy4yMjc4ODcgMi4zNjk2LC03LjI5NzEzMiAyLjM2OTYsLTEwLjU3ODU1NCBsIDAsLTQ2LjIwNzIzNiBNIDQ0NS40MzcsNjQuMzY3ODUxIGMgLTMuODA5OTMsLTIuNDYxOCAtOC4yNTQ1NiwtMy4zNDk5NDIgLTEyLjY1MTk5LC0zLjM0MjgzMyAtMC40NzY4MywwIC0wLjk2NzA4LDAuMDIzODMgLTEuMzk2MzcsMC4wNDIyNSAtMTIuNzEyODgsMC41NDY3NyAtMjQuNTAwMDEsOS41MzAzNTUgLTI0LjUwMDAxLDI2Ljk1NDI0IDAsMjAuNjAwMyAyMi4wODgwOSwzMS43MTg0NCAzOC41OTA2OSwyMi4wMDM0NiBtIDc0LjEzNDczLC0yLjI0MjY2IGMgMTMuMDAyMDcsLTExLjEzNzUgMzkuMDU2MTQsLTMzLjQ3MDU4IDM5LjA1NjE0LC0zMy40NzA1OCAwLDAgLTAuOTQ5ODksLTEuNzk3MTQ4IC0xLjU2NTYzLC0yLjYyMzQ5MiAtNS4yNTczOSwtNy4wNTU1MTUgLTEzLjI4OTI5LC0xMC41Nzg2IC0yMS43NDk1NywtMTAuNTc4NjI3IC0yMC45MDg3MSwwIC0zNi41ODE1NSwyNy4wMzY1IC0xNS43NDA5NCw0Ni42NzI3IDEuNDQzMDEsMS4zNTk2MSAzLjQyNTIzLDIuNDI0NTMgNS42Mjc4MSwzLjM0MjgzIDcuNjQ3NDcsMy4xODgzNiAxOC4xMTY1NSwyLjkyNjg1IDIzLjc4MDY2LC0xLjI2OTQzIE0gMzY0LjAyLDYxLjE5NDI3NSBjIC0wLjU5MjcxLDAuMDEwODMgLTEuMTgxOTQsMC4wNzM2NiAtMS43NzcyLDAuMDg0NjMgLTE1Ljg1NDc1LDAuMjkxMzUzIC0yNy4yODYxNSwxNi43NTkxNzggLTIzLjgyMjk4LDMyLjAzMTk2MiAzLjM3NDc4LDE0Ljg4Mjk2MyAxOS42MzQwMywyMy42OTU4ODMgMzMuNjgyMjIsMTguODI5ODgzIDE2LjM1ODU5LC00LjI4OTI3IDIzLjAzMDYxLC0yNC44ODg3NTYgMTQuMDQ4MzYsLTM4LjgwMjI1NCAtNC45MTI2LC03LjYwOTY0IC0xMy4yMzkyNSwtMTIuMzEzMiAtMjIuMTMwNCwtMTIuMTQ0MjIgeiBtIDI0MC43MjYzMSwwLjUwNzc3MiBjIC02LjQyMDEyLDAuMDE3MiAtMTIuNjcyNzMsMi4yNjU4MTUgLTE3LjMwNjU2LDYuNjAxMDM4IC03LjMwNzY3LDYuMDMxMzIgLTguODk0NDgsMTMuNjQ3NDEgLTguODAxMzksMjMuMjcyOSBsIDAuMjExNTcsMjEuODc2NTIyIi8+JiN4YTsgIDxwYXRoIHN0eWxlPSJmaWxsOiMzOTRkNTQiIGlkPSJwYXRoMTQiIGQ9Im0gMTQ3LjQ4NzYsNDUuNzMyIDIyLjg2NiwwIDAsMjMuMzc0NzMgMTEuNTYxNzcsMCBjIDUuMzM5MDUsMCAxMC44MzA3MywtMC45NTExNyAxNS44ODcsLTIuNjY0NDQgMi40ODQ0OCwtMC44NDI0NCA1LjI3MzE3LC0yLjAxNDc5IDcuNzIzOTIsLTMuNDg5MiAtMy4yMjc4NSwtNC4yMTQzNiAtNC44NzU3OSwtOS41MzU3NCAtNS4zNjEwMSwtMTQuNzgxMDYgLTAuNjU4NzQsLTcuMTM0MjYgMC43ODAzMiwtMTYuNDIwNDIgNS42MDg5NywtMjIuMDA0MjE2IGwgMi40MDM2MiwtMi43ODAxMTcgMi44NjQyLDIuMzAyMzkzIGMgNy4yMTEzOCw1Ljc5Mzc0IDEzLjI3NjEyLDEzLjg4OTM0IDE0LjM0NTEsMjMuMTE4MTkgOC42ODMxMiwtMi41NTQxMSAxOC44Nzc1OSwtMS45NSAyNi41MzEzNSwyLjQ2NzM1IGwgMy4xNDAwMiwxLjgxMTgyIC0xLjY1Mjc2LDMuMjI1NyBDIDI0Ni45MzI4OSw2OC45NDY1MjQgMjMzLjQwMDc3LDcyLjg1OTg5NiAyMjAuMTcwNzEsNzIuMTY3NDExIDIwMC4zNzM1NiwxMjEuNDc1OCAxNTcuMjcyOSwxNDQuODIgMTA1LjAxMzU2LDE0NC44MiBjIC0yNi45OTg4OTksMCAtNTEuNzY5ODQ1LC0xMC4wOTI3MiAtNjUuODc1NTUyLC0zNC4wNDY5MyAtMC44MjcwMTgsLTEuNDg3OTggLTEuNTM1MjMzLC0zLjA0MzkgLTIuMjg2MzI2LC00LjU3MjEyIEMgMzIuMDgzNTQ4LDk1LjY1Njc0NyAzMC40OTk4ODMsODQuMTA1Njg3IDMxLjU3NDIyNiw3Mi41NjQyNjcgbCAwLjMyMjQxLC0zLjQ1NzA3MiAxOS41NTI5MzcsMCAwLC0yMy4zNzQ3MyAyMi44NjYsMCAwLC0yMi44NjYgNDUuNzMyLDAgMCwtMjIuODY2IDI3LjQzOTY3LDAgMCw0NS43MzIiLz4mI3hhOyAgPGcgaWQ9ImcxNiIgY2xpcC1wYXRoPSJ1cmwoI2NsaXBQYXRoOCkiPiYjeGE7ICAgIDxnIGlkPSJnMTgiPiYjeGE7ICAgICAgPGcgaWQ9ImcyMCIgdHJhbnNmb3JtPSJ0cmFuc2xhdGUoMCwtMjIuODY2KSI+JiN4YTsgICAgICAgIDxwYXRoIHN0eWxlPSJmaWxsOiMwMGFjZDMiIGlkPSJwYXRoMjIiIGQ9Im0gMTIzLjg1OTAxLDMuODExMDc5NCAxOS44MTc1MSwwIDAsMTkuODE2OTcwNiAtMTkuODE3NTEsMCB6Ii8+JiN4YTsgICAgICAgIDxwYXRoIHN0eWxlPSJmaWxsOiMyMGMyZWYiIGlkPSJwYXRoMjQiIGQ9Im0gMTIzLjg1OTAxLDI2LjY3NjQ4NSAxOS44MTc1MSwwIDAsMTkuODE4MDQzIC0xOS44MTc1MSwwIHoiLz4mI3hhOyAgICAgICAgPHBhdGggc3R5bGU9InN0cm9rZTojMzk0ZDU0O3N0cm9rZS13aWR0aDoxLjU2IiBpZD0icGF0aDI2IiBkPSJtIDEyNi4yOTIzNSwyMS45NzY5MDQgMCwtMTYuNTE1NzQ5MiBtIDIuOTcxODUsMTYuNTE1NzQ5MiAwLC0xNi41MTU3NDkyIG0gMy4wMDE4NCwxNi41MTU3NDkyIDAsLTE2LjUxNTc0OTIgbSAzLjAwMzQ0LDE2LjUxNTc0OTIgMCwtMTYuNTE1NzQ5MiBtIDMuMDAyOTIsMTYuNTE1NzQ5MiAwLC0xNi41MTU3NDkyIG0gMi45NzEzMSwxNi41MTU3NDkyIDAsLTE2LjUxNTc0OTIiLz4mI3hhOyAgICAgICAgPHVzZSB4bGluazpocmVmPSIjcGF0aDI2IiBpZD0idXNlMjgiIHRyYW5zZm9ybT0idHJhbnNsYXRlKDAsMjIuODY2KSIvPiYjeGE7ICAgICAgPC9nPiYjeGE7ICAgICAgPHVzZSB4bGluazpocmVmPSIjZzIwIiBpZD0idXNlMzAiIHRyYW5zZm9ybT0ibWF0cml4KDEsMCwwLC0xLDIyLjg2Niw0LjU3MjY1MSkiLz4mI3hhOyAgICA8L2c+JiN4YTsgICAgPHVzZSB4bGluazpocmVmPSIjZzE4IiBpZD0idXNlMzIiIHRyYW5zZm9ybT0idHJhbnNsYXRlKC05MS40NjQsNDUuNzMyKSIvPiYjeGE7ICAgIDx1c2UgeGxpbms6aHJlZj0iI2cxOCIgaWQ9InVzZTM0IiB0cmFuc2Zvcm09InRyYW5zbGF0ZSgtNDUuNzMyLDQ1LjczMikiLz4mI3hhOyAgICA8dXNlIHhsaW5rOmhyZWY9IiNnMTgiIGlkPSJ1c2UzNiIgdHJhbnNmb3JtPSJ0cmFuc2xhdGUoMCw0NS43MzIpIi8+JiN4YTsgIDwvZz4mI3hhOyAgPHBhdGggc3R5bGU9ImZpbGw6IzE3YjVlYiIgaWQ9InBhdGgzOCIgY2xpcC1wYXRoPSJ1cmwoI2NsaXBQYXRoOCkiIGQ9Im0gMjIxLjU3MDE0LDU0LjM3OTY0OSBjIDEuNTMzMzIsLTExLjkxNTI0NyAtNy4zODM4MywtMjEuMjc0Nzc5IC0xMi45MTQwNywtMjUuNzE4MzYgLTYuMzcyNjksNy4zNjc3NjUgLTcuMzYyOTUsMjYuNjc3NTU2IDIuNjM0OTgsMzQuODA3NDMxIC01LjU3OTUyLDQuOTU2MTE3IC0xNy4zMzczMSw5LjQ0ODQzNSAtMjkuMzc1NzQsOS40NDg0MzUgTCAzNCw3Mi45MTcxNTUgQyAzMi44MjkyNTUsODUuNDg0MTg0IDM0LDE0NiAzNCwxNDYgbCAyMTcsMCAtMC45ODY1NywtOTEuNDI0IGMgLTkuMzk4NjMsLTUuNDIzNjY1IC0yMS40ODQxOSwtMy42OTQzMjYgLTI4LjQ0MzMyLC0wLjE5NjU1MiIvPiYjeGE7ICA8cGF0aCBzdHlsZT0iZmlsbC1vcGFjaXR5OjAuMTciIGlkPSJwYXRoNDAiIGNsaXAtcGF0aD0idXJsKCNjbGlwUGF0aDgpIiBkPSJtIDM0LDg5IDAsNTcgMjE3LDAgMCwtNTciLz4mI3hhOyAgPHBhdGggc3R5bGU9ImZpbGw6I2Q0ZWRmMSIgaWQ9InBhdGg0MiIgY2xpcC1wYXRoPSJ1cmwoI2NsaXBQYXRoOCkiIGQ9Ik0gMTExLjIzNzM2LDE0MC44ODk5NyBDIDk3LjY5Nzc0MSwxMzQuNDY0OCA5MC4yNjU3MDcsMTI1LjczMDgxIDg2LjEzMDYxMSwxMTYuMTk1NjIgTCA0NSwxMTggbCAyMSwyOCA0NS4yMzczNiwtNS4xMTAwMyIvPiYjeGE7ICA8cGF0aCBzdHlsZT0iZmlsbC1vcGFjaXR5OjAuMDg1IiBpZD0icGF0aDQ0IiBjbGlwLXBhdGg9InVybCgjY2xpcFBhdGg4KSIgZD0ibSAyMjIuNSw1My45Mzc1IDAsMC4wMzEyNSBjIC0yMC44NjExOSwyNi44ODkxNDQgLTUwLjc4MzEyLDUwLjM3ODcyIC04Mi45MDYyNSw2Mi43MTg3NSAtMjguNjU0NzgsMTEuMDA3NjcgLTUzLjYzODM4MSwxMS4wNjAzOSAtNzAuODc1LDIuMjE4NzUgLTEuODU2MDcsLTEuMDQ4MzIgLTMuNjc1NzAxLC0yLjIxMTUyIC01LjUsLTMuMzEyNSBDIDUwLjU4MjA5NywxMDYuNzYxNzUgNDMuNDY0Mjc0LDkyLjE1MjMwOCA0NC4wNjI1LDcyLjkwNjI1IEwgMzQsNzIuOTA2MjUgMzQsMTQ2IGwgMjE3LDAgMCwtOTYgLTI1LDAgeiIvPiYjeGE7ICA8cGF0aCBzdHlsZT0iZmlsbDpub25lO3N0cm9rZTojMzk0ZDU0O3N0cm9rZS13aWR0aDozLjQ7c3Ryb2tlLWxpbmVjYXA6cm91bmQiIGlkPSJwYXRoNDYiIGQ9Im0gNDUuNjI1LDExNy4wMzEyNSBjIDE0LjE2NTE1MywwLjc3NTMxIDI5LjI4MjQ1LDAuOTE0MzMgNDIuNDY4NzUsLTMuMjE4NzUiLz4mI3hhOyAgPHBhdGggc3R5bGU9ImZpbGw6I2Q0ZWRmMSIgaWQ9InBhdGg0OCIgZD0ibSAxMDIuMTcwMjQsMTA2Ljk1OTI2IGMgMCwzLjAxODk4IC0yLjQ0NzUyOSw1LjQ2NjUxIC01LjQ2NjUwOCw1LjQ2NjUxIC0zLjAxOTUxNCwwIC01LjQ2NzU4MSwtMi40NDc1MyAtNS40Njc1ODEsLTUuNDY2NTEgMCwtMy4wMTg5NyAyLjQ0ODA2NywtNS40Njc1OCA1LjQ2NzU4MSwtNS40Njc1OCAzLjAxODk3OSwwIDUuNDY2NTA4LDIuNDQ4NjEgNS40NjY1MDgsNS40Njc1OCB6Ii8+JiN4YTsgIDxwYXRoIHN0eWxlPSJmaWxsOiMzOTRkNTQiIGlkPSJwYXRoNTAiIGQ9Im0gOTguMTIxMzcyLDEwMy4zMDc3OCBjIC0wLjQ3NzE4OCwwLjI3NTgyIC0wLjgwMDEzMywwLjc5MjY0IC0wLjgwMDEzMywxLjM4MzkgMCwwLjg4MjYxIDAuNzE1NTE0LDEuNTk3MDYgMS41OTgxMjUsMS41OTcwNiAwLjYwNDY1MywwIDEuMTMwMDQ2LC0wLjMzNTggMS40MDE1NzYsLTAuODMxNzQgMC4xOTE3MywwLjQ2MjIgMC4yOTgzMSwwLjk2OTkxIDAuMjk4MzEsMS41MDIyNiAwLDIuMTYyMDggLTEuNzUyOTA3LDMuOTE0OTggLTMuOTE1NTE4LDMuOTE0OTggLTIuMTYyMDc1LDAgLTMuOTE2MDUsLTEuNzUyOSAtMy45MTYwNSwtMy45MTQ5OCAwLC0yLjE2MzE0IDEuNzUzOTc1LC0zLjkxNjU4IDMuOTE2MDUsLTMuOTE2NTggMC41MDAyMTgsMCAwLjk3NzQwNiwwLjA5NDMgMS40MTc2NCwwLjI2NTEgeiIvPiYjeGE7ICA8cGF0aCBzdHlsZT0iZmlsbDojMzk0ZDU0IiBpZD0icGF0aDUyIiBkPSJtIDAsOTAuMTYyMzQzIDI1NC4zMjc0MywwIGMgLTUuNTM3NzQsLTEuNDA0Nzg2IC0xNy41MjEsLTMuMzAyMjkzIC0xNS41NDQ3NywtMTAuNTU5NzMyIC0xMC4wNjkxNSwxMS42NTE3NDkgLTM0LjM1Mjc0LDguMTc0MzI2IC00MC40ODEyLDIuNDI4Nzg2IC02LjgyNDcxLDkuODk4MzEgLTQ2LjU1NDUxLDYuMTM1OTY3IC00OS4zMjU1MywtMS41NzUwOTYgLTguNTU1NjUsMTAuMDQwNzcgLTM1LjA2NzE4LDEwLjA0MDc3IC00My42MjMzNiwwIC0yLjc3MjA5LDcuNzExMDYzIC00Mi41MDEzNTcsMTEuNDczNDA2IC00OS4zMjY1OTUsMS41NzUwOTYgQyA0OS44OTc1MDYsODcuNzc2OTM3IDI1LjYxNjA2Nyw5MS4yNTQzNiAxNS41NDU4NDEsNzkuNjAyNjExIDE3LjUyMjA3NSw4Ni44NjAwNSA1LjUzODgxMTcsODguNzU3NTU3IDAsOTAuMTYyMzQzIi8+JiN4YTs8L3N2Zz4=;clipPath=inset(0% 57.67% 0% 0%);" vertex="1" parent="1">
          <mxGeometry x="302.96" y="124.86999999999999" width="69.99989366415595" height="39.13159060700044" as="geometry" />
        </mxCell>
        <mxCell id="lbS3CkcZTFjXa5OfJz5R-64" value="" style="shape=image;verticalLabelPosition=bottom;labelBackgroundColor=default;verticalAlign=top;aspect=fixed;imageAspect=0;image=data:image/png,iVBORw0KGgoAAAANSUhEUgAAAZUAAADWCAYAAAAZ4B9NAAABdWlDQ1BrQ0dDb2xvclNwYWNlRGlzcGxheVAzAAAokXWQvUvDUBTFT6tS0DqIDh0cMolD1NIKdnFoKxRFMFQFq1OafgltfCQpUnETVyn4H1jBWXCwiFRwcXAQRAcR3Zw6KbhoeN6XVNoi3sfl/Ticc7lcwBtQGSv2AijplpFMxKS11Lrke4OHnlOqZrKooiwK/v276/PR9d5PiFlNu3YQ2U9cl84ul3aeAlN//V3Vn8maGv3f1EGNGRbgkYmVbYsJ3iUeMWgp4qrgvMvHgtMunzuelWSc+JZY0gpqhrhJLKc79HwHl4plrbWD2N6f1VeXxRzqUcxhEyYYilBRgQQF4X/8044/ji1yV2BQLo8CLMpESRETssTz0KFhEjJxCEHqkLhz634PrfvJbW3vFZhtcM4v2tpCAzidoZPV29p4BBgaAG7qTDVUR+qh9uZywPsJMJgChu8os2HmwiF3e38M6Hvh/GMM8B0CdpXzryPO7RqFn4Er/QcXKWq8UwZBywAAADhlWElmTU0AKgAAAAgAAYdpAAQAAAABAAAAGgAAAAAAAqACAAQAAAABAAABlaADAAQAAAABAAAA1gAAAADQuN82AABAAElEQVR4Ae29CbRtVXUmvPc+zb339fcJKNggAnbYoFFR1KCi2ENilSamK6NWoqmkMozWb8VokpGqxEqMaaxkpBtWolaqNMakjIqS2IMGUUSRLioCCoiC8Pp77+n2v75zznfePPOstfbap3+Ptcc4d3bf/OZcc++z9+lvksQtTiBOIE4gTiBOIE4gTiBOIE4gTiBOIE4gTiBOIE4gTiBOIE4gTiBOIE4gTiBOIE4gTiBOIE4gTiBOIE4gTiBOIE4gTiBOIE4gTiBOIE4gTiBOIE4gTiBOIE4gTiBOIE4gTiBOIE4gTiBOIE4gTiBOIE4gTiBOIE4gTiBOIE4gTiBOIE4gTiBOIE4gTiBOIE4gTiBOIE4gTiBOIE4gTiBOIE4gTiBOIE4gTiBOIE4gTiBOIE4gTiBOIE4gTiBOIE4gTiBOIE4gTiBOIE4gTiBOIE4gTiBOIE4gTiBOIE4gTiBOIE4gTiBOIE4gTiBOIE4gTiBOIE4gTiBOIE4gTiBOIE4gTiBOIE4gTiBOIE4gTiBOIE4gTiBOIE4gTiBOYOETSBfeQWxAT2CcfZJrkmjHCcQJxAksYgLZIorGmnECcQJxAnECx+cExnlUfHxOYrxVHU/zi892xjsGYlacQJyAmEB8piKGEdU4gTiBOIE4gckmEC8qk80vZscJxAnECcQJiAkcTy/fiGWNpcZZ2McWXxazzyV64wTiBCwTiM9ULEOJrjiBOIE4gTiB8SZwb3l0fm9Z53hHQbms+Myl3LwiOk7gXjWB+EzlXrW742LjBOIE4gRmO4Hj5RH8sq1jUf0s6lnEourO9t4R2eME4gRKTyA+Uyk9spgQJxAnECcQJ+CawKIeUbv6CfHPu+dx6o2TE7J2GybkWUIIxsZd1jevOmX7ivg4gTiBOU0gPlOZ06BjmTiBOIE4gXvDBKrHwCLn9ah/mnWmyeXbRaHPDHz9hHL4+oixOIE4gTiB7gSOhYvKMu0q38l5UX0W9RQvGovaM7FunMC9cAJFJ6RFjmTWvZXlB75sziLnh9q4oJS9qJTF29Y4DQ4bb/TNfwLzOubjMTP/fTuTivGZyuhYXXcil3+UYbk8uu94512u/RO7iRM4riagTzjLsLhZ9FSGc5IPL5SpM81Zh14ogCuDnbTH0FqT1on5YRNY1PEZ1l0YKh5TYXNaGOre/kxlWneyMjxlsDwwpnlHkvWnycteo4wTiBO4F0/g3nhRkSdVuetdfomBrnHa1vjS9t6VC19rnlB4edudxmf3Ny+5xpDjwkBs0UUCOIlhnuxRxqU/6nECcQJxAoUTWKaLiu0EV7gABRiHoyjHFrf5VCte05Z/9GSeZn9osm2YAWma1X/ZGLioEId8vHR3lGdYN6HuRjxtiacPMhQnc6K+XBPQ+3C5uhuvG9+aXMfyeJVi1lgTWKaLylgLcCT5DjxHysBty7X5BgklFXJR6vRx7xjkowQP9LJ8Ml/3Fu04gTiBOAHvBJbhosKTmLdRR7Bsrg+PGG48GTtKdt0uHpffx8UYcynp90liXRcOxslhwxFjizEPMhQnc6I+2wlwn8y2yrHDXjSPomP82FnpEne6DBeVScdTdCAV8SNfckg9JLcIM6N49z0X9mq7szBGyT5sWMak1HmIheZKnqjHCcQJ3IsmcCxeVGwnO73LQjE+XLq3esEPddLVMzX5kJ229u1rXHxJ3+fic/mHqCYw9MegefKnJLWtD2J0jH7mUmoc/GWw5IlyuSdg28/z6Nh1LE2j9vG4pmnMZaocx+JFZRoDwMFVfIBVV/5DlmQ/5y9Yx5vlvKgQqrm1TdwipOwFd2Das7wzL2KdsWacQJzAAiawyIsKT2ZFy3bhbH6bD/w2vzyhSowN6+mx+zJUxQOYUahbl89QXBcEroVxLWVvGktbY8hBP2yN1Rhio5zuBPTcy7LPK7/M8eDrqQyPnMW4eZJjEt23plDeRa8htM9kkReV4CanBJzGjp1SK1Oj4ZpCDzjggWWebgQxfiw5lFNzRDtOIE7gXjyBeV9UXCcz2y4IwbowNj9PkoxpqXswJ1f/FxB1grGLOC0pU3HxGQvJuNZO38G+YFInxiWJ05zaDxsc5AFeY+CL22ImULQviuLT6HoaNXB8+Xjk8ad79uVpbBnbV7MMTwjWt4Z59lHY67wvKoUNFQB8gy1IHTogfTw8QQPjw8l6xFHK2Ix07wWPfVCGHHTEol/gYYfkAQ+sCx/KAZ64HZ2A3B9HveW0aXCUqzg7dNFaXMefraN4TNqmMiXfrC8qRQeCbRlFOba4y8eTI+OUtrqTvC8CXhu3zWerPY4P3LwA8k5CST5bnBj2Rkk/JH2U0kduSObQRzxtHad/mlLXnCb3Irlmsa5ZcC5yRvr4Cl0fcMjV+WXXElpv0jpFfek+Zl3P28+sLyre4iWCemi+VB4wwITk4cRrw9l8rrrEUrpws/Lruvqg0nH0oTG+3phfJod8zKU9CzmPGrPoe9k4MUfs40XNk7XHOc7KzhJr5HrL5gI/jx7H6WvhObO6qIxzULpyuPNtw5I50LmjpR952nb5pN+Wg7jegNNY+ngn0TnTslGHawan7kPGWJM5xBJDmzj6aUMSwxhtYuinreP0Rzn+BCadaVF+UdzWuc7Rx4Etx+YjD6UNAx/5Q3EuHviLOHy57MOHKaoRylFUQ8a5pllwyzpWfVYXFWuxkk4OhtKVLuPUKW05iDFOCRx1Sluuy8eXmRgnByX9U5Td91TAj1vRwcM4+7HlaIzulXH4yQPd5pc+YI7FTa7R1T/XGYJ1cUzqn3btUnx7Vi56a5J2drkW0cj2veXIkUvvdsUtfs7UEhq4fD0iH3HKQZJSQuqolCHT14METlpHch0T+jJeVEJ3FnAaG2ITQ4kdBV3a8JkLhffNcGC46VxtEzdt6arDA1nH6UcfOsbeiGFc28DRB5046NgQw0UWUuKMOdam+cciKZmEmujdV5txH6Zk2bnAXf26/N6msjT9ySSpnOQCVdr13zOxe1xxi599+I4dX4z5lJYS1n3r47RxwMcavlxiJIcPL3HHpL6MFxUO0rYzEKOfkngpdYw2pNSR47IlX5EueYuwU4nnSc73gnCAcg08WPnMCbaMA0cMJXN1XzpOGzid44rx4qK5y9q6Xtn8cfBFNYvi49QcNye0l1Ccr4+SHB3gmSOPE18NxJhjwzHm4nP5ycV82sBrH2OUPk5Xri+HvDo3JIe5SymX5aKCwerh+gbmwvr8rhjq2GLw2fy6Lx8uJF/zlbVZAwcjT+LywJRxH3cRjnHJIetIP3TiKXU82uNPQM9U2+MzH1uZRev2HZ9ypUU8wAKj+bQtOX26rjcuj6/GwmLTvqjoYYUsDDkyT+oy3+UHho/MiSdWSxlHjDf4qWMHU4c/ZNP1Q3KmgWFd9kxO9C8PVB0HDhhs/IJkzzo6S+ZrSRwkOSiJJUbb9I8jWWOc3HnlLFuPIf24MC5/qVnmeRvHKI9TX27RseKL6xh7p7TV1TnatuVIPuClDbzm0HHJqbGM6RwXjnifJNckHD5+a2zaFxVrkSk6OSRJafMxrmOw6aME1uY3vuD3VFiPktyU9IfIsAMgH7xRDzzrUCcH7szQaaM+sNqGX/pgS07YIRtziNWc9IdIzaXtEI6IGZ2AnqO2RzPm4ynbxyTHFlak65Xls+Xz/saJhXJqLuSH5rLW0shj4aJiGzh9lBwoHxFpP2z6fDp4JI68RdJVl3nkpG2TPIhCsMgHjnX5bIO5sKGDExJf7IQua9BmDiW5DLy7sQZz6dc2/Nqnc1mDHMskl7W3Mn2VwYbOfkLOwYOfonr62NF43Ye2gXdx2Pzax2NV19U4xrWf/VAiDk6JkzpxLj76Q3HE2yQ5ZH0bbiq+Y+GigoVyKEWLHsHtXn3Ok/N29f4y0bzJDdwAm2aN7x3Y+uQXJKYfH2BUTJsal+6pP/XJ7Xxldw9of8aT5Udu3d/6wrWKbJwdz4PXl8sefRi04sLRz3Zhk4uSseNJ6nXPe22zrl/EXxQPmcckHGWOrZA6ZfhC1ubCsBdK4uZVn/XmLhd5UcGw5cCljkFIGzuCeOkHDpvrUUZWSba/3jxOf34P5vpb/7iJvLwfdXE5krsXjJGctHKfX6/l2WMdSV133tn+PqO8vo/huih9qSY2uDDyIOV8dB7ifPYhuakzn5L5jDOXfimJodQctBmXuVoPwUwjR3McT3bRDHVc23IWvpjEFehTeU+Fx5GsFepDjlyL1BHTPNoGxrZJHp2jbeTTJ/N8fltNcMh8ctqwNt8kuTY+q2+RFxVrQ30nF08Jt9R1ro5pW+NtNnLGySMXcvVOZ8whBxcGR9zrZr+Q+sSvn7lwXbq/kINS5nobMkFiNU7XseFsPs1zb7ZD5hOCKZphGY5CbP9VgaKaiJNLHyuuXOJdcfhDuFw8Ibm+2jpmqzPtGrrmQuxpXVRsA7MtKAQnMRg6bN4kZ6hP5jj0kZM7uM2Juet35Ay5+UwFedgoe5b/L3OJKnOgsQ5/DBMXF+YjJudHv65DDkrieKGin5L5UjKHkjHmUNI/bTlL/llyT3MOvj7Hjen+RnjMDk9HnENZ3e+pyGNcHyNDaGNoOuC1jzmSy4az5TGHklyUzKGkX+Nh06extBmntHFpLDEuP+OQIRiJn4s+rYvKtJvFsLAjIDk4Ww0ds9i4MGi3jWrgG9wBDnW+8XuVfNufdyO9T1sNQD0lT9M0b/adKMJCUlc5QyZwg3r9CE/mQ0CHgXx5wLIuOcgNGzFsxBMLm74uoP+H+GQteZR5b2jF2NkIbiP57uEkuZUzYL7BnZDtXn38E6vZyvmdduXR5hHrqaaDnVmStjpJfqcpeX3Sbl3WaH7vkiPJlQeYaOSgrvAVqa6cdPfKc55czVaf1cmzR+d58gDDvssM5bBp8E7z8yLXt9vty1qNmz51JLn+kK3IWvKY/tpHoxvJ7UeS5LbGaGR3dS156I5Rf8+zkXzTrPce7qMh2J7qsx6XZ2sXZGntsWbcDzCPa3YlHTOvSn5XmrS/3s63Lt6/+aUvJck+W75rDkM1+kYfe9/67vrZT0/T2g9nafaoTp6eiP2U5un+NO3c0Unb17XaW5cdanz182ZklrXaqIXv6KcU4cTx4+uR8XxX7dwz08qeZyd59fGmlwdnWYKfgjHHTrIvS9o35Hnnik7yvY/v37ryLhCbDbzI15v2Eaf70LghnrW1p51Qa+06r1KtPMV87/isNEn3mnJ7TFnzgK5jjp3sO3ma39Budy5rVe/+zJEjn/P9NA1re2sONdAzxs2zUM3OtQwXFQ5Kr5J+ShnnyZI+YCSOusYRb5N8tM/ctNH45n4DxE3yD+J9P7iYCx0bMT3L8dccUcChR3lwBfY8eHYla/FEw37a/dLkRBx4WY/5iMHPfujP11ZPv8akWX/faaV90qv2NW99v8nDlu5MTlnJ6o9/ZZpVXmsuIA/ODSseypo7YReAP8Z/pvGcm1Tqr1qtPHBjJTnlPRvJrb+zuXmV7444yO8rRwl1xJCvrzzvx9O0/kZT7TRzMelWlw+pu8l55RlV02d19aGH68kZf9fq3P32Q43P3Srp1lZP+4bJXpU+6ivtE8zab/sAbcr1lSeem6Y7Pkxby6yz9pjDjc9++6h/V2V95WkvTdPq60y/Dxv4+UQ5Sx/Se9KcvbCS1F63d/W877Q6W2860PiYrQaWhv1om8/Aty05YaVeP+e1aVZ9rdk3J7BmRkRXZo/N8uy59Qw1z/1BJ229e6PzrT/b2rr+HuKLZJ50cDzx+ANcHnsj6esrz3xymu56i2n/nG4QfbAno/aIqma+ySsryQNb6yv3/0jePvBH+1qf/opE7lm96CPmODu3y6H/pO0/vHvjQ7+h3KJKN9Ltc0/tGWek6e5fyfL0ZXklWRnunindrs40F79nmePpF6qdEzuraz9yVdJp/u+trbv+7+HkCziHYOPaKUkAm3oXKLD0M4dxKUMwEg99nBzNYbXlzrYCZuTEgrgoWcLmk3Ho6FnnM49+Sp3rspmPuMyFLusxJn3UIXmTfOAs2sjLekV4Ex9cVCSWPPRpm71qP/C6NuziLcOjtd7M1lee9bTK6hO/WMmqv4sLivGHbGtpUvm5bemDrrrP2vNfYRLYW5EE9whmZ/W8s9brF12SpqvmGWZ2GkDFW7o9Syo/W89O+NKe+ovekCS7MSez3a9uSlgvKL34eH/rncw8++ltu2tPPXNP/ZkfNRdA9Hv0gkKAVaYPNM++3rN37UV/lSQ7agYi54AMvZ8Z77LtqJ//rJXVp34uy2pvkReUbtD5J71Pltdetz172BXrK8/5MQMb4nSm9QLEOuXOlcecYGb/5+YE/iFD3bugFJCacDVNs4uy6p5PrK+++B1ryRl8dmjq2B8E9Sl1H7ZK6d6V5/98Vtnz+TRLf9qc0VdsIIcvM5ePH0rS2h+urJ580/rahW/blZy1zYGFm/1Q90C7IeCXduvfeWbenxyaqxgxHBhtiWfM5iOeGEqJ9emYBeeBXNsdU/qIBSdrQTIX/oKte2EAj+QtyOmFzUEua+n65CAvbUpbroxxbcVryTM8g0nX689/jXmE+aESFxPW68k8Xc/zlXesr77od81JHc+02KNPkqOLWV85/+m16vol5iQQelJifl+mq1lWffP66nkfMCeonbtW7ocLpnPrvwnN/Sdk99G5My+pZOsmmO1ZeeZ5lezEj2dZ+iQ32BPJq/9+vf7MPwGXufnmNIjtXrnglfVs53vNxeQ0D7M7lCd70nT7n+zt7qdtAa90DB78sAfOiXa6rfbkB1XTB19sZv/v++tw17dHzBOsyk+vrT7yk9trTzoVHFni/uXkPsWgvrFH5re7/uL/mqQrv29ia338uGItzbNXHki2WoaANWU9yYs4N2K1Tb/EagzthUgsblk3Do/92XYEMXLA0ld2fchlHUh9k3GpA4cTIfHswbgKN2KZCxmwDS5IMh86NnJBh4+9Easl8ZA6Btu9VfJd3QtKtmIuBiMvA7rzHJE0qb5mvf70PzNh2VOhvrd+/nOTdMffm7ydDupgd5pkzzQnqPfn7bUT/UkjJ0zOzpvWziu791TPOztLd/9fM+3BsxZvkiNoXmZ82e7ac19qwnJG7GNI7qk//z9X0m1vM1i+POpgDXFXf3bP6jPwC8QFm3NG3d52Vp90xmrlfh82M39IAVFAODtzpXLKh3fUn3CKuaxYX67tkYzcd4bmtKv+3BdVssqbAgoGQnLzftQ39fuOQzUtRIj7Nub7MAuJBTzSmHpftmHJAdnitiZsOdonbRtH19d/1I87JTbK9A0/c+rJZz1k13rbvHvZC5m35Drdk65577Tn23+osfnGP/7GLYz35QCv/NoEjvVMG90tNBdgGxY+cOHGuNSNe7BJP3RszOlZBX/TTvV888zgkQWwUmHzOv+P7a6/4Kv7Gxf/RUji9toTH5RUdv55mpd6iaKAOntyJTvpjwtAmBX33wCa57n5RfiBOaJUksoD0uoeXIR9L4mM5Lkclcrqb6w1T7nYfHBgo48Zqb6j/qzzsmzlzS6OcfxZUv+p4ryR91SYkq8mJ69Uqiebl/CSk+mcgnxANbn/X5uj3/fgAvPhjSVx/JvbSStZtvrbdDrkD/K0c3ma53eY08BmkucnJFl6P/Ps73GGduRi1ul0LjU8rMf7GaXeV/DTR0msrZ0QjC1vZr5ZX1S4YNsCfDGJJ44SMei0tWQcsswmebr6L/30af/ppPXaT/pINrc6XzcXlQv7GHL4UnRsnBxwIA8nNBxwPOgo+YY9MPQZtbuxHvyMQ+fJUeN7WY6/5uNvj9Eh87LQXeaHBN+b5Jsfb+T7vl3JmocT86g/rex+QiVduQjPBHSOtitZ/Tf3VJ/++X2tS68xMfasYcbeXjWPTv/CrNL7UlU/8dZO2nh/2jnyya3OoduytNmodnaclGY7z8mT+kuyLHuiLGBelnqCtEf1waNwFTr6IEQFumaarbzBLOk+I7E82W9OVv+aJ+3bTLyeJdlDzW75IYMruJ+m96vXznr+RvP2/zfCaRw76o840bzk9SdG5T62wbo+88m865LO1j900gOXtzoH7zBzqVbTbSfXKtt/uJOvvMS8vHmqM9kS8LxRn66uPv7XDd9ZljTlyg93kuY/dtqb/5znh242+/Bgmtf3ZpXdj66mqy80T7yebRIGx0jxfuvS874ja6W76485z/MSbqOVb73+wNZV70uSO+Qn4XCfMbf1bFftrIen6Z6LMvMM0lxkTgd5nm1dZgTva1J2w/hjNvav738u/7g53WKz/FNwsE61NIczDqnMtenw4cYdIjGh9ZhDrtA84GRuL8/6EWRN6TopaVyhjfpcO8H0sTf6iZN+6PJCRCwk8dLn1POk+Zcbmze+dTO54aDKvStpJdcb33vMG/pPNZ+OMie57EFOoiSpp9X1/2ZyXuLAdPtfXzn335nxF70n0Wl3Gr/faHz1f24kt20pvu8b+xpze+fO2gUvqFW2/YHRzcdFgzc5x8AkfUHp3Nxub/3u/uaXPpQkPxh6mWRX7YdOy9L7/099wdOFKpVtL0mayQe1H3Y1e8jrzIyc/0irl2NO3PmhN+3b+vw/JMkGjgW5rluN/cUk2fOO3avnvLqSrL0RtL280n+7vDuqTzgzS2qvKMpO09aHNls3/frh5rXfU9jvmWPjOuN7367q086uVu9jnlWm5iJcauMacYx3dfNs7nwXg3mg9M4DWx/9WxMnXt43TP49+YHmZTjG0df/2FV/wYvMGl+3v/H1L/c5WQ+mzO2HnYJ5vhxiynI7i44bKHzkMi5xQZ4cAHSbTT969MWJQ0m8Vkw8/LBlrjFtW/fkjjyJr+TiZS9blvAhV97AE7KhN+YhBzfYAdvgn3QBzxkwn1y0GWctmaNjrC399Hll3tl80z2bH3mzuaAc6vck6w30e7Y+eXmjc8sLzP3qBh+heUbz9F3Vp+OR+iBX6OjPvMy07Zd8HCbWbraP/Jx5Ke3t5oKCR5dcl5bZweY/f6zZuu3Fpq/vFnD2w4MHBYrL/0xFcpuT5j8d2fzK+fubl/yjuaDoN3OzA80rb9loXPVy8wziFpk3qnc/Psv9zXlV6vWHn2hObPwJotE04zHH+T2t5m0v3bf1CdPDBtaiefp8+9r7Ny/5y1b77lcZjHykbuXtOs1LgX2+Ic5adtIvGD9izq2dN/7iBxsf/k/mgoLvogzlG3vAe6B12dWHNq/7EfMy05VOMhGwfMDiKHdefYCADqntpPF148B8+vPoSmlD5y050Lj4w/saH3xWktyM/So3mUMuxrVN/4CXDiF9MQGzqpPkWgmxgEVuRQtCnJvESr+OEzfu2lw7lXVskjUpbRiXjzlSurDaj16ZJ9cLHzfGpQ3d5odvnPWbpznN/31P42PvFLzkh5Rb1zZfpruz2fruK80pzXx50r3Vartx8pFc1LNd9Weeb0Lej+G2O1tvNxeLjxgOrssrD7a+eFMzv+s1Bq9PBLYm0csIX/8lHxt+yJemzX/6wcYnfmEz+TbeC9E8XGe6lXznSJJv4BmUb9uxs3r2qQYwyAN4LT/tP0BAd2x5K9//KwfaX8KzNblJHqknB5qf/Uync+itEuzWu++pMB9rNJ/2eth906z2o+4c80ggaX9y/9bFv9PHIB8beXrW0b9pI/nGgWZ+46vx0utRt1MjD3kB7PnSzjZXViWvn9vHSQi54OuuTwaNjjj3raxHmM3HmJaylo4tjY3FzmJzLd7lRw86BltvxEjJHSnxUtccNlvyQe8eBOZLc4U85nUC5rKPbq7hKMztN8J84pEfsA0eJet6ko+6xMAHW9ZjnH7E8OiNN6N6tjTZv7F59W8KBOtS2viTg60rbjQvS5mXwdxbnlefZV6rxncEJEe3z0q2+lx3prlcJfnN+xufBr/O9doHtz53pblIvtfHjZh4v0DzcbYeivzWQxtffYN5ZgCMzh+xN7au/ZjBDb00NkKe7jlTc2XV2rNHcMKR562PHWx++tPGxX1NqXugHzLb1/j4uzt5By/zFG2YheSqVLJTnmkOP9/LZ81G+5u/pvOEzV4kb9Z9RpMewqfbCrbBKxMyv3usmmdtP3Alm0/avXTv2gt/dS25Py48Ohc2t+6MjNHl7DupAwddbrDJR7+26SeP5mBcSmKlb+a6HMTMi5UsoAeih6jjoIdPrknqReWBJaeuVZRLPGURXsZlzTL9goO55NM218S4lhqPuM2n84bsTtJ4l3k0jWcczKUcwimji9lsfOuvjf+Iiklzx876Ix5nHOSkNGurPk0Ctd7pHPkr8f4A81xyKL3dus18GbHU697MB3/h1swP/eFWcqtr3eQY9LqV3GawnRt9xObj2LtkvJ6cvtt8R+JR0qf1VutO1yfsBrVNDo9L6TOfhDzwl5pP2/2XmmReWsnXnqpx0u50Gv+00bz+jr6PuRLi1Dc2vvT35mJ/pxNwNABebOTvyjRp8v2PXlT/zWuvX1t9wlf2rr3gzbtWznuS+RgELiByIy98UpcYxmRc6hqr7TJYnTtzmwfLLAthALaTG/xyOLQp2RNs9skYJTCMO3zBr2+jBg4Q8GCrdAKeqfSgI4/yfI/C+ikQ3debUVffBMapyvWyd/kITh7s9FPKenJ+KIYYfcRxJtZmOo39l/TzND9tp9xK/u2Qeanjcitx35klO59iVK63K7fVHm0+wll5iC+vmd+BvobyPDbX2pUHW1/5tjmJ/5uPv881lNfzFXz50Tzj2Nq67qMGq3Npo2fosvfMfFT528bn3MxvdeGiMpj1Wu2BT+7bjpz8ewfbX7jaBFlXSlkb+eyHmMpG8+ufNX7+FBAwlq2Dfpjb5TTf5Edfzq2dH/5nE2SOlIO1mbhNr24m+81bK61POcl7Aa4N3EO3rfz7qO1/RohP7uX1X66m6xfvXXv2v62vXPju9frzfm537Umn9/l6VYb3H2pyLawPKTebnzkSl/cN4hmjLSVjc5NoeBk3DIWb1LXPFgOGfkrmOeTgpSTGkWc+hh58QerikWNunGlg7aETR2iO7JP14GMfjNNH28ePmOZinkfmhw+0r7zWAFhbSlse6xBnzt0N70XFfG/l/pq/km0/xUZOn3m0etOR5te+r/M8NlMHspO0vH0NgCUV8+jdfGIAP8TZnZkrm/MZSPMjiodcYPjzrIKXCQeb+S0xzM255WnjCyYIfmyDOoG6OfPefsh8BPq6brb/D7hxbJnbinnA5f8k2mbzZvNJs+7m6w0AcBLTTcCfND1yxcCwKiP3924aUo80r7otT1rvt6bZnN1fGMhemGarb61UTvni3tULP7y+8tyfwPdd+nCufaRPEZcxqdsqwgcMby7MwvzyJLKwJlRhOSw5YOnHlZp2/2AdHGA80BhX9E6T+MEjq5D3VPoXHvYADmxl5qr7DcwdumOwfq/60Tsb1wI/10fJHFt95AHHGPKtm9kR5mWKTT5a5fptNViPMUrzCLx1u5W87zRfajzBqMzvyU79JF+OuVKZ73qoHL+NNQ/dzMnlu/4aQ59sGuSaiwZ6dG74tJUJcj2DPOOTOuMDmWf5ppO0G+geEwN8Wqlgbs6tk7exPtYc5Bmf1P3xTtu778yljvu5K9eqD7iP4Yfu2PKDzeQWXDxZFxL9DPH0bSMGxyl7Tjv5VkFPSOtykpv88FcOb17z38x3hb4Fo/yWmR/EXPuT9dWn/Ouu2nPNJwlH1op1yHpcF0vJOHRsxFD2vOO9PMvcmcnAl2lmVp/EHB5sqTOupQtDPyR1neuyiccO725n/ehnf7tWq70VRv8CQwz502azyaeigMk47KJN48E1qF+QjFxgkYPvFWCDDzZ5qRNHG1i5MQ8+YORGLukb6OYEuc8YwJCDeNZy8RFnMrfu9v26SifN8L2R4blkFe93SbK0w74GvRYoR/shMG/eM5gkfUNycMKUXsPT9UufTec+QV3bjDi/QS5+pTBw660l7/7GmCelg4sbt9H19yIuP6Lm+31tw1Ejh0sOONJ8zbvfzEenud/kYpE/4DA6Z0MMJeqn7c7he6rDRwv8R7fey9rgG8ojoJHcfLDS3vUTa5XT3m3oHkp/GYnfVqtW1t61p/Liv2luXv6rh5M7t/r5rMn1+GzGXKX1Gly4ufpnfVHBojk8LEzqXCgxOka/DceYLYd1XBjySQksDkPyde1Gw3wYvzF4eVXGdK6OpZvNa99iHvSsSmBfHxwo5g3uA8anD/9B3JKrXawLDubBxy+vMS4vOuAAljfmEkseSuCdm/lvEjijMJeSeHBIH3VK4FLzX1pscyIHBoSdIHPMv0IxH/nF40zH1umk6EvP1oF2uPO0PlzVihvqq4+w+WQy4rzpGRFHDiH9F6v+M6TBVIzdYjJJpczbZn1HZ+SCev3mZ4vqFe+UB+8b9kt3+KxWtjLQzbfZcU7iMTnwC4XzohShnmp+rp8vPY3EhINdg4c3rLXLu9G8+vZ2c99Ltq8++tfSpPbjxu+ag6AcVc2vX7+ivnLufQ5vfeJVSWLePjz6AJD9Q2Jj7Z7V+yt9rE+8xsFmTGO1LXOnrs/qosJFUOrGQ/wSA13ako9+HiS0gZG6zLHpwBKvdeJ1XNoSk2+0v6WfguuDiHj2zQOCfq80JwzWBo53Qnnx0HzESz99lIiRi/Ulnr6BNC9NyWcRxFKSd4DvK9JvvuNY9T56bedt80xmsG+6FOaLaHf7Dl7z8zHrumiBLXvqQvO85u3L3IeRM5LX9xeUs+VZUyz8Vpx0dnPMzwjckw0uMTLc083Pxu8xGvkpR4HDHuB4S8wvC3tn1L/QDY7xZvvA3av+JzbYb7IXHkvsgjFIxii7mE62zduT2G/I4/FODt6H8kby7QONzW+/cWflSf8nrZ746mpae4HB+7vvdjD8xxyLL95TP++X9jU+8kcmIvsGUNoufZiwnAVObFxfz5rhX+7scUugYTYNDm2H8Mp84qVPclJ3SaxHxow5dPIlv09qDvDBRz+lqjM0BxsGPmyuPPp7qLC/7I1oWZf1EKMfOutoyRgkNsSxUfaskb/ZyfXkftv7bnKinrxpP1m63OaB5el02KR5KYsXFfKkWWcDPueW9z4Zxke9shebjlPviD9LK96+TA76GckLPOa4Fkv+EKfEOdfbD7Cfbk5WaXpnlGTd9Q3l9NfEmozJHhljydP8TQ0uvF2uZnIrPqDgebZifhKs+lB8CIN1ZG3qjFEO+c0vMRftN7aMfG7URzgPtq/46oGtj/ziVvu6J3bMF0VbefODZh87v89CQinNJ95ev7JyNt9PYg0pCWcfsG1x4iglnr6FSuyMZdk4QN0Phybj0gc8beq0KTWntoErc8PcyA1JmycnF9fQwS/ymG9cXS7Ios1WAznSz3rST501JR464/QD59sq22pnnGMAwLs4yUXJvrp22l7BR4adW6fT/JYJkr+bu9m+41bjc56czGvaJ2yrPPqMfh7ruiRqj8SKPvrav3iM5IHMvw2daG350jc0Kz9vNzrI7bQP3+LDV5K6+QmcOl++ZB0tB3yGa0hfqZ52svlY96m+GiIHMOSbh8ydmyFd20p2Ej5yzD5kTabQZ8Ok5ve7vB9ZNiTIZy44yUe/tOkzX678+t37tj719+YC80t3b37wcVutWy9oJRu/ZT7DfBVICrZtK8l9X9jHkJ8ptCGLNmIljnmUMjZ33fcKwqya4cJtw0FN+oljH7RxMGCjtOGJpexl+P+SB7zdvO2Vsx5mfsn6Qf0080rPyLMe8x9Em4c2mlfiI5CyltRlVTwFxc0Vl9gCfXBi4tNacmp+bQMHn/brekXxAb6T7fpRY3y672Afg7hRtG9gb68+6iHmxxIfI8Fab3e+96/Gx/3dDZuPsx7udNrXmF+DfazG016pnfIjR9pfezvtMnJn7ZxzTdv39eWoD28chYZ9v2kwg6OJVi0UZ5IHx0SX6EDz2q/srZyCr+y7fqZlh/m3Aecfbn7u40g2N1stm6/Lv5KefmFXKf4DDvKYt8O2rjA/Sul8NpFlu/GpKfNsoLsxz9YffNKfrlUftDdLqk/t5/oEeXlc4WUv+pAHHdx6G/gOt750ff9HLf9ye/WJD69X72f+k2blPJ1Au5pWcJyTl7UGfH0c/LjxZTj0B4wNZ9zdTcfoX4ic10WFA/QtUmNoU8pc6YOubzxQJE7m23TkSHxWq578kizd8e9sYPrMRw9vNBeVV9CmfN6ex564u7rqfMPQvM6a37q57/BlB2/AJ3BwUHANZQ8Q2TPLU5KXNiR9zHPVK4oPOKtp/fnm4vCOw61rbuo7izjJndSyB/2CyeH+GnAeVTrfNbzfNvYgh7G8svX5JN/mvKikyeqP12r3/1/N5m34RBE2W1+aF7b5NO6Jr+lmeP90T+IjvfffR/BmmqDO073pvkzKyIMaXQM5gtf88LD5hrh5o9l5kq1X9r76cLP2KfNZCJ7ENCdt2Y95N319e6Wy/eUMOmXvByVFT+bTA+0DX6hU1py5pt9zttcfe/bhxlevNryYC27gcM2I/ryePeJVZvd5P/jRn6Ncj6EezA1ciJFT1qUfMeKMan7ArvXFGw631n5mT/05/2geJD0eTr2Z97Dk+0XM132wrk6XNnM01uWXuS59ktwhznldVIaKWgwuCCGpEwqfzc/4NOQ0agx6/I37X/Q7OyurD/c1dntz30cuuP4GfGR5kOfDW2IyTx5g8PtsSUUO4mkTo236pazUq6f9weHWzT9mPuEy+LicBAh9wLej9vRnZ1n9IhEbUc13Dj6inMw3/w3lto9Vamfi5E+fhu7cXjn7d/Y1b/tFE8D6gOM6iR3J3V1/1k+YR7vmJzjmuo30Ubp678u6QzydzsGPVrK9zouKeWT9yF21H371geYn/iqg3oB7R/2cXzUvMeI9grJbutX8tyvq6Un7zT932+1KrmcP/O/mp39e3kruxndWWJfSug+315/4uEq29jMuTuUnl3LvMC8Hdo9hHi+MA6990jb6RjtPtj5mnhhaLyrtPL+bZEKSly5HXwwvv5SPIKbZLQYTOpwinOSiTon+qWspYwVrGzziBAffF2F+aC7x7KMgD0fo4OUK5lAW5hoAsKwJPHPh4wadtoxTh+RGLGP0B0lzcnrUntXz3lFL9mwzCZqLnAO5rfaUp5tHyW8zWNnDUC0zn63N9tffI/jAC3xXHmlf+03zBcXPDCUpw/zs+zN3rz7vN8x7B3gAxVz2R76Bf2f9hy+sZLv+P0XjMgd5BiA4C59RgE/gh3RwSl4cj7zBH7p1sfsbX/qoeevpDl9StbLztTvr573MYFhbStkn/JVd9ef8ivnviHx/wEdtYjl7H8zaXCg2k+zQe32J5nfMTt2x+pR3VJMT8Qm1Qa7R0QN7go4t3V4/+zEr2cnvMDrqeTdz9pfrG9J31c59zZ7VF/6ZeeZ9uiFBHWwSQ1v2gHivx7TivtB2cnwiVHJJHbxyQ4ybDycx1F0yhMeVG+zn0IITJgByQTYK2wBtOOkjn5Tc0cTNc32oKXthD0WSOUW4kDi5pJR58GOj7FnDf2WuDzecZSxzAj9/5+oPv29X7Ul4o1TzwM5qyck711ef+4bVykl/YSDbR0iGHJv/z/yDJvyUueYaoBqd7+IRNh4xOrdKsvqy9ZUL/mZH5TGPdIFWqw8+YffK836zlu3FM8fAj406HxQUzU2vx4YnBi3b4q6lyDxz/B9pNTuH3uMC9/1ZLVt/0+768357pfrg+/XrkWcg1yoPO2N99QV/Ws22/3QBny0MHtwfu3wHW9e+z+y2IzYgfeZ4esLO1af87fbaOc8wPt63BxzGZ76MtGttV+3Z/3ElO/WdBoKXl0I3rov4rl2p1J9g6j57pXrGR9dXXvCnu+rdYxk1sck19Dy9v93cbbVHnJSlNefL5eZZ42UiCTly63JIh9ElRuoKNmLasDb+kcRpOBb18lfIAjkYLeW6yePC0C9zXDoPHEoXzubngT6IWd7UH8SoiGcqcKFXnBwDex6c0JDLnvm6ODl4smWctqyjscTQT4k6AVv2sGrllHetVy78Ziff/EyeN28zBIfNuxQnZMnqY83vUT3dkLjeOBb8ndsPbl71x8bB3kXsqHq4ceXV1dUT3mve+HW+Rg+0qfv4eu0hf7deO/W6TrLxudT8BEveaTfy3PzcS2X18VXzOr6B4cuAi9o4Z0r0AZ37Y+QYszQKvJ5XerBx2fv21J97gflOifP9J3CZfyXwgu3ZYy/YVn3kle325peTtPF9c0BValn9vnln2zkmH794rPmR6tm6X36Ua+piW607DjSyu36/np34655kM4DsgSuVk/+oXrnwO53O5qXm68jfaSetg2la25smK4+sJitPNTt3p49jNDa472C2XI/R65l5hvS4Pr6SpvULqukpF6yvXnSLeVnr0nb78Gc2k9uvajZvvKeP6e6fWu3Be1azhzy7lu54ndlljp/G6dx+oHXpV00eZ4Ha3XyLD/SMQecmc+HTNnGURXHipioXdVEpWgSHQSnx8PEm/VK35cm41jVe2xo/S7tsbeLlQYr+4IcPm9R7nun+HfmEkTkZnGG+L3DG4LAvV6+z1b79V1vJ9w860rjmbvjI5qVv37Zy/uMqacX7HpYBp+ZlurMqyY6zuok8nTiKtJMj5mK17ccdYbqHeuk5g17+suSRckgWdDmEdRjN9kbn+v+6vfKo95pXXJ3vY/SS02qa1M+pVuq4yA621N5Fo9XZ+Fg1Wwv9FNiAD8qhxuf+aXf9uU8074M8fyhgMXBxqWTbzA81bit8favT2fqQ+Vjx8wyN6xmndfY7Ko/CRXPkAY957+hU86GPU7PK6k/VEvPqVuVRh83PydxtRmJ4uj8hhJd8vVsn3/g9A+D90YsVQfTJHKkLyPKp9kNlen1iELj5NomROnLkQGGTyyaxFviHpCEgFvm+jbnEmNdmg04OwLMmODQP+VwSuTLfhbP5WY8xzUWbcfZGP+siTi4Zk3FyjMhG+068B4ELyxS23Lxc84M3H25+6cuGjD1JyZ4GvqZ5iWezfd3rzPsrt0yhgS5FJzn81+bXct/t5xv8BEnpmRle5gzWYXxevfhXs7vHK3kpwZlttW78frP1nf9ijmm88T2Nrd1off+3Wp2DVwSQyXWxr6483PjC75p/iBbCEVAGJ4zG5Ycbn/7v5hO5RetEfXMfP3rfq1TXnxBUxLxsm5mLnEl9gMEXXlDM93Iu3bf1L+83WMwBG+chdfqI6QL7WKkTRx+kzSfjc9Ux2GXe5LCkLnuGHxsldWl3AQV/iIekXpAyCDOHchAoqZStK+lDcomhlPkuvRDbym//aqN5i/nUTf59F0mYP99ste/45YONSz9s8Dg2UVvfrFTmpPndjdZXXmE+4n2dFRDubJuPvP7Rvs1/+eN2+2DRiSmcdT5IPSvaqJ4ebH75y1vNb/68ednV9imk8A7z/OBW67Y3Hmp9/l/Mv0SeaEatZN+RQ5uf/BXzS9efCG/Ajmx3Ni8+tPmpX24mGw3zYLKoL8wGG2XS6jS+a47hyWbT4xz8xRcjj2x++VXGgQfIcn8MMMebsoiLymAn9odJWw6cOmNy7r4YccyjpL9IAq9PZiE5RRhrXH15LmRdkkeuTerASC7qXBc5pB+P2GgzXkLm2aH2VTccaH3xJeZ17w+aRL63E8xhHmF+drN53UsPNL/wOZPEXtmTTQLDWze+2bp136HNz7yy1Tn8HnMfDvkf80P95Xn7+q32TT97oPnJd5lA2kruwk+K8NnyEFYYlt4Kn+EyBzTUXZIYrHXi7XD72q8faX7lpzp54zPjkJn3Fi471LrmZ8z3MvCms/lC8BZm5Nz67xtyP1FirYPNfCu9cffmJ36t3bn79824vXyDJKHgPz02Wne9eX/jY28xFxTsd8Nf+EyFDOgFfaWHm5decnDzcxe02ofMb3RNfHExv7XZeOdG419fZv7DJ9bENUtJXfYCn/YzHiqnwRFaawQ3zfdUyiyk7NAkN3Ppo8TiGNP6yMJn5JD1y5SQeUUnMcmLOwNP4OBgrtaRI2OwsdEHXfYAu/TWat2+f19y+5u3VR7xN7XaqS+vJHhdO93lITKf629c3mzf/beHmpfjYoItpA8nppkc2Go2/uUPtlXO/Lta7bSfrKTm9Xrv+wh5y3xB8IpGa98HzIny0+JLgKZG01z3G5ealuxfYk03ftDtWP0xPytzOK+0rlduYTZv6hvOdQjwQDX/0fCO1Mfb7v7WVyHnVvuWO83tv2yrPeaxq5VTzHtGq/jwhO9DCht5svFZ8z7XB8w/PrvaYFGjW8f837B7zFpvGDSpFPPvefsn+aFjDSjVZzPf3/js+6vVU/55R/XhL8uSHReac/1Jim7INA8Cbmjl+z+40fjah1vJPfgkGTi7x7T5ftP15l13y2b+916ngWfUiA7wRsd9KW8md200mx//q6S5/X/tqJ391Fp11wvTvH6egYZ+GGCjbf4dct6582/Mg6xrDCc2WUfauocuuP8HMbnxvkouSolZCl03XrYpmQ+dtkuCnzhisDOxSYmYtpkHv9SRy0fajMHGlq2vvvhPzZuzz+yZ9r/mxPH5ezYvfoOJyrrpnpXzX5+lOy+yZ/W85nX8m+7Z/PDPa8z9V9ZX1synSbTf2Dw4kv2tjdad7QNbfQz9+d7VH/mk8aEX52bed3ibeZnoAwaAPObyAoM8+LRNnMwB1rYRm+xdvehy084OGwi+I62vPGOzdbPlBFvPdlQe/shqbc/Dza/bmx8JTHfk5jc6zF13v/kE1jc3mzdeZd6M1y9TeNfd70FjtC1arWXba494ZCXd81DzRctTzJuuO9qd5Ih5HnK3+R/2podvXd1K7pSPjj1cgranDmakIiEcrlz6yUGpSoyYNhx9lCNJxmG+Hb9nrVY7/exatuP0NK+dYI68NfP+zaEkx6e/DpkZ3fA182xCf6kVnOgV0sWPODFcl3GFbWuVh59u/s/YI82n0k4xX3fZbf7fQavTbu83b3p/y7zk+jVzYfyeYnLVY23GZRruI/BzPcSK+04921Z52Km1yvqjs2zt9E4n25tmlT0mYc1kHjR97TM/GWQ+IXbgK5uNm77aSO7gMa25WJ810QfrUEoM4rTJJaXUJVavhThipIQuN4mV/mB9ms9UgosKoOtgFJBJ1cKXIkyBEQz6mqi327bu4cVCL4A7jZJ1tK3zpmmzJjlRGz72QH+oRK7mNK5Gfqh99bXmZx+vVUQS68hVGWObzc7h5tVfM+m4cZPrlL0wvqxyJr2a9zU2Ws0rLzeftDAPHrybrm970CQJuG95fMkYdPrl/iDG/PuIG75pjp1v0BEoZY/QNbf2yR5RgnFIbCa/0TG/IXej6eXGnqvLCV5y6wtCH+YUrAGA1F0JEiN1F36h/nlfVDAQ3Lhhp0gbfonRMeYRRxmaI/O1zlqSS2NCbXIBzwNP5wLjimmszZY1bPEin64/SS+opfls9WXPUrdhtY94Ssa1TT+PLUr6IZHD9bryJd6lTzOX/bDWJNwhHOPwc5Zlc4Hn+ijZo7bpp9S1JD40JnHIl/2gjuSkbsshVufDj03m9Dy9vza89tlsZLMfyefTXT34cqYam+VFhYujtDXOGCR1F05iiJU+5NGvdRunzSfzbXGXT+fR5gGMPB4ciNl0POqDnzGjBm2aD0nkkJyyJxIzV8a0j1iPHDzTI48HOxSy4W0+JGm/toeIBZ44zoQ4+mlDwgecLYa43DQfYyEcrlxw2GrbfKwnZSiubI5cE2tQSi6ty3VKDuI4a4ljjPy2GDFa2nK0T/ZBbvrAp/G6Bm2Jk/llOIi19cE6x5yc5UVFDoM7QErotImVNp9aSx9xkMyXceq2mMy16cxhjPVpl5HsgwcLcuGTdhm+eWHZ96zr6VmjXkjtEIyrd+ba9gFjoX0U4SSfrR/Gbb3Y8DYfOWyxZfGxR9c6GUe/0G04Ymwx1zrHyXFxwU8+YkJ7ca2JPMelnNdFpWh4eqdJPGOQvMk4dOknnn6Ntdm2fOMbPAK35UifrNn1r2Vnnml+dI9fjBIHofkUZm/L2/mBH2y2b/62IAIP48LtVImndAL7Adkn69BHmxyhnMSHSNaitOX4Yjb88eK7t6572fYf9oO+L/h6tOG5L8vw+Gq4Yqw9r3quPob8y3JRGWrKYXBwCEvdAV+se6X+0F80P0z3UF8X7c7hS8xF5W0+zIJjPGjn1Qb3K+W86sY6/gnw5Eg56f4hj6xq88l41I+RCczqooKDDrcyBwoPVObqEYKLGMakDZ0vWdEPSZ05PkkspQ/bj3WfzZTAB1CWh5SZs4uda5BcUnflwY9c3ELxyOHGutPgIOc4fTD3WJG2NXKW014D9y35URs32pS6LnukZFzjyaVxwNt85HHJcXJ0T7TH4XL1da/wz+qiMovhcSdTFtXgBaYIF+PuCWDW87xTyVrQua/pp+3ueLyI5Jd1XWzEu+LT9of0NO2ako/rpUSMx0bRPmEOpeSVelFcYqO+xBOY1kUFB5bt4LL5yoxjknwcpGXygR26HWld864s2fYP/YYZM+bR91rMz3DrL4X14eOLzdbtv4UiPQa+B2P+tXdvg998N+37+Bbzst0Ry8y7v5whgXyuSXJJfSihbzDHFgvxSX6pu3JDMK5c6e/uS+mw6KgVWq9oDpKnDFa3Fcoja4TmsBZzKem3SWIobRj6XBj4ZUzqMlf7tQ2szUeO415O66KyDIOSBy10aY/VX6P9/f0mETds8pkPubXsIYP/8oIxnHCkdcVnjGfoItK3cbDixphRRzZ5QEt9BGhxSLzULdCZuFiT0leEs/dhEAvhCsEU1Zll3Ndf6Bym2Z/sB/VxPOo+gIFPYo05t23R9ee20GUrtMiLCg9CyjKzQQ5P8tA1Bw+oMpyTYHnH0X0UcB59xtMHkgcmdUjqfdjQnVVeYDSuiId8Ekcf12LjJIbS1iNjUpJT+jQ/MLjBTzwxtGV+kc4c2SP5kMu41KVP8ksO6S+ry/pFucTyeAfe1Z/mYi79sJlLqTESSx2SeK1LTIjuqsfcceK2HPYLiThvqGPDwy83iZG5wNjsIr/knpbOHimnxTsRzyIvKhM1XpDMA6oAtujw0DOVMgcGsZSuhRTFmUccJfxSJ25ekrUpWVfb9BfJ0DzgeBLSnKEcOm9aNuu7+iuqM6v7BPuilH3YfDI+TR21XLPx9YEYc339+Dh8eWVi86hRpp+xsPO6qIQe0C6cy+9aNPC8uTBFfu5gX22NoV3ErePIc+UyRslnJrTBJXOpUzIubfog9Yb1DmEbzZt+1ozT+Uh5s30nXyLUXNqWvHqujFEyTltyMQZJnXHg4YNkLiUxUuqYtiV2Hjrr29aF+ozbemEOpQ3DfEpi5P6lT0qJlzowrnoaJ/lCdR7voXjgWJdS59r89Ol68DNGHtqU8Ntw9DNPSuZqacNIX5EOPtf+KMqdSnxeF5WpNLsAErmDXPqkbfGgIo+2pd8VIyZUgsfFNeI3Pwrp/Glzw8MDmDKkB9Yok2Pj5To0jz4x2HKXwcc5yF5sPsb1OumndOUijzEXB+PkcklXvgsf6g+tr/lkXsh+Jx4SN9d6JE7WpB8+csg4/VK64uNgZH3NuxT2Ii4q2ImuHTmtoYwzeJ1j65MYxKBzHfSP07/OlXcMxHQcNSQGNnHsR8YZIw4Sm1yDrCH1HnL0L+vISEge8awN28YFv49Px7SNfNcWirX15crVfluu7kfnuGxyQWoMOBmX/BonbeIhqSNXYiSX1omTuRpDm1hK+stKVz79lD5eYGw4+hlzSXATCx33MWJhc5MYm8+VAyxzbRhyYe7y/k3/0shFXFSWZvEBjWDn8s7DHU0b6TIu6cw78EPvbzxBzAAAHplJREFUl8iYTSe3jMFHP3VK4hiXtvQRT4neZRx52iZXqBwnnzO05TIm6xNni0mcTWcuYlK3YX0+X64v5uKUOdBt+wY+nEB862auq47OJR6SuitX+yUXcou2EIyNg31BujhcfvDpGG0tbVj4ijbyAAedc5F+csCn/dom1iUlXuou/EL9076ocLgLXdSUi2Mn6nVJ36Q7mfmUaB86beq0EcdGP3VIPoIhlhKxoo1YShceswBGz8SFt/llflE9xlnXxufyMdcV9/knyfXxIgZuza9t4iCxIe6auS0XOSEzc+UiX254z8WGLaphy5G8Lr3tCgi/i9vmp4+SNLCljzolcfK+Zctx+ZhPSV5K6dc+xspK3UvZ/Inw076oTNTMEiRjZ/BOIncwdL6RST+xaNt1Z0fMt4FD8kks/fBRJ56SMcaZL22bLn22HPIyRsnZMM51UxJXJG31yWGLsV4RrysOTtxk/zYs4+zFhoHP1SPxRXHipNQ5sgfGKGVeaM8yBzzIkzVk3KbzpMoYc8lFv5S2fm0+mePTda62dS7iuHFGjDOPcfiljzhIvW74iIWOjTz00+5Fj/4FFzHwunCMSQldbpJH+heuH8sXFQxVHywcKHcW/60w/SGSvBrLncg7E+LEMsYcbdNvkxJLHZI6D0TpY8wlWUfmSB905mqdOJuUOa7Z2/K0T+fCxjrlbHXOuLbsWeo2PsYpbRibj/jQ/oFnjo0PPh3ngxqNJ45SxuHjrG292XJkvtRlPjkZL8ODnBD8pBiZTx2Suu7D5QcOG3OJk5Ix4roJ/Rzq8uIk8cyRfMwJlcwNxc8Ud6xcVPTQbLb2lRkccpnPO488yek7ETGowbwy9TRW1pd8Nj8PThljH8xljH1KP7G6B20zR/thy3lI3Ya1+cDN3mS+r6aNJ9RHXkpfHvvSGFcu/XIdOlfbzNF+n42Xg1y9Mc8WRy1bb9Jvy9OcsmfqvjzmQxIvfaG6Kxd+27okL3MpEZM6bN6foGPTNnzIkX7Y5HHpzKMkHrbcXH5iZJy1pI+4pZHHykVlHgPz7SjGQu9Eof3yIJF41rLFiGNMYhmT0hanT+JsugunZ+DC2Tjp850MQvg1hrxasjdKxKWu8UW2L9cXK+JF3JUv1+rCIN83U8S52fhcvMDiZCpzpO7KYy2fDMkFBvVcWO332baY9sl+fTHigCGOkjEpXTGXn7kyLnXGXbIM1sUxtn/ZLioYhjxoyywMuTqfvrI8NjwPblnD1SswoRuxlMyDLW98pASf1IFnLvHsiziJ0TpsbOToWe6/rAEE61CGckh2nUMuH0bWljjqmpN+SMYodT36ZY5LL4N1cRT5fTVk7zYc4zpGP2pTp5T9MI8SMerAQ7flAceNGObRHyrlMaxzwOnj1TFpU6ckN+tJP3Sul35IiaUfPPRDh98Wo49xaTMPUm7E0scc2kshl+2iooeCofGgpc5B0q9zxrXJj3zqrAWfrGeLAzPOBi5Zx2aTFzEesDIHcWkTo/3Slnj4x9k0h7ZdnMBxnpTEluFgjktqLm0jz+Zz8c3CX1Rfz0f2UJQrsdTBJ/Ogax+xNqn7kVw2PHzyeCQmJG8cLHLITUkeSvhlzKdzvXINvnzWgCzC6ThzyOHqi/EyUnKVySuNnfZFhY1zR9gaCsHY8iQndXBRRw65cQDATxuxoo1YHjx8k5816AcPuWVt+MmhddgjW/+7LMyRErq+yXzG6NO27BUYbTPPJsGFjbJnDf/luil92OHMoxZzKI9GZqeF1OKadBe+XF9M82g7JFf3pG3N6bNd9cpwlsHaenH1YMPSN06OLZc8LokcxLhG3nck3qYjT2NpI4aNedKPOvR3Qf0/0gdd2hJHHXH2LH3U5yanfVGZZeNyaFJHzaKBh/RFDu4YaUud9YiT3MQlG83r/0eWrfF/1DNHYNM87xy62ziYA4kbeaUfeYxD50afzpFx6i7JOoxrm34pgUFNYllfYqAzrv2wXTk27KQ+2YfUy/COm+erITmlLnNsc3JhZZ5Nt3ERF8oJDo318YJf410++Kex6Xo2mz5K1IXOtcgTv60nYGWuxsiY1CXOxSHxUpe5S6svw0UFQ+OOxKBcQ5R+Htg6l/kyDl/BNvTtdxxMyOdBBZ039lDIv9m+8VtJu5uHHHIxn9KEuuuVNr/0xRxiYAMnb+gDG3IkB3XKLqiP0T7EpE/qzHNJPRfiijg4P+IhuRbpg17EBQxzbVj4pF/qyNUbubS/KE/jp2VPUlevhTZlmR6ZI/ux+XycMteHk7GQHI0psskPHNYAyRze72hTyhzo9ENS17m2HGKZJ6XkZa7NxxyJIY78Osa4zT9V3zJcVFwLwnB40Low8Euc1H05rpjcIbo2YzwIXRzSz4NM+sgDiRvr0C+x0ImjpE9K6NjIQdnzHvXT9kmd68Kyb1e8rD+0ro3XlQs/b7Y8m8/FZcPCB7ztmKCPc3LhXLw+Pzl9GMT0WnQP4BmXC3maHzWLtnFybJySR+rAaps+W8+2+2hoPdSRtaTOmi4ujZU4GZO6xEidGEoZm7s+r4sKFysPYPh8NmPESQ7to20Z4NCzEEt84OLBxS+Z8XsB8ucp9EHJHknCHmlDSh903ojhMxPa7IM4SpefeZDAyo050kcMJWPapt8lgS+bI7n07GTMpvtqkcuGgU/vN/DbsPCTC7rcXHhgbDH6KF041pA4+iBt/biwMk/qkgO5tMvykJP5Lpt+ynHqjJODelyfzKdOSZytP2IoNQZ+HXPdzySOeZSSV+NcMfq1xP4AB6WOz9We10UldFEcDPDYUTx4KX08emcBK3eWL1fHZB77kDuM/Uic5KBfSuiSgzHmSRs6b6jPGH2UMpcY+KSuMa6Y7I05s5Jla6FnVw78vFO7MIyHrMc2n6I8Vw76kZsL5/IjFzHJI3XJ7dM1v+b05YbENH9Ijg/D/sblDd3fkl/qujfEGJdS6jJH1pe5EsNcl88WB1b7pS11yTtXfdYXFSxynDsBh8B8KTk46QMeNm+o2a3bbN/9vkq68nkT6j8DGfwL335fedbKN77bzzVicIKSz1DgZ13ksTb8ciOGEjGp42CjXSR5YAKnb+QlB2xsMgc245TwYdM2fDoXPt/Wn58P4ozZ6jvB/YArR/qljjRpS13H+iW6wrUunS9zpqG7+Hm8TVJDr0ly6lhIHVevIbmhmJAaLoz2a1v2gJgtTh8lc2hDUmeM9yFtSxzzKDWWtszRPh0rspk/FznOASUbYz4kdcRxQoaNxcoYMfTRJt7AB7kyRj8k/MDzBh8//kte2NQRJz8kNtrEUDIGCR82yp519C/8XB+81PUOZkxLiYNOmxIHKHVIHrDQeTNqd5M4OORLaoix1y64/4c50gfd5dc42K7ZEOvjKsolB2UIlw0Dn81P3nlKVx8uP3uTs5I64+PIcXh0jraL+ihaZ1E+40U8RXHwAGPD0UfJmvL+Rx8lsT6JGOPIk7bWGbdJ6aMueemDxCZjUu9FR/+GYEazhGdaz1TYSNmDjK0gn7maS8aAJw46Y5TwcdM+2DgwcEGhhA82Jbh58PACRB5Z18AGOwtxblKHj1wyTkyIlBitw6YP/FJnPUrGKOmnhN8XIw5SzsGVI/EufZJccpKDPdFmnFL7tU0ceBAjH/2UrjzGJ5EubvZEbheOcZfUayKP9rvy4WeOxhRxuPI0z7RsWz2bD/Xop9Q96Psw48DrHNo2SR/yodOmhB8b97f0u/ReRvFfme9Ch2BcuUP+aV1UhkjHMLAgLooHKGzqkpJ+4hGjTjwOBOhaEosYc2x8Mk6deHBwQ0xuNgx80k/b5iMXMbCxBtjy4JZxrSMHm/T3PEf7QExvNh8wLr/OX4Ste5M2dO473ZvEMSaxtrjNx9xQOQ6HztHHXEhtuTaN1/w6brPL9jBODVl3Fvma02UX+WWcOiRunLv0Y120tQ5b3s9hc5M58GmbuIXLeV1U5AA4aA6GzwjkMICXBy5s+qgDTy74sFH2rKN/iaM8GhnOYQ3EqZNT9iPzpU4spY7Bz5hNwsceeXDpHJmndeZKP3uQPPRJyRzpg679tIvmARz70ZyT5Gou2OxJx+QMdUzbLg6Nm8SeRw1bf766RfvCxqd9Pn6NDbUn4QzJ1RgeK7b+JJY6JHXm0MeZklPiqBMrc6lLSQ7pI4f0LY0+q4vKOItGDncGBkQO+qRNLKXEEwcfcmFjx0CHtL3chRjrMM5c+mUtA+9uspb0MZdxSmCg+2weRMTQpmQ+45DsUWJQCxvxPevoX5f/KKKnsY72h9jsJwSrMSG57I3rp625tF/bwJND59K25TAWKqfBUdRnUS+T5oN/Guso6nOSuK8/xih1He3XNvDwST9tzpbHrsawFvG0IYnVUmK0Tiz92qZ/rnJWF5VpLQJDwo07S/NyiMTQJp5+mUcfJG58piT9Ek8dnMBwkzXoo7QdVIixptQ1D2tQEkspOeDDpusxV8seengd9FEyx2VLP3unT0vNxTj84+aSQ0pdp8hGrsZIPpteFm/jmIZvkj4w80nyXf1Pc1+6apTxu9bo8oObMUpbPcRk3GbrPIlHTOdovM/WXC5sKM6VP5F/kRcVvXDalPJApU8uFidSPqtgHD6dhxgvHDKfOnNpU9Iv+aROnE0yl5IY2pTwo2fY9Nl0+HjhMKoXL+Pol7zwY6NN2fOO/tVxaXMO0jfKcNSjcba+iNbYIj/jZaWuo+0ya9S5ZXuZFp49l+Fblt7L9FwWq9eobfDRR6lrSD91SmJpUxb5Eef9mjlakoOScdo+WQbr4ykVm+VFBQviyaPMwe4bBGPkYw29aOLgl1jaMs4LkbxAIacoT8fBzU3ywwdb+mhrH7GULpzNjxxsRZw9lPsv8ymJpI11U2esSGo8bM5P52qsjofYmkPb43C4csbhdnHBTz7XfFy5IfuF3C4On79sPz6uacfKrsuGt/nQp/T7dBnj+uijpF/y2mISJ7HaL23whHDJnJnos7yo8CCkxAK4aO2TNhdKLE/6Lgz8xMpc+PgMhY8GJAdjyAGWHPiOC21yUwIbuoGDeeQmLzikT3KyV0pbDmLMJxds1iMfOWgzh5J+SJtPxqmH4oiHtOXYfDKHeiiOeEido22JnUSfFa9tDWX6xHEwq01za9tVd9xZjZvn6oN+Hy9i+r4k8dClrTltMWBknsbQpiQnJHuxxRCH3xVDfK7bLC8qWCSHEXrguRbPoZGHA6TNPPpttg0LH3MYlzZ1SvKGSubZJH3kCrXlBQU5Mo86Jbkh6dNSYmw68bYYfXp29FOGcBA7Demq5/KPU3OaXOPUd+VgX+AY4T7x4Vwxn1+vW9u+3HnHXL25/LI//YCMMV+uK+byk9MlZZ7UXfil8BcdeEVN6nzafBZAGzzUbRI++plLyRjj4EKMftj8Rj398DEOKf06Rhz82GBjo+xZvb8aK2PQueNdUuIlBrq2UQs+HtyUEkc+mQ+fxhJnk+RjjDal9tOGtM0Ifp0L37jbtLjAMy2ucdcSksceXbMN4QjBTMI/SW5IbxrDmWh/qB2STwylj5sYShfWdz9kLqWLA3EXxhVz4W01ymBt+SO+WT5TGSnmcWBhPFClzhQunBj4JU7rzCOe+fDDJ234YPMipmPkIE7H4dcbMZSM06aE33Xg0c9cSOaFSpkr86WfXNIXqjOXM6Ltypdx5hArY/RR+mLE+OSk+T5uxGbBPw6nnqmv73H4wYca4+b6+nHFZl0rlJ84Sle/8IdgbPnI0/Mdl8vGPxffrC8qHIg82Dk4LlDb8MPHXOIoOXTJiRMwLgo8EcsLBPmB17mI8VkMcyWvCY/0oePAYLP1Sx8lcbC1j73Rz35sNn3gw0abOT3vUT/j9FNKv9QR1zZzbDIEqzHa1rxFcY2Xti/XF5Mci9J1f67jzdafzrVhbL551LDVnYev7Ez0fSikR9bQUucWxfV+IB48Ute8tEMwxM5MzvqiEtq4HAZ0nmCZbxs2MYwxjznklHHEmEedBxFxvCCRh37a5KUtpY7RhpQ6cmgzn33QryVzpF/q5CFOSluMPnLQ9kkblvNBTM5W8tjyZHxcPYRXY7Rdtvak+Yuox33kqo01FWFcuUV5856X7DOkdghGckqduZQyJvVx4uPkyJoL0xd5UcHQ5AEpba1jQMBy0FKHDxcCSJyYEeMJmn7j6voR441c8pmKzIWuN5uPPBJLHyVi0JEPqf0uW2KJwdqoG7W70aakHxI+6Ze6xBFr65ExjafNuXDu9E8ifX2G8k6zn9Cay4gLmWUIxrU27n8dn4RTcy3K5hq0DOmnTA6xmtfl17ilsed5UcFwXAcfByIxUkecw7VxEAuJG9+4R57eNA9zyIsTEXTimG/zMaax8MOnc+RJjnU1R5Ff1qJOaeOiD9KFkxjZo/T7dM1rw4ZgQvLG5bFxT+pbpl5sa+ExbYtN07fscwhZq2sNLr+PMzQnFKdrjZuneWZiz/OiggVgGDzR2g546ZO6XLweKPmA0Tm8QGgMONiL5iaHjuu6Mk/qMk+foMkBSZ252idzEdO2zJc6+Gy29sm61KWUeKlLzDj6NLnK1mdtyrL5xxretU4e43I9Np+MH4u6a/0uv22NIViN0bbmlXGpS5zLLzHUy2CZMzM56YGk82n73pcghosiln7aiMNHv9aJk376mKttyQUMNubbYj3E+H/lzobus1mFFw9iaSMuORinn/m0EceaZI7EUJc88GmbuBBZlFsUD6khMUV8vrgvJmscrzqP92msr4hrGWc9bk+2PJtPz1VjtF2ER9yV4/JrTps9Sa6NL5n3MxU0gUX4DkIZ1zryeaLEyZY6Lh7UyY1c3LAxpvVu0PyRdZhPSUyRZC2J0z7YNh9y6Kf0XUyIYS1pU4ekbsPBp+PESUkMpYxNUy/L78P7YtPs2cW1qPpljtlp9jhNLtdM5+UPWYsPg5g839j69uUTH4IhdqlkmYPQ1rjOp60lc21++OgHjrrvWQYxzJWSHMTAJpf0UWcucNjo71mT/ZUHBnUtWUH6qSPmurggBpzESp1xSLlpDGPar23iysgyHEXYonhIX9PgWKY6updpHLvT4NB9LcoeZ3+Pk4P1IQ+zk/lSB8a3aay2mevyMx4qp8UzUm8Rz1RGmjAOLDD0YOYwNJ5+8HPnEsNnNYxBEk8sY8QyF/7QjZzAQ5fc9EkMfTYpfdDlBg7No+O0fThiIENxMmcaOutSToMzcsQJzHICrmPV5S/qBXnj5hZxzz0+zolTNunKtz0zQB7xlJKLOfTBljjqUlJnrs2mj7yQ8NFPyThtSvpDpD4wXLbvIGIOn6HQlpI6ewq1NY75PskcSh+WsTJY5rhkGa4yWFe9afnRC46hefXEWuMct9Na87HOU3afld23LrzLj3n6YmXnPU0uZ23fR2+dSSLgOoDpp2SKz3bFpB86bamDX/pZj0NkjH4pfTGJC9FZT2OlH7q0icVFxOZnHFLnaltipV7E68OG9CXzl10vM4tlX8u8+5vmfWVWvWP/os9l3c/L2tfU9se0DhLNw2cObFTHYdt8wNNP6eKSHD5d9iBx9FOyHqX205bSdYDQTylzqDMGSR0x6pQSTx8kdcYh6aOUMZdOrJYufIifXC5sUdyVNw3/PGvPsxZmo4/d0HmNmxfKv0y4on1SFPetJSS3CFMU99V3xWbB6aq1kE9/oRkuMuRg1ljYtjzpd70vQi70oDlkDPGizYd3xeindNVgnBI46pS2XF9McsjcohyJXZQ+rR6nxbOoORTVHXd9yNP3h6Jax2J83Pkci2tdWM+zeqNe7rzQg1Xm2AYieTQWNuNS5/sSiDEHurZt9ehjHu0QqXOkTZ2SfNKmDkkdOOpakkNLjaOtcdLWGG1L7Lx0uW9Das6r53nVCVmzD8P5+TDHylp8a5hmrOw8Zo0fZ21lexqnxkjOrC4qI4UcDi66zEEvsciXtixDbviIs2ElTubbsDIudc2hbWLh1zGbD3iN83EwRslcSvrnIVETs5t27WnzzWMWsUacwL1uAmVOnL7haB5pu3TwISbjskbIeynEk0dz0aYEnjql5JBx+kOl7aSnfbQpJTd9WhLDZ120pdQ5tCXGpft4XTkhfvSAGRf1UhT31Zok18cbY3ECZScgj0Wpl+WZBL+oukM9T/rpL5K5TtCIy5jUmasx0i9jtlzpw0Bpa0lO+BmTPuqTStdOlX7qlEU1cdJ3YemnLOIKxbl4yuaXxbvqTtO/jD1Nc32Tcun7x6R8x0J+PCamuJcW/fIXlsIdqg9m7afNHNsFQmIkDjo3jdE8Os68UIl8cEoel05OGafP9gwCON6I80kbhw/PGGr41kBcWWlbZ1mOsnhZU+pleSL++J7AsXhsLGXP83imwkNRn7zpl5InMki9aZ+0pY48bdNn8yOmdw5w8Lnwthz4uGk+7bfF6YOkzjxIXiBsMYmDHoKROTa8zSdz5qmP28u4efNcW6wVJ3BcTcB30iyzUBeP9Esd3NqWPhmTusRIHRiJk7rEQccm41LvRaf3V57UpI4K2nb5Qi4mmkvbekW2uM2n81w92nDj+nQf2h6XN+bFCSzzBI6b43xaJ1QXj81PH6Xe0fDjhiFLDHVKmUeffnOfGMZhS90Wp6+sDD0oiKPUdejXkjj6aUPafDJuw4Tk2PI0b5EdWoc8ZfHMizJO4FiewHFz3M/q5S/uXN8J3BZDnvZrWw6fMUrWpdR+2pTEzUqyV0jedC1i6KdNqf2wdYwYxrA+G8bmk7kufdw8F1/0xwnECRynE5jWydXFY/Nrn7Y5aumXuoxrv8vWfnJA+mIyXubE6sLa/NrnsrWfa3D5EffFmE/pw/pizLfJcfNsXOP4Fl1/nJ5jTpzAMT2BRXz6C3f0ohO5HipPDkV5oTjJzxzps+mhOFuuzzcO7zg5RT1Mm9NXL8biBOIEjtMJFJ2kQ5ddxKPj2kYdm8/l11jalLpv6adOqbHTtHmi1tJXIwQbgrHVYJ6OufzA+WKaZ1H2sdDjomYT68YJzHUCi3imggXyJDDuiR35ZXJZj7VtuTYf8CGb5AeeNmUIhw8zLR7Zm69ejMUJxAnECYw1gUlOpLJgKI/GaRucNp+uFYLROdL26UXck5zgbbk2n6s/YEPwPowvhrpFcVdv8/Ive3/zmkOsEyewlBNY1DOVSYchTyxFF4FJa80zH+vCeuT6WN/mYyzKOIE4gTiBpZjAtE/IZfhcWO3XNgcHvytGjE2Ok2Pj8fkmvQDIi4vm0ratj2lhbNzz8oWsYV69xDpxAnECgRM4Vp+pYHlFJx1cPICZx0UE/YRuRX2Th9+kpx1lnECcQJzA0k9gWl9+5ELHOYHrHG2Tm9IXR4xxqTN3GST7Yy9FF5miOHmkHCdH5s9KX9a+ZrXeyBsncK+bwDJeVLgT9Mm3yM84Tly2XJuPOdOUrF90Ai2K+3qaJNfHG2NxAnECcQITTWDaJ9pp8JGDMmSBRVgd13ZIDY3xndh9Mc1DOzQHuFAsuSeR86w1SZ8xN04gTmAJJrAMz1T0GHwnfFfM5dfctKd1opwWD/tySVlH6i589McJxAnECSxkAmVPxqFNTpNXcknd10sozscxzdgkFwLkTpJfdh3zrFW2t4iPE4gTWPIJHGuf/pInvGW7cEyyq+W6NI8vprHRjhOIE4gTWOgEjrWLihyW72S7jBccX79yXVGPE4gTiBM4Zicw7fdUOIhZntRnyc3+FynnffGZd71FzjbWjhOIE5jxBI7lZyq+0cQTpW86MRYnECcQJzCjCcz6Uf+s+fVY5l1P1y+yF3WxW1TdonnEeJxAnMBxNgHX/3Q/zpYZlxMnECcQJxAnMI8JzOuR/bzqjDOzot6OxUf5x2LP4+y7mBMnECewZBOIz1SWbIfEduIE4gTiBI7lCRQ9Sp/l2hZZe5brmjV3fBYy6wlH/jiBOIGxJxCfqYw9upgYJxAnECcQJ6AnsIzPFpaxJz23Wdrxmcgspxu54wTiBGY6gfhMZabjjeRxAnECcQL3rgkci88KlrHn+Ozi3nW/iauNE4gTcEwgPlNxDCa64wTiBOIE4gTiBOIE4gTiBOIE4gTiBOIE4gTiBOIE4gTiBOIE4gTiBOIE4gTiBOIE4gTiBOIE4gTiBOIE4gTiBOIE4gTiBOIE4gTiBOIE4gTiBOIE4gTiBOIE4gTiBOIE4gTiBOIE4gTiBOIE4gTiBOIE4gTiBOIE4gTiBOIE4gTiBOIE4gTiBOIE4gTiBOIE4gTiBOIE4gTiBOIE4gTiBOIE4gTiBOIE4gTiBOIE4gTiBOIE4gTiBOIE4gTiBOIE4gTiBOIE4gTiBOIE4gTiBOIE4gTiBOIE4gTiBOIE4gTiBOIE4gTiBOIE4gTiBOIE4gTiBOIE4gTiBOIE4gTiBOIE4gTiBOIE4gTiBOIE4gTiBOIE4gTiBOIE4gTiBOIE4gTiBOIE4gTiBOIE4gTiBOIE4gTu3RP4/wGOBtEotoTnCAAAAABJRU5ErkJggg==;" vertex="1" parent="1">
          <mxGeometry x="317.95" y="177.5" width="104.09" height="55" as="geometry" />
        </mxCell>
        <mxCell id="lbS3CkcZTFjXa5OfJz5R-65" value="" style="shape=image;verticalLabelPosition=bottom;labelBackgroundColor=default;verticalAlign=top;aspect=fixed;imageAspect=0;image=data:image/png,iVBORw0KGgoAAAANSUhEUgAAAfQAAAFyCAYAAAADPyhPAAABdWlDQ1BrQ0dDb2xvclNwYWNlRGlzcGxheVAzAAAokXWQvUvDUBTFT6tS0DqIDh0cMolD1NIKdnFoKxRFMFQFq1OafgltfCQpUnETVyn4H1jBWXCwiFRwcXAQRAcR3Zw6KbhoeN6XVNoi3sfl/Ticc7lcwBtQGSv2AijplpFMxKS11Lrke4OHnlOqZrKooiwK/v276/PR9d5PiFlNu3YQ2U9cl84ul3aeAlN//V3Vn8maGv3f1EGNGRbgkYmVbYsJ3iUeMWgp4qrgvMvHgtMunzuelWSc+JZY0gpqhrhJLKc79HwHl4plrbWD2N6f1VeXxRzqUcxhEyYYilBRgQQF4X/8044/ji1yV2BQLo8CLMpESRETssTz0KFhEjJxCEHqkLhz634PrfvJbW3vFZhtcM4v2tpCAzidoZPV29p4BBgaAG7qTDVUR+qh9uZywPsJMJgChu8os2HmwiF3e38M6Hvh/GMM8B0CdpXzryPO7RqFn4Er/QcXKWq8UwZBywAAAARjSUNQDA0AAW4D4+8AAAA4ZVhJZk1NACoAAAAIAAGHaQAEAAAAAQAAABoAAAAAAAKgAgAEAAAAAQAAAfSgAwAEAAAAAQAAAXIAAAAAagCpiAAAQABJREFUeAHsfQeAZUWVdt34Uuee7p6chzDCEASEYVBEgqIorqwrikiUpGLCdV3FdXd118CPguQkpnV1zQkBEQkDiKQBZhgmMbkn9Eznfu/d9H9f3Xu7X/d0TyB2D6dmbqpbt+rUd1/XV+fUqbpKSRAEBAFBQBAQBAQBQUAQEAQEAUFAEBAEBAFBQBAQBAQBQUAQEAQEAUFAEBAEBAFBQBAQBAQBQUAQEAQEAUFAEBAEBAFBQBAQBAQBQUAQEAQEAUFAEBAEBAFBQBAQBAQBQUAQEAQEAUFAEBAEBAFBQBAQBAQBQUAQEAQEAUFAEBAEBAFBQBAQBAQBQUAQEAQEAUFAEBAEBAFBQBAQBAQBQUAQEAQEAUFAEBAEBAFBQBAQBAQBQUAQEAQEAUFAEBAEBAFBQBAQBAQBQUAQEAQEAUFAEBAEBAFBQBAQBAQBQUAQEAQEAUFAEBAEBAFBQBAQBAQBQUAQEAQEAUFAEBAEBAFBQBAQBAQBQUAQEAQEAUFAEBAEBAFBQBAQBAQBQUAQEAQEAUFAEBAEBAFBQBAQBAQBQUAQEAQEAUFAEBAEBAFBQBAQBAQBQUAQEAQEAUFAEBAEBAFBQBAQBAQBQUAQEAQEAUFAEBAEBAFBQBAQBAQBQUAQEAQEAUFAEBAEBAFBQBAQBAQBQUAQEAQEAUFAEBAEBAFBQBAQBAQBQUAQEAQEAUFAEBAEBAFBQBAQBAQBQUAQEAQEAUFAEBAEBAFBQBAQBAQBQUAQEAQEAUFAEBAEBAFBQBAQBAQBQUAQEAQEAUFAEBAEBAFBQBAQBAQBQUAQEAQEAUFAEBAEBAFBQBAQBAQBQUAQEAQEAUFAEBAEBAFBQBAQBAQBQUAQEAQEAUFAEBAEBAFBQBAQBAQBQUAQEAQEAUFAEBAEBAFBQBAQBAQBQUAQEAQEAUFAEBAEBAFBQBAQBAQBQUAQEAQEAUFAEBAEBAFBQBAQBAQBQUAQEAQEAUFAEBAEBAFBQBAQBAQBQUAQEAQEAUFAEBAEBAFBQBAQBAQBQUAQEAQEAUFAEBAEBAFBQBAQBAQBQUAQEAQEAUFAEBAEBAFBQBAQBAQBQUAQEAQEAUFAEBAEBAFBQBAQBAQBQUAQEAQEAUFAEBAEBAFBQBAQBAQBQUAQEAQEAUFAEBAEBAFBQBAQBAQBQUAQEAQEAUFAEBAEBAFBQBAQBAQBQUAQEAQEAUFAEBAEBAFBQBAQBAQBQUAQEAQEAUFAEBAEBAFBQBAQBAQBQUAQEAQEAUFAEBAEBAFBQBAQBAQBQUAQEAQEAUFAEBAEBAFBQBAQBAQBQUAQEAQEAUFAEBAEBAFBQBAQBAQBQUAQEAQEAUFAEBAEBAFBQBAQBAQBQUAQEAQEAUFAEBAEBAFBQBAQBAQBQUAQEAQEAUFAEBAEBAFBQBAQBAQBQUAQEATGDALGmJFUBBUERkJg6K84UopROMQn6XPDxSdxZpoGxxCbfrYibnSfUnrU2AgGxNzTCgyD4UBmo/ssFV1XufJFUmy+zDTBcNVIcKpMEvFiT/EbLm+JEwReZQTsV7k8KU4QeFkQGGhzh7bgcfttoRR/SEl8hvEBWvn+9hqRJi6G5hIMFDAkl9FxSfHSEGnG4p8yKmKQweJTHirT8Xq4UImFvt8fMVzq0RFXWa+4O2PifaPu6Y2hdRgpHtXhrcr3HybPDs1idNRcpBAERkZACH1kbOTOKEcgbqNBzmx5DTbJMZnxUuuqTMAN0SRy3mV8f0MdZ6CC/og4ef+zSDuQmBejKwyInZzxkJwamqJiPIZKPfBccifFKU2Y4KIvd0icJho9x7iWSV3TKlNu1INV0VXgrqIuaRUriZw14uNaQ+cFQ8UzcYTsBYHRi4AQ+uh9NyLZbiDQT+NoePvbXrTWlY0yG2/+0Kmxa81b54sn+QBvQqtNtTKTREgtN23x+zPVD43ynQGxiQj3NshJ13gXMjM9wrD1TNkxTjK69pQ71LXt74ChDkaU1h/HyNMip++WF/r94pi+Xh4jTeNDIYjz5zMSBIGxgkD6ux4r8oqcgsAAApW/XjTmJG1uLjYHW8pR1M4Zz4afWxFbCe01z3UaTQS40MHsb+B1qx+3+AOZpclGw5GyJfIZkQW5WREKlsWWwzlqaAwdeOAzKVGz9jiPsIUVcczDZFx8G/sxGXQ1IDnfPX8P3HjOkMCmq0jaL2FLfx+8z6B/G/Gp7AWBMYFA+vseE8KKkIKARkCTFs5wNMjWCFTGSOSksjyiqxCVNNoGj0hG2uJwediO605sZaRDI66HoA3eQBwztRI9ztNP6EimGj1B1x89kn5iBlGhAlofNamZZqCg14HfS5GyWMN+e0VcC1aWweAT2DyQflrXEOe6BwTYfAxmxKDo5KNmp+tP+ROJUB1q5lpYxnEzEUVXCbzdDO7z98DfB38bqBIBoArOn03UixOSOatqGrZhRj66R8rkPf37QLwEQWAsICCEPhbeksg4gAAbazbHODpogTPY0Fhr7QuNtT4/sEWZHzz16FxDY22NYUQ1pmFQOSOZe6XQ7woybudzq1d2f/3WxQG0daMHN0HuEbU0D0173LiTMBHBshj0GD2O+ppNPwLvpyFNl16/KkfQDuUyM6Bm0BbJ3OafdDZ876c/b02fPSNvuVY1Imqw5UzT1DjgXDO5EXk9XrnUHhZ7e779yUuLMX2hbhZrxk5AD+iwD8mTUFnHtO6VcWm6V+LI8irLSstnWYgHf+v3RslzqEIeWx2ia8HT7J8QqcsvWWBmHJUv5N1MLmM7QWQEHZ09Xldo9/3rt+8t4/2HpcjXAxX4PYT8XZDsdagsjxGVssQpZC8IvOYIDP2ZvuYCiQCCwGAEqEjF3KnbUP5ioXqxkS5gA1OZ2CI03urrF+6fn1ptT3Xt3EwVWLOhs06FIXqqskwQu2GFpurxVbQ68PxVlrKe68q1rF66TW2+7Krfb+1AEWzAe4y0qSahgxV0oTjvV3KRSEfiHmXR8iRRvPUKhco/1FgUIGCCvE3onTY4G9R1ymWfcWbs/4Zxhuk0B5E1E17f003XmRSG4dQgCMaB0EnuZPwi8utED6cVyvoLygxWoV8ATIJNpudtuPKcczpVgPoF20D9tGckAbin1e13QnyFiW1QeWn5jOSWBL4mC126AP0Uqtbj0CMbj3uTkerWc+e4bm3VeM9Uk3wrnGQ49oQoDGqtSDm2bQe+F3QFlrW5HEbruwJ33XbP3PSpKx/s7MLz24EqtngIvsLpUhf7Ctc7qZocBIE9QqDiz2KPnpPEgsArj0D660xJNTEx1+O6AaUnhG789yfn55qqzTnZsHxYNiqfhJb9sCAIJzqObaE5BpXrToERGhwphhU2inzLMFs7Q/vJPjP/p6Jp/6WjL9j8r9+6Zzs0MmMT8t4C1tbF9mvmECY1Vad2aMqXNuzp8eVEhfmnZSB/dEpi67mNgQWbY+RQuK2cuviKq7L5hglTDNfdpxj6x5im/cZQ2fP8MKgzbMsEmXODAk8jRUyFPEN+AasURH63aal1oe8td03zbnQR/hYU+17YsGJx20+/ejks2dBdfdowEiM0ZdIBTJoG5vwKBF39FAdN3LF5XBvMWR7KLXDDaTLkYtaDhP/zvDfmZ9Q6k8Zb5Xl9Xvk4dGyOhD19mh+FtbDa0HUO+ygK/EjZGbcchNGq0M0/XY6ce30n/7eikX3h/C/+vGMrSmhD3tv1TyguD/uB964vZCcIjA4E+v80R4c4IoUgUIFA5a9TN8Fo0WFbnR6oaDaSHQrV/DMXHNxi2uaxuDwTfH2UGYWpFoooTVr6iF0/5YRxx0CPLKOB78GQ6V+N0P5JWG76yz13Prvxm8+1RovxgI/CMAiNs1QzRRZ8VrNMkm1/rsn1y3kgiaRlsf5aNYeCnakxVa4hPPkzn7dmzpk7FYx0JOQ8JTCjBei0tICo3djbHU8ggLfQk0EdtDfBDgKyBnEtkBLnRWD4DIq9C2PJ96ggeOK755zernqhqZPY9cAEMaisOK4rL3co4sVH6Opzxw3F2Hgner45sUGZ0LRVE05poUk286rPHDa+Oe8fhff6IYytvxn1rycOSMJtUCCpI0IfIoyeAyX6TD6M7VdFs/bOBx5ftuKLf1oXrMDPgH27xHEetylAGiCYBEFgFCCwww98FMgkIggCMQKVv040u82InYAN2pjxtTMPNGdMrJqTN/vej6gPQvucCW0cbAdK280QgZxBdRFacWiq5lrfy38/8HI/ajUbV3302z/3NyKfjboVTzMkkeGcm6YBxrNhf4Ua9H7OIJOAUWzU3M5j5lUm/Mzt/9NYgiVCWdn3B6Z6BwbQx0EQG/0dI7T6xw1IVRRyjwJojQ/1ovOyCMf/y3nFOzvXr1t68+c/5aky3QlJ7ByGTwPqv+fFpA/v+phijmLosEi0WVwGZxm8gIl4AZNw/f435Y2Tj3vjnIxVPsfyek+DpWIqotkj60cS54NCzOdplM6bWbOIrb6R+U1JZW9/crv/2Cevv7+Emkdt6bsflCWTSxAEXnsE+POUIAiMbgSSX+mBaGrnQdJ/v/hNdq6x/IbIK1/smhYabrMu9CMcRmy3d6gfTc4hpnRF0PegqsMOr52ie0LD/L7V13jDtjXRktN/cZ//RP+TzBsNd3+DzhuMSyNegUadnQntxs9ysBWa1Yeuvs2qyRemZi3nPV5knhcY1kyInoXVwbAhix1ZkQ9Wx6aVaLNyEjZF3v0QYc4++glGd1gO7jQD48ZC35YHr7zgw73KB7UFHJxgZkn90St6ZQIrkuSNdxbPQYhLLWBshab2mbj8xaWHu5YT7m+Y/qegjL8L77QBQy0kZy3lSLINJvT+VHyOb9vDOMU93arw3bXt3l/OuXZhcXlM9rgLuZKATmF6KkdB4DVFgL1XCYLA6ESATXHSHNO02oLLs+Yqte+B0+f6Ye8nbcs6Hc0qHJlhDYW5dCA1znYRNA1hB8aCDkt7LP/bGQy472+Zdl1Vdeb5bjdse2R1h9ZxU6P74GxZZNqwaw4YfPulXlnQPw2MlzsYL8/VqvOuvE5la5sPDqLwY0EUXRSa5lQKDYz0einw5mddFJz/NGrcDbKM7748GktY+A0vjFzLNPZxHesNhm36R7795I2P/PEPXXqam86PcwIQaNF+kYXFGQyz1xXgrhJbE1PPAjhDRtrUDu3cuOYTbzVqXf+NphV+1lP+O/FAvQV5LNPUr3WYnHcWRXaOoTNCMwzL0/A7m1qdybbNOeqIVT9b+Czm9TEwSRoq5Uvj5CgIvPoIpK3Rq1+ylCgI7A4CaDfJE7Cla+o84cQjamzTO9a1M+/FJGEqaC8+0EIfOWj6HTTPcDDDOLUZWVWYqvXeyN12/gknvHEapsLRjzyh/J1ab1+8HCM9SfmMPNTuGvWRa77nWg3j58O//3OR5Z7hW844dEbo5pb8DcNcjG4NzO8x04DaR9A+RyqtMj5hK/QUTBs7w/Ij/+Cinf1cuW7iGZ+98UcTlVkAWRIzPsbkrwQ2qJr2G+CR5cRVpTtgI67oyX5iXpmNRs+cyIwuKUfByQY6Y7TUcDScfgMvAgMWouuPaX2GZfiu7XUfXeV3nd1cUzgY9yQIAqMWgfgvZNSKJ4IJAnGbTj0Qk6jUk1G9t9XMb7ECb7tLBUwbyzVKbIR3W1XSI+0w5VKxNJGJhSVmeMRSMxxZr4E32Rn1xY4P/v7f/qkRWiA8qQPlwggNt/mEMeM/nXj28ytkcrVAmG5Bvedf/92qqqk/FOT0OVMFp4CsqrguHK2/0CH1ETsddKy2KaQxL/2IGpvoLDjIe7ofeBeX3fzZn7v1pxPY0VDo/9BIkPie4xy4aDp86eXGVgDWCIH5auwDroEXkdD/6bCM8fFL5o+37PKFnlU+xXSMGhpq+G59TOlL3xQff1GBeViWKtlZu9OtavDdTJ2um65fivsr9O5flMDy0OsdASH01/svYDTXnw1nspHQMYVInfmdPxW3mYX7DM/7ga2iVrbfL6UKMFBrbY5HzOLCBqO1iVFpw6hv8HrOnNW57t3f+/z7q2gKgAFc64j8o+FYbmLp1iK+FBlGfNZy1VnX3WJO3f/AN/qe+Tkw1UmQs4COh8EhCEKT0B3qgPNhtPIXoaEOEsekdz1qHaDnA2UZ9BZN8dzCBdudhvdfdvP/1sWEDgtH/xj6y6up873EQbOoxp8LCNGj/T1vO7zBUN3n2G5wWmT7dQSBBgruA7yfl0rofB4WkbDPyqzsdPL/u71UWljxk9T4x1IlIspBEHiNEZAx9Nf4BUjxO0EgbT01a5FYIjTUynjivmVdZxx1+Erbcd0oLB2A+JzmHZp9I5tKN1KlVLeT/JNb9ImDrs85XpolDap5iEJuDchwFqLXHT1v1qpH/r6i/6uqoH4kgYb8Ilt0dga0jHHvAJJUXoOyLBTtVKkj/+mMeZha91kQ88mWZcHAzLqh26E14YHCIbO2TjOGW0rk+jpGBLF7GHT2pEfigw2Qcmwaxddalj0TDoU9bz7llKULf/ersl5ljiWT2JPn9rC0EZPHr8VQ9ZABMx0MTFMzrvjovOqqXPT2jB19Fu9gqgnP/sAP4BlZUVlaLygSBN9hww2+O3YX6NtOTwosHKcC00f9UE/MKnDwtjOe0dqWnXTzytz0H330izds7dV1G1FUuSEIvKYICKG/pvBL4TtFQDeeKeNRW0KjC2WwBqrTuC29PbNnTd0U+R3j4aw1Gy0wFHYbCeDXhgacjbQeft1pAenNhMzRyMf/YhpA8aD2sDEXeo0TzOD5o9942Ia7H30uZKeiCAM95dEEm2azm8dYs087EOx4JHUkY/LSrjOUO9G49JbvTS3b9gWg0tMN08xrIodoml4hHOvHvDSZg5D4eP+GbAgf3f1ScsflHoU4L+YLPJO8WQyWAeBkv4bQMqf7lrvxLSe8bdnC3/0afRympS0l1ar3qLgdE+sKAB1UlJ5/zajxTFT7O5cemGmpdo6Ex8C/41cxE64DFno4ERYLAi9DBuJCWTQ+zGRwiH8XMaFHGLbBrwbLCOPawvfpTFQD4puhFWU81Z0Lsj9elZl88/FfumEtyDw2AAzOTq4EgVGDgBD6qHkVIsjwCJDh0g1UEStdatG2rnDu3Mnt9TW5TZEZ7meE3vggDGy0zmjbAz22HFPfjg368OXsGAv9myXTeXwiWnnXyeWft7xi25PrO1RHJU1SvD0KfIBsk1SGDMONK7PaWOfMrTc/eePt4wLHOd03ogtByo3Yhq0IOyCvcuCCPLpYIN0Ej/p62ETWTZ0zd/WzDz0Ipsccdc2kqOPLIRryoFNiFd4EF5D54nvrrBkTW+a5troc1oDDoJFzJCQBFCUPgWlYfCgXCJ//+BuhnIRfW1twyb4hOoflTqf5txvtCdff9uBTzz68dlOkvwjAkhjSY3wle0FgVCBA1UCCIDAqEaCGqMeKBzWeptqKX+0zkPhjt/yl1Fo0Hw3NwtWYJ73CsiLYXEsgc3xgA2kGvn3+4qvHVeVgWs6ZRvl9uWjbmf9w9Kzx/KJbqoNSuyM/7GnQQ/+sFzmd9WQGJhzMnEnqkht/nPczuZM8wzgfHttNQ0lqT8t6hdKj4wTl2bTeXHIK506ed/Q8eOSjKDrIEZGX3rRAeda5EW/mzPmJR86eNS0XBZdgzH4+lqvF/HtNxCyQ224Fjvdz06Z2PMF3WcbywBzGMAMrjEK7jL7h3zcb9T94Mprw+Pf/uogLBtJIwTcmQRAYtQiIhj5qX40IRgR2bEGhVw1Emn94ZFX55BOO2JgPy32GZR0GwyndrmEqh3WUjPNSYNRD6SD0KAxhYHdDw9jHtKx1xx/7pqV/vX9xmWL0gUa0OHtSkKYfPEAm1+cYLeDkOLdKnXXtja6VdY9RrvXP8GCfiyLIkAxMyaJ47A/DaqD9d1+RE8Kqq4wDjNwmhq+N6eyRHPP2E55a+Ps7urWIIVaS09qyTvqiBKFmDo92jpub01D32750QpMb9FyAF/KhMPBrUTIMBLE9YKQChsOH4+kDKMaV4V4DG/hqu1X7/Ea35ar1zrg/nPu1q3x+bw6Tz6nQ8y2/+AqNJKTECwIvEwJC6C8TkJLNK4CAdvxKmux+PkM5jAfPFY0w2oZW+N6/PFv8hzfN3uA6+Ax4GByMRdOymGcFW/lLlIkNPwJHW7XLmaEKKHm640frDplQt/L+JRuD7ShDO+TB/5vUkjyy84K1/HgwTaw/tALqyhbMg973/oNN1/4slqU9BgziIEfWIq1JeuzPfzjC6r/5Cp1Q8nhD6VB24UqW8Y0Q09jcvsNOOuXpR//w27LBD9Nq7nvx/EcyxyCEMRXH7527b6HG9t8FrD8BE/8kF+8fJIxeG95yiuMw9R0Wn35IEzgx8E71GyZ8ZBlt3JKfeM2a/PSfnvGlq7s6Tay8h3okReCVsMlM6rTD2xhGAIkSBF5FBITQX0Wwpag9RICtqG5JeWTrmTakOJKt9X1luLi866FVXe9YcMAGaOrj4Qs/S5m+S5c2tPpxm87ke1A8zdxUyXiM/9HXm9dhA2yy9U31DaueeGHFulU9oACUr5c/rzAd9JelOyWJ3Lp8dlASQTh/28bCMUaVobIN6lO33D47cOwL4eN1KnLNxSKniYcXPq7c8PcqY2ma5jgxt53nWPnUbp3je3Z4E4bm3kkZN9s+/y1vXvrQn+6CdxxLTRZWG5oVhajceD+9TtJyrjnWaDe/dfHBdkuNfRSsAF+Gr9o+gBRvH3YTlKuHIxK2TR4bdCA+rDPz5oFBH3lNj3xs+Gws7OnotPm5Ntuv/+Emu/mHH7j8hg34vpzy9cN4f3yIr5G/w4r3jBgJgsCoQUAIfdS8ChFkBwTYiKZb0qLyUhs+U4JnBBpa0IZx1L4zOic54QbDDGaHZnkymn0bvs/9mZCi9UCozoQZ7SKQqRIBOO+cHQjMVedXyCdhuN6deviCZb948Jkt/HR4P2UnebNUHZdq4/qKloW0cDzEMWezGm7WtdF53/1ei1XIfwAK53lIWo+PxYAk07QjyxnLt5P7JCT817yUJGOuZOD0X79II2ezwx3NobF4MIjAD56asjIawItNjmm3zpiz38qnH7oP4xXU1LUIupj4kSRC36nY6ZvEiP0wpbigz9dOrTL3n9Z0kGMbXwrN4HC8e/TfOAjO4rjnsR/9isx4ymEXdqDi+8yTQzHMnfWPp6uFjMHKOUHJ9Bt+Yxabb/jhwmcX37VuE6dIIg27cQh8WB9i2eLBnJHKjdPKXhB4tREQQn+1EZfydh+BpBGNH+BF3JjG12hM0yhEk1MffHxFOO+gfdpy1bntmah0MNZlb9TtNh5g0pjE4jxigsNTurlmwzyoMFwjUA/kEbTBZp1jr1DHMUBv4kvrxkxM3/LeNv+w5x584NmutGknCTCrOH9e8E5yl8SiNyQgIdkY7odX+0XXXV+lqvLvMR3rU1D++OEwrcYP5MF8hg+a0Ia/pWNjwqM8A3VlR0HXljt9spMMhr3FzkhcrzCuEyhd2zL4LZhmnFXXjhv33EN3/G6T8ktISJ+ymBg1EiyTvF0ZGEd4sKPzGz3aMXauLj117nSY2D9p2+pkLOWK9Wa1yHwjONUPIGb4wPcdF4Qj5CS5M05H09kRudA1zo8KQRDVL2zNjL9mYY/x0Nd+fbfZjWRaVuTQLzPOmWMcP3CGKAmCwKhAQAh9VLwGEWKnCLDtTJrS/lN9gmi0riRRmkfhhqXu+vtK//g37bex0Sh2hhHG000sB4qHOZcZHMI5bVTPdG4kD2ajG3h9houKoJVOXMdUxZTcoLNhrnUUeJlcVJ7aFHVvPuKwQ5770yPP+6RMD0lSAiDXYfFWXiM20RSZBS9pOXDq1Edv/mnGqq46rqz8y1DOXD1cj/t6bhgEIwHtdEN1Rgosn/VmYF2TU1yx3iM/px9Idno8oTJCn+saxtO8eK0vdX5U1Z3Isid7lm2deNLxix74zS/waTbOVuBIdBJI5mnxjMQ5ZWVjhJXjSebGZJzfdNmbxjeYwUUYxv4QPkhDnkc+XDmG5IxENAokQV/jnDHxxret1+ZHDBPzGfwG8DU69j7YOeNYgY9ox52w2A+avnFvu3/Xh2/+X7+LrxiP4H//hlMdKkrEdVoaU0oQBF57BITQX/t3IBLsCgHdio7QaCbRlU3rUwuXlc5447wNWPwTjXfPPPzIMyQC3f5qKy0fIv3GISa6gaY6jWfSAb12oHFnRtQ3YcCvBTNMi2x307w5M5Y98uTKgH9Q7GDoKXNxluQa0AYuyCjsV8BnT1nVkcpVq8NP+8dDMd/9Ustyjg75PXewOifK7S7hsrMxUmBOtE5rywISaai0ZRznlAox+h7JDv92P+icKjoIfJKdEMQzmzDKwM9gGvIM55/w9kUP3/mnIslTI8NyK4uquOSYOc3s1M5v+Zdjamoz0ftsw78I+U5CYSRyiMseGbLAXmeT5FWZJW4zBbteeoiF9htaKJiG3Squfx+i+1cyMlHZqVm/yWm6aqlZ98uLrritp4+dDVZvxwwRWRmYKN0q4+VcEHjtEBBCf+2wl5JfAgJsbys3NtVcwYzfAsdnyNT0tt7effaZtC4yt4+DTjYX04jxcRFyAX7yJDr4Zms1D7nsjNDjmUqkEjTfyYYFbPAUyJ4RYViPxVRamgr26rsXvrAGfMClVUAWSeWYUAvKDgVZCGxiFiBKrfmZW27bt8+xLgZHvcdScHXXK53xufgRnpEkd07aaUFMPThAaqx4RiJjGtCbpkIeITcDotOnB0qMb+18z6f4xMA/gqPzgsAIzLkKH0iZUDRyPcedeMLjD/3uN3iGTnJ6UKI/e/0MrsijHGvYBw/e/i9vzVQb3W8BmX8B36yfjaxNrNzG/GFpwUVC5roUPJPmgdOKQG0cGj/SY+EhXbLGg68MZA6Cj4pmob09KPxwbWHS7adc/t3Nmsy1EyNzpEQ8JlhV5CyngsBoRUAIfbS+GZFr1wiwvU1aczbWbHo5MZmL0TyxrUsdcdTcbssO10eGPQPRU8CMWOEz1krJaXDmSsicRSUZ8TQJzI80xc9wMoCo9Ma0GCvW9zw/wBLrTkvke7m3Hn3IytArtT6zoUP1JnwQO+WRevCAlY1UhuPmteqym2+fmKlvOqPHC89EfvUsAcSthdCOeyiLYWdkvsv77LeA1rTTGpzCkd6DmZqxdBCHUFpdhqQk5hcfiAtDgk+aFSLNWtvNtaAD1DbnoIOff/qBv4JZYyc5wsGEhInDEtw4Zn7bJ4+yCpnw8Kjc90WYxg9FlM25CnGm6AslZ4iveHe8GhpY89gpTqOvOzEkdh+dHDNwArvUYTf/oj0z/dqP/Os1K7u1Oo88dF1QWv/0tLhuQ3OXa0FgNCLAvycJgsDYQoCt+9CNNUh+zetwfAqXH/p/v8N4aN0zvSp3vReZS7CMKtTDtIHe+U+f5MRF22EG1208j+nmw609wLXvx1OyQD5Zx+872Q22nXnym/ebhfnTKf/gWRvEgk99sL9hYc0zOMFdcP1thU4re+Lm7t6zcY/rpuCjIvE65CRzBlDRLsk8Tjl4D7l1DugIRAGYFDOsiziuQfTvEHcdFNMr4bn2IyitT6ggaoflAp86D0IUT0JOwRmc6U6u0kd4TM+T5IYfWU5XMTykx8ydbbVMPwJT9KBAcGq91rb168Jb4OQ9owYV5mpwdU5xjun1XOQY5lFYNsaxArjE6bFwTi+LYd2JOINu6c6YXpfHwjfTyNiwqdh0gzPCjJe5W5nNN63oyC/uxWtmzeOuDrKgIUEv/7pn5Q0qXC4EgdcAAdHQXwPQpciXiEDazqbHNDtec0PjTLqmSvqr+1eE73jrGzdmg1IbWuyDDNvDl09gV+VSIloxTR9C4iSkxKQJAWQCQuwnduq5ZD0SADcq72AD6H1RJgiN6X651PX24+cvXXj/4l7cMsrKMjHGDl6FDoqPpb3zS/9hVtU1nmS72c+gT7APPPGhSuq5baD1WACtTPJ0aP3i24P2w2jwRgCBQdChY5RX54ziTXm/44o6r+Pn2b7t91SVOh/K+H0P2oH/J9gnHgttpxp5NOMZMCeEqdCABxU0zEUliaeYpcnie+j4BIFlhMH4QjafP+r4E5/62533wEmO4HmGiyM/S8sxcyweYNz6+bdMqjKDC4Iw/CdAUq3nmWtQBmvm/WXsFB/abJCA9UHXIjI8WlXQlXD9drvl6dX2xCsW92Ue+MQV1/gcIiH0+p0yT5aZsnvyTtIy5SgIjGYEdvonMZoFF9lexwjoXy11O1AmQ9ropr9mXNPszru8NRspf/e5E+pds/P8gtP7CSO0J0AzRmq082z103yYnq16cuQMZQ/ebSlx7XBkDmAdaP6hhxOkR2J7adms/erWbut/L7rtnvJqEjpN7dzcGnXBzT84CjrpZX5knmRaTh7Ll2rOSctNyZycohXFtE5aqh13QwkYBEoSLdm2/ajRt+WKWqv3oUV//tOWO267Ab0S2q8tyAsbglOtPnHNLdlyXfN+WM72/Zi39SHkRefyQaaLVK6hJafxKSaV99M4DlWgb4EP5KGvEBibQ7/4fXzk9Nu3fuwDG1V5U1gFE0gDHkSh5q//+TDOYT8Dj3zGsgx+DAc1x1fN8eDQOqZlMcXIAdXA+8Orx3+MmasyvtljQ+/OrVuanfmVh/sa/+8L37imsw/G/nhN90AvgRMkj+jOFH9AyU9s5HLkjiAwehAQDX30vAuRZHcR0A15TLz9j1ReJuf6gAYaLmjqvgdXFt991AFrasKQQ7VzMIyajfBFFwO6tW68tSantW1cxw5vdN/SZna06jDX6s4BvLd1G88r5o8NMXDHi0L4a4GuAlUHC/bkjONsbp45a8V9z66A7osVY3P10aW3/mjf0Cl8VJnWu23LrYZmDz81up1rSePORCIH68Wx36GBZKmJjDLivuYb9kr4hTko+iXPLxWU93DB6/mPUuuKP1/1qYs7lj/xdyQO0KmIy9JOcdCQH/njr/2///b/Wt/8jhOXhFgXHTjMwtdtajFOjZyHKZwyoXxuaRi4jtOn1yRz2PzZsUIU0QvyqO9ky7SL8485/LFH//xbvwH3p6Ggaz+9oLpg+Kfg/iVYGH42vpBCq3j8MVQ91I9+ErIfuqUyDH9kFejSyLIhCw5dTm3XRqvm2vVu008u+c8b2vhduNj3ne6UQ7ibEQPVHL4IiRUERhkCQuij7IWIOC8jAuQYbNCN409wdnR0Hj1r+rpyUJwVOv60MPQwm00vjYIGn02/To6h5ZiseUVfMpI4OQwmW6ThQiRgB15TVM7HCkmlTINFRPGRcFw3mYHf5BWa1v7x78+tKbs14Tnf//mknrL5EccqnA4axxfUdJbMgVTF46CwY8zA7ZToNaFzQTlMkqM3O0aZvUg5TzfZ/n8Zm164+6rLPuEZ5S6wFl0HKDxlhNSYE26EmLkfYfQ46DEf+uMdnUee8t4VkWFVB8rZFzkWtIKsIeFMseGkiSsQ32IVkJhFJBv7D1xlhr0c4Aejt57IVxsGZnM26t06d9+pSzYvfDC68r019tTm2vmw9v8LoJ2HB9CzwOAF7Aj029OjIgNV3+FsJO2dsMIdEALxBUGSwAy2FZq+v9odd/NZX/zemk7aZZLfB99jWkMdhYvUUrJDgRIhCIxiBITQR/HLEdFeIgJJg83Gmdr24i29atq+47dW1RU24qtdB8JSPh7tOpyuMKhORy2QErlPszXokaTNEBMaCEwTPPIieYK5GB+Qz5GGR1qrDdzDTfh5RS09VU32fm8++fkFHz6/pzdXd6rpOJdgLH0KKJJ6OYgSnQnkMTIpsfTBgekpVvoMjtppDEvTBtmwtLZQ6vhaVan9T/958blwJ/dQCEb38czQQGnjwHuh+tvvftO14J2nvlCyc5NQtznQ0tE2aJu1TpbmkR6Th/sPLIL3qJlr7ZxyYtwAXQiNT4RpZ3gJ6FsE46r8beOmVYdrZ6mVa94xd8pB0Mo/C3mOxpK9GQLICtGWwPBSCB2fyEPZllG2cz46Vfi2ecvVdy9te+6hRcsDdBcgsC5C7wbwGIiTM0FgrCEghD7W3pjIu0cIpGTOT2BCH1V3Prk2PObQyZumWMFWy7YPgAbXADLEYmTUOEEAaOm5EhxZiASl6Y5HTViIBsvHZA69GPnRZBtv7BBAP+YD0AzhRW5vzzVNarVqo7CuZXq3VX0+6HVu6GQ4uAvqZzoeQSV7yCZMnj6H+kFqqOnK2VTrdd1U3bX+J5dfcGZ7JsB34WFWj2vAwgYH5qE3XUGssYevoz18x1+2HXzK6a0QbD/kPxXqMRRs1p2JKG581Bd4etC17tDEaUjoDBgEwDAAnsdyO4YPp0A8jul9ZpW/tbk56sjtXwhKU63e00Dip6IG8I8L4dkQaDJnh4UbMdLHuNAd9iPf4/vBuzEsv8fIP9Wuqr75XE/2oS9c90uf7017UOCY4rBDxhIhCIxBBITQx+BLE5F3DwE21ukPPKUiNObGU4+s8T644KANvgd3NiM6AJPXq0CtSA5zeujDOQoOUuQSPJ8SGrks3TjiSlLgfVIXj9QkaSDm3PZuM686nIKxrmpqVWvt7Ol286wjguw4jNtbDvysmROGzklf2g6tuR1Z7HaITcWsHSRGVo7yuxzV98tav+PaL5//wY0qKsPCTMliYtUJR9oxG1ZAp7XV8e981xZk2uGZ1r6AYzyEHEzc/fnE5esnSeC6QxRr6IwjbqBzPI57XF8VQoNa8XnbXjWhd5U7rbRyQmNf64HNdnGBaQT1SACjQPyJl/4icPJSNPSy4Ya+nd+42Z3wjZVh858+/l+3FEvoHrCTwypj22PsK2WTc0FgtCEgP+jR9kZEnpcNAZI5bN9aC8MHMvVa72W053SG+u1vHu4IVe1PVZj9JdzPO8LAVmWPzm1o7OEJ7mFeNuhey6LJCaRFD/LYpAwyAE/F89JBWmB3bmWQXxmW6g4noza79dHWbFPQXTt5QkeUm+EFdkZFLhJS7aSJnnRiWCRnTdC6pN3aaaFYPjy6MEBtlpTXtzDjd97otW94wQ6KMBiw28IEO8sv+dNHbkzGbobyutS3zj6tFHVsvQtrp99YKpWeQ93R79CkjgM6Mv0YcDxex8fkXWlqR7zW0kn0GEvHBUi9BF+3PpXDOnp13rZwYs+auqlV6jCQ+TgkQv/Gh9asq7ZTjXxnNeK9RGOPUH7ghdbW3ih77Xan5fcf/Pebuzu1V2B/F0H3qYBCXOiuMpb7gsAYQCBVYMaAqCKiILBnCLCl5gY6Sc5IXrGp/KmtRbXk+eVdRxwxay2U3Mm+V5wGmzkY1wfBkqjAtyAifuecfMSx4JTEU6c56no6oSa2QJXwYdU+21GtmaZoXX5K2F43I+qtmWIamQJWjsH3xqA1xwb6WI6YbylhTKr6ZJc7SIc+AUcHMAHNd8Li0wWv8+tO+8aHv3bpx30TFga4s0MudmUY4vzj88o9S0+3JA0pDnk/eucfS8e/48Q1qHk+MDP7ImE1E5PREfS4fyoxiRuuAP2kzhJovwCf6viQS7ZGHrpTJdVQ2qCmlNZEU8ur/SnBVqPGxuKwQR/8CVCjuJ/Dx3XgtY4bSfyKdMmpPujhEj5pWcWu7MQfbDAn3nLWF69dh+EW5sj3iNeId4nU6Vb5vJwLAmMZAdHQx/LbE9l3igCHdan7JcO7Oi0ptQ1xi3F171YVLXx++XPbPO+7keM8CQqCAzsaeywkQw9tWmT1uDopCmZjzNXW5E4e5x8O54przZYUga2M8rrxsbEtmYZwff30qLdxiipnqkH08H7XRvoBQjdDfIcFPmf6K3AsasSQki6POiB13EWxIm+lHXZ/p9Hx7vuvj320RC0Yy9xCFvrkZbDtTn+d+SbNgF5Ij0uz9hrfOve0zdVh6Ufg2j+AC3vYwUHQZE4tPdXUY1xA4MCH5nltogd+xDDkOryho7EJVY+qC1rVzPIyf6raZowzy6br9+q3M5TMdUm72BH7eNNvAqnjOiQ1KaOT8Zt2VX3b8vK41d36Lo3/AWuY2AF2UYDcFgTGIAK78xc/BqslIgsCQEBzIHcxGxETzIOO6RD6GvW0xxZ3RUfNP6DVNcJtYKED7CgcB17iTf0UHeC0SR0cyrFz3qKGx0BNnnEYb1Z9yHez06g2ZieHm/JTo+7amViyfaJRNrKxFJzcrc/0o8gllksXFEftsKcpnp0RljnwKH3kGRVtqfG7byn0bP7x5eef1aGCMr5gAjpL5I6lB30xYmhgZqS1foHiDkL/dcAP0YbGwjv+vO3IU963HimnY3R7FuQxfZrcE4m0do6b2rwOoZgdO0ScssYODuaqwfofqNpyq2oprVPTiy8EM8trg0asdF9terCwYx0Avo1+OYYKiuthxGcqjQvKQ5cI55SfZUJAy/E67HEL1xktV6wJah676Kvf8flpXSChvQrYJeHzA3iOWASTSRAExhQCQuhj6nWJsHuEgG61uRtgBZIjaZlNegmkth23H1q4Ijj+TTM3uCr03NA7EOlrQ/hCk4F9kBKJYmDjozEd+NTMcVrEsq6Y7qXWg8zXVc/yi437GkHDvlZgZUEiXE0VD+gxbfIwyTl+nubh+Gz4WjHvOOAJziBLrkHpHY5t/6yqd/P1Xzv/9I30UIdeHjug6dxjSwCoNs1g8LE/3xiHfny07sqbeI7jDEZWbSxFW/bb/4DtvrL3xdLwmNKGOvMWp/ilGjnTolxSJeOCgPPcEYN4y/NUU99qNdNbE0wvr/OnBRutasOzHD1lD54N9EXsl2ewmLzSaBG+HTaY8qHfx9KyfBZvoW9hrWx1Jn9rWTDxngu/em2J2nnSrRnE5DspknlJEATGJAJC6GPytYnQu4WAbrUHyJzPxFycNuexbzvp4I6HXiiddMxBa6tLPdVg6X1ASnnQouGRoJBAdwTwMGZJgzlAaqAHfLoMnQJbtbsNalOmJdpUmBJ11M+OjLopNrzaTeq5KJ1cRP83TXhahv5J1sx15JBqnmDPWCNFasjSZ3Rvuzvfs+XK+371P8vWP7+ICjP/I0Bb7c9Rk9zwmQ8qtAIfHV95HanOVc+FR510/IY+FRVR3TlBYIzDADX6JSgL2HDTLvsoibyOae86jh+Er/K3q1pvg5rUuzTYX63xW4xOq1b1Wvqj71pclDVIlh3FHfl2fIeVx9w6QASHRFWzuWg0fWdLtumXZ33lmk4OgVA7HxRGznBQMrkQBMYiAsmQ01gUXWQWBHaBALkp3QYlTcmOWqZldqCRX4sJZR/7xh9avbJ5C8ae/wCNvNv3oY9SOwcjc8Z47PyFc5I6mBV+2apsZtR2t06BzMOOmulRX810y8s2m4GCUzu/D4Zn9Xrt1MypcjM/kA/06UESDXehx4h1OqbV6f2MW3imJirf0Ni3edHffv/z1BEf90nmadhF3ikmAw/EDw6NDzF7P2hTV3/qnJ7Aa/9tGJR/BDJfz0+csJPjsxiM19N6wQh4IGBDPblyK445r12N99YGk7wX8FHzdVZTuA3fmwswcY/dDmBD5z3I/RIDCsXbCaIOPyz8oCto+dm5X7y+rR2Zcu2BHcLQOu+QQCIEgbGLgGjoY/fdieQvAgGtLuvnElWNa7LQrgs+ctHYr9+4cfsb5r1hkxv2zioHwRRwNzzMQMLUzjURwwwPrdSDZr7dKajtGWjnuclhW+2syKuZooLq8fi6WhYWZ+SvPyxCFZ05cIcCdLHU/SkErhkVX+xQG+1tjwS6DwCX+nxQXF7o2/ptrAb3x3/75IXlZBWc5DmUoPNBhhXUvkOmexLBrDRpK/X0XX/oPfLkd64pOXYTejlzEe9qewCwoCMcTe2x5SJUWb9LVZfb1MTismimv9ybACKfmPXhlE/UkCHk1KLqsW8KxIKGDxqmYW/xGdyF6b9s5Mp9Zv43rdnxV9/+4DMvPLJ6I75yl3SBhn1WIgWBvRMBIfS9871KrUZAQJOe5g+QQcoWIGpyCk3ka7qVsXXtqjUL9p+ERdDNuZjQPEEr1kgcO8iF2tSuCT3TCFN7U7CtZmbQ1bifCqsn2p5Th9XhmTUILiEqlqkJnTEcN9dsFguo71RcV4qNsXI9Xz2yoM3a1tZCX9tt40vbfvzFC89qhxOczhLz4ZArK8KNFSMDvzwB30pHb4ZWDNrRS+qxu+/q2O+UU1pDL5hseuacjOUYoR8aGFuPtfTE5l7lbccUtc3R1OISf/9gmTEhG1iZwMcHXWHTgIjwD9TSxjvKSrmHD+krGnyX38EjOtiHXAku95deu+HKRUV30b/++E44wbHnBO96/dDIeQ/OU64EgbGPgBD62H+HUoM9QGCATEkVifrJ5xPmAKlHW7uUOmDevust24oyYd9+oKB6rq6CaWsG10npsTKq061WrbkJ0ebq6V5f/UwjqJtuh24Bll+Ym5GXAXs5TevMWF/r/AfINpVjZ4TOldawKG3oRH3dtt/5y6py142Xn/uRtfQ4o9kaBVTUgefcXr4Qd0lYmTRPV2UbWjZPHj8Z3R5nFjzQJhET7eUOC4cT9hjZoF21FNeoycUV0eSwNZie6bULWLfOhHOcrXFJnPsGdWJGlru/6FQEfeQKAEboGfjMi5l7ZlN2/JVP9ebu+8y3flTqwwPxW2WXagDvQY/LhSCwlyLwkgew9lJcpFp7OQIkiqEbl3stYduGW5+85a+9XdnG/8P48O0g841QPg2OGZPQe80sVoOri7bnJwTba+eoYs1Uq+w2mL7KUJlHALvRFRyB3uB67BznMcHraJwz5ch/fkzLMXTHMMtuULwnV9p206P3/GG5wiIt8OXGPWwoJ9F140xf7j1ETCqEKuGiHKjHb7olCLa1/TkMSrdBc1/KaB1gcneDXpX3t0fj/HXBzGBlONXqNGsCz8j4vnIwfc3kmLle8Gbkeu9+FcyoZGY29tjVN7flJ9x79hU/7muDLBwBiC0qyCmVbfczlZSCwJhGQDT0Mf36RPg9RSDVjNHsD36UjT+jcKTyCCOzeuChZT1HLDhkLQy8DbZfmo11zbJ0gtuQnRStq5kTdtTNiop10ywjDzM74kH5yMJPiojZhHpiHJLMUYAetNdqO4gfuib/0UubY+Ysn3G8jpdjDR6t8rqvaFv86MJf3Hi9b4AgqXniSWw6SVpAUs7LeGAVKBPK0iypzwNj0X13eUe87ag1/GisH7mzzahcb4dFNa681pjSuyKcEWwIpkfbojrTt7GaOtgbnROk1cBqgIeKPPQ6rQPqiV5NvPgOjewEh6hYMIDYbV1W061bgnG3nv2l67d2atmS57Tc3I2Ub5q/HAWBvQuBl6OrvHchIrXZqxGo1JIHVTRt+3EsY8N6adEmbBdfdfcL283aWw3Tva+rrPrKTo2x0WhQy91pQW/jHLNUaDY9Gx8KAwFDK4fCDFLHuV4FjuSVBq02kpAG4likdrSLJ23zCg53WFgWz2OcOXQMa7EqBTd2r1v719u+9lUPnQpl67ugfHbFYxVddwLSYl6JI7nSYvcB67CrqBs9ie3GrZ8/d6sTdP4kCLzfeKXO7VbUjXHzVrVPeXU43d+sJkVdFlaao8shnkEzg4V3eOQ11p+PtxgA5AtMhtn0Qj46AzyOJWSxRTaWxPdLYWdQMn7pR3U3/fLPizcP9mZn/4Eby30l0JA8BYHRi4Bo6KP33YhkowABuoPd/+iK1vkLDm3bYDfOaa+bNr5r/Fy/3DLb8t1qw3BzZGmylGZqTeZg2gHajivB+DQYXNENKbS5HARPztJaaEhzesmo8ftUfbFrfaPpfU91rP/+lZdd3I1PyvAhna825uuHX2HKisXUhfZLT7LUwVBP3nFv17veesKWmu7V45uKK6eP71yi9nXbVZODJXUgLzs4+jvzg8bLk8d5SMi6ImbQKbo1SIP5++hOBJi734vFe7qcQm93fsJdG4zGa+5Ysm7pjXc9yMl1yrOQVmNMSdNtUHZyIQjs9QikX3DY6ysqFRQE9hQBH4SCNc8wph5Ei/pyfzUnzGreEhZqw/yEuUFhnBVihTjMMke21MxjT2+DHyPR5vShpaVESB5L6R7UDO6xQJJcOx7zulTW9qOmqNTZrEp/VMVt//P5Sz7U4eIj61xxFUkwv50j63GRA4SoKX5ogS/fNUVnqVhyDYvCKP1BcWjZVtQbdT10zxNHHlh9QyZY2TDe2fKWySYWwcUYhYEJ/IYm2Rcvhvbgx5r3XBIe69REXU7G2GYWnu3JtNzwxMbex7/xi3vxfTgtFl4BTthR4gR5CYLA6xQBIfTX6YuXau8GAnpFNxtLu2air/7w7tKnv/Xu56pqm7Z4bpXVAzK3LAcrxAZY2xXjuyBpbXEfJttYOyeJx2TDfTzQDjM9OgJhiIlWVlnVlrarus7NRqFtTXu4adWyZ5etX9sEo3wfXO/5yRQankH7yAiHeE3y+FzfewV2qaKb9j9QBMf7M6iHg+l3jZjo98j/XRueOvnklfVVpReqzfCtdmhbJvzPua78S6VWbfPAcESXVRd12nVGa2Zy12Nt1spST+aJr950u6ccfo4WNhRdEMic56mscbfnFQBFshQERi8CYnIfve9GJHutEeC4rwXSKLSoD1/1PxO82vHn9thVJ3pmpookQpc2cD4ohGZzEEpCIiTrxDMONUD8UJbRpmZwsg0vdXB0hNVcI3yNrKV3YzBh6wq/uW2JO7F9iTm5oeGF7eu2rtvUU4r69Cg2/1w5+Uvb6XEEsb+CxEVuZIkVowW6LgUMUjchejKubr9wbvXs2uhd9UH3aXWmPcEObHRvUC/9EKFhLiOEXZnckQnm36ttmfFqvTFR3d9WEzzQOcFc52dX5qfMXLll+VJ8QA0fRgUcnDEPO8YA1CMUKdGCwN6MgBD63vx2pW4vHgHykF2jVKbROPOK79bY+boPe6FxnmG5k2gyJ2WDjclYmrwrSS8ldCQDycR+7lyKTgeQmNbY2RPAgiwWnODqfIw7l7aoxrblQV3bMi9qW5N3/O4WJK06YN/Zz//1iZVbyiBRer/zW2d4EDSe5MdM0z7DnpI768htdwK91OPaGC04mYCrG//5eKch6x+Pb9p83LXtQ72wHEVmAHjY1Yk9+OMhiREKGJHQ42e7rVqjMzNBPR+NDx9prwqW9+bNTaVco+Fm6huaWpYfceQRG55ZeD8yB8b8MCqNF+zh7CkOI4gn0YLAWEOAf6USBIHXHQI78lj8pzAQj2u7Sp323e+bVv3EE0w3e45l56cZURZYcaQKVEXNEFs85Tx5vkI7T83wKbjkxGQEXJO6XjWt5JvVve2quX1tULttlarevsopBJ3gf6/W9TtOqi5tOPfLF72zBY9idB7dBpjo+8mcwg4IrItJo4ZEpyKMeBzpOc2NFDz5tjqqF+WRyzFVyqwNew+1lHcePhlzpF8ugp49OLB7GPP2OeZNxXnngb4DeotxITYpPnywx6pRa4NmtRKL9T1ZHKc2BnVW5FQ7pSBzbG8pd16f505WURbC2Rj+oOc8OjkJme+q6J0LJncFgbGJAP4YJAgCrz8EhlXiUhLC1CiVgXaOFeGqq6vnA52LS155H65Ppp3foH1SP063GL0KjbkCTv1VMlwPkBsWhIFmbsPLrSrsUfXBZlXV8UJUs/n5KNO2QRVU6GYxKm9Dg7fMoMk0y6fUFTe/7+pz31ZoBp3noeDbFJ6MNWwlKgof6ZTP7orx0jRaM2dGgWrAfibKHIfjRRcs2A+ynRNF3luAC/z6IJweZ0hwAEY68Djcxps6DbTxxLwBVzq4H+KztnYe3uy1CmPm0aJoarhoq2H0BFm7rFw42rn4pH22AAZ/d6dvn3XKx77YoKx4hb4IHvHEhKLz0y+7qqKWT3aCwF6EgJjc96KXKVV5sQiwX4vmn3YJj64AAEAASURBVITNGWeZKkO59caFN/1wbmhkP40bx8HJKw9uC0FemrdoSuZqcJrDkmJ5npITo+K13Czq8JhXzkOkHHp+eyB08FxtsF3Ve5vCui1Lwpa251V1qRMr1xRRhAeH7fgZxzSqqwxvUkvUu/GAebNX/uWpddqPGx80Y3Za5KR4fUhJbKc99TRRxYNsCBjNDdnGJ7TlRw7OQ1BtGE3B2Wzcuv6yY1pyZvEc2yx/CNPlG/Xa7Bh+0EvdAIM4ByCE05FolTATlxSzGEfYIPB8j5VT3Zla9VQwPfzz9ma1sZg1ekJMD7TxCqwsNqzjY1n5yHBmq2zV9jcedcSSxY8+4NEr0YTpnXVPpcCpBEHgdYOAEPrr5lVLRXdAgK2+3khh2LRmXgdSL1gX3PiDCZGV/Rgo4r24V695SuvZcdqUjHbIk1nGifUtTMbGJf21WRBWoINmng+6oypvm2rpWRW1dCwN7fXPRY1+j2V4RfiGg5DwPJR0ZcOT3jFcE+f1+LJJSzaTXTZv6riNjy5pDbuojFaypWZhXURcJZxWRMU30n0sSnyFRBqC5F6iVyfiUmzDaIyCaBruwxFOfedjh1QXnOAfXTf6KOamTdXWeBaEE1YbMulAz/843yQiju7fE7/YxoFugO5ImZhLbqs+fGB1U2ZKtDSaEj7dXh290J0zioFtmnYO2jkc7mwLk+JQikmHQqNgOZlp+ITbunkLjl61+OEHvcjC9EG4GKC7NXL9+6WQE0Fg70JACH3vep9Smz1BIOWa9IjPoSq7Xl18w4+qy2bhI35knAPOnBAT0wDxpcl3VZReEgVaPPRQJMW4O4jL87yoQXWphvKmqGHLM+H4zYuiQnebWRWWLTPC18jg2EU/cdu0MDXMxVxv28DH1rCke9hUFYX5GVnnmaWtG7ct5gRsciK+KhYzO8tARCIcRqdxpRMw0YiByVONlon6n9D5xHenwNawP+59/ay57uRx5gmmUfoEPnw+T6dmkboDw7TsYVAzj8mc+VX2OXgdB5BxUhKf5Xx1Whv6jKzqwztYrqaHf+uZEq7uyZvtHrRyO2daWFTGyWYUtHMQOWwfdBHEg5HhNhj5TFOfaS0+8LCDWpc+9FdmDr4n7hIEgdcXAkLor6/3LbUdgoDmLTAm2AKcW6vOv+YHucDOnhwY9qfgaEULM6zoWu+k8qqTD8mi/zImtv5LTSjxGDoIC8SVwdKpBWyTSutV87Ylob1padDgd5hWuWi7GE+2QeZ67JeeYdRaSUwwImN6G0hNOTD7T4X27u1/yKGL/7pwGdZgxcdk9Eg+z7gNhN0hc6ZmhdKn0xwYxy2DOzm4uMGjPTrzUMM85OB9DsOM+Ett0z5GjzbQqE5CBoGnYSgGwxN63MWh3YKT9kLbVWV0TDY5zWqdOzV6ptgUPNNRY3YEruFZeTgU2HBshyRcYR80DmsF9li5BnK5FvRzQ7WYluPCN2HJ1H33a1/15JNwesfkfSQYKk8qpxwFgb0RgYG/xL2xdlInQWAIAiSqdGNvlnqzgplXuTXq4DMvMsp2zRG+mb0ERttZ/LJaEnjGx3YaOH5eOYZOMg/hHU6V0efn2sp9qlDqUrUda8JJHcvCxr4tyu7tsjLUzMGQ+mMsVFURqJZbDvRsF6cOztG7wP96wwr/sd7rPPnasxdU0UkNs9L1d08S6UCv+JOmpJVqNzMcElIMGM0S06rysQQXVYXzRnAu0DFOOP7QOZZVPh927wXo31h2hP6Fnkk30IS8GPKkHu3D0x0Ob6rNbo6e8cYHz3YWrNaowew2arHwXgZ+cHmNK/OPp/9hYRuYMnJwSHDoaxCZBd+z3mtkxn1k3LRDJyo41EWwcLDbUPk+UB0JgsBejYBo6Hv165XK7QwBNvohPoWK+eZYx7TeOOWiS/fzDOszhhUdC3bNgw74fRAsb6I19BEJfUQiAznDbxsEyc+HllRLebOa2Ls6zLcuCQrtq1Wm3OfYfi+syMgao+ecZ86SLJw7XIkO8TjFOQgdHtxYiBbaaQBhowlVrrX+qEMOWP3Y35f77HgUY+mYEaqc0vPOal9xj88mj7FBQB+Chnw9Zj4NZP69L50wrhD2nou6fACECo7nKjpgenqpJ9b1kTDYqYaOXLi07nZnnNoEzXxJ0BI+2YkV4byc2R3BCc6FPcJljwU4YtFbmtq1uR2WDDA5ejqQBOd8SY7jZmDMmI3IbYcdc+TSRQ/ez+/rQEho6hIEgdcJAkLor5MXLdWsQIAERjMxNXPMNceMauP87/5gemC7F0Ohfq9hGbVgAlANEsXcGNNlRRZDT4cjNBZBr2sHpJKFCXhC7wvR7OILobt5eVRX7rRggjczIb7CjnQBtE+qxnD6woC5A1K1QeZatweZo78Bt3Z6vxuqbGWsaFw2KrcUjMKSdx5x7KbfP/pE1B4LhExogYb5Htcj0rquPxJUHvk8HmCDQDIHMmoitp9delBttSr+I8b3z8eQwDSovHrIHnsc4fSPPLjFmfE4OOyM0AMNkK1a3SlYPGZS+GRXfbS0ON7swtzyEA6KoQWrBQidX7DTdg4QOzs3JHP0dnQHiBPXbccB6SOYdh7dp5lmzl096/DDVzz/4H2BwoduJAgCrxcEhNBfL2/69VrPlLRYf56DC7RqB9JUZjWIoUpdfO3Ndb6TOdc3o7PBns0YqwbVUG0ma+mncFoRkvHtwYSIhHyiPzkIWKcLozpvq2r2N6i6bc+G+U2LIqtni50NSrCkQycH4ZPXKBe92x2QFT3cLWqlJDLGayGopYYqkwF5RSY4zGo0bbvWsbxFz61etn11FxIhKb5KBpkpdkLoWqYBqbR4CXEjyUCIa4trQzVjPwPbF967j5rWnHk3TP2XhlF4AHPU66vHT4FANZiQk8cdg/6ELJR5kjr/0QJBAtY+6PjiSpdVr9ozk9RSNS18qq85WtWbM7aGGYyQI0eMP7BDAxd/4II88Droh2A66KpgOAKdLpTLV4kODIz/WEGeaeA8Z9aWfG98vrpm+VtPeseGR++6h70iBI6/Q079kJZmR4ElRhAY4wgIoY/xFyjiD4+AbsN5S5MN6Q1B8w6JGmQOj2rl1qp/uPzruXxjy7vKpnEpCAHTsDjyjYSwJseUET86aN+fOf3kUupMInGJcWaSLggIxnDDN2p7VhnTvBeCzPrHvabetXYOHu0ZJuecaW1Wp1c7dGv8NcYLymgFFPmA1LghnsTuupjGRlM8Bs6RLmtb3ngTny2ZfshBi//44IouGJcjLx4eiMXtlxPPJ5KyauRVdAsQA5LUbIeEtPWD7DjJbgZif3PefHfWxPwxyvY+DTI/EqQJZGhjj1mRJE5a1GSrz3g1+B8x4PT7FCKa6NEpQemoVWRjzHxCtMGaGj7R16we62k2t5Qds2zl4DMAedGZsek7wOEGTeDAlEd0IkyApTsRAMWkxk71nDvd+4H3gZNpDo1Mne9Hzxet3JZtK5aiJ4JvuUM+jQQkoPMhBeNegiCwtyDAv2oJgsBehwDa7DikJ7r9xs8di5opTIFS2Rp14VXXmE3Tpi7wzOjj4LcZZCdQg3akSh3ceD1yGP7Ph1o3tijrF1V1T2fUUuoIaresKBe6t5uOVzZdiICOgyZsZq+nqtm2srHRvI5buActHdmT8DmNzYFZmcTGkMoE03qLbfgfnGj2vedX/35qNT+WUo8NtSOzxiE5suuRBnJsGT0WHxvPdVoc6+GYtw8mcWOQXDnV4X6WG14CHI7CZdofGL7CacZDjiTwuAxUiE6B/JZMEBrFyAo7rFy4KTPBeLw0PlzZnYm6i9DfYV+Ht53GhVigD6HrqnFB3Vn/NI7HdNOED7yIC+NwDdd44x2elTn7uPecNkPZWZg+YLunms+APewioPN0RGWI4HIpCIxRBPboD3SM1lHEfh0jELfg/JlzAy9BMySh73P2BVZfvvpAz7Q/Blezg6DdOSQE/dW0CryG9ZLWWmecc5zvDn9GYKVQZf2yagq8cm37pt76LSudunKHkwkwIS5Z+ARWYz3fnE5w3KjzkszTc8qj56QnRE/NmnEMPNKP2zWjCeODzoumd6w67usfWpClxxpsD6gI6pqKmB75IPJgvHZro9gV90jk+2G7+bIjpkSZ8jnFoHgcLkmOOOx5IEzxinb46CvKZd0iH3PxzYzZA85di+V0HulqNNcFdeixVBsmOy0oxqEZHWVyG0rgKaknxK3vU7IKco9SUo9s9/Qu5Z72sSu+06jHCtiL0oEVTyqvDQ5xrOwFgbGOAH/VEgSBvRYB3YJrNRRUYWLhGBeTvZxq87DDj5oG2+35+IjIm0EA/N6INkWnmvluAZISe3qMMwGZs1R8NzwshXVh92N+24YHs16xKwcVkURCTZW6ITVwbWoH8elFaMCusVYOWZCH9m5PtNKh8nAs20OVPNc0i0Y423DsTx8yMX/INe9fgNncULxD1IwGci0bpUlCLFococ9D1QDNfF9s45HkW5ceUpe31EfQ7TkNGTQkZK4V/GE7N2m+wx59GD1g6jbKIHbo6hjbhz0clohGLJjXsnZ7j/VwW5/XjZkFhokxCFojHHRedJno4ADIQcROoq4k+fQ8JfPkPkcHSPCw0Fv1+D7dxb1m5p2fvvb2fOwASfsFgOdHbrih3gPgDFsJiRQExgwC7BBLEAT2UgTYX6V2ySMGZm04wWUa1blXXTfOcHLnw7fsTIwLj2MSaseasEiC+pndhSQtA5mAhMk5ekwX5FXTu/Xp2a7//7IbnvnpZG/LuCjw9zFhVLZpPkZCjpdjrfbYzI4y4yFgSgJpOXYMtseip/o6JS8tFf5qaT2GXxm0XUgLVzDQYUOd19uwj9X7VLdjb71vXRdpSz+ryZyZJtc8RXpsIFicT8VGzfzbH92/0FLl/IOtwotVEM5EBqgFORTdC4zNIyDV4DBcXJoCa+DgYSyxjqcxyI2sIBGmERSN8RtL5vSbF/VUXbPandjoGWq2F4Z2GIaGA8sCx8m1mR1OBak5PSHrhODRAQKGzC4m71iTj89jUzzlwng9HOLRi3PcyT3KXTl73ry1Sx5YCMcFEDnH1Fm5VFg5CgJ7AQJC6HvBS5QqDEEgZiy01uQQbPigB7RysGSVOuObVxXsXP5dWHvtEtuxp4Ky2PTHZI5s9ozMWS6e1b5iKAfBD+CWhqloWOd8baHUcXODUf7fy7/w1dXHHTylB9rgjIxtTILXODy3sGkyR4mQE9eanMh7ICE4yGEMmR0EkjfqE7Mzx5d5HtOQ9mXHN0NpzkaMg/qONxwnGDdn5tI771/eRbMDp68xwMd7UCCZY9V6erQb3G67bL6Tz1lH2mb02SgM58H/DYwPyVgeEWLB/YEKO+sbyxOfEwdE6Y2O5ZBOC4sKhPDbh43fR4WLZrS9q3r8r9bZtddfd8fCZ9ypb9iEus2CJX4aejocAEedcdCL6cSYpERNGXgOYPSIQhyPIokdn0G3hthoz3gdp2XGDaMRHnNN1YWqZV1h2AonOVQA09Qrq9RfNzkRBMYuAuzESxAE9k4EYoIBmcOem69TH/7Oda5dqDkchuBPwiA7k1ondVAQWOzVrhlpMBQjm5n5p7Pjnw+H4oMg2BaFwY9BdD8585yzO7jCybaw8EDgVt8C/XNpJUGRpKhtUiOn+d0FkXMMmWPnKYnymJJZZRw8+LDeOw0CWLoNW9kOmzoc/+w6u+v9v/q3t45rgYQkbRiZtSau+SvGBDH42hu2aaC1L7xvnFnlhgdZkX8pVrQ7FGCA13ETQwNpeUy/5wG6foRP0cIznyzsm6rkueq+DUHf1Q9tWbvq8SVPqLZNGx6Fw9yVWdd+xnJsrPUDrRxT01KMhh5THOJ45AqC55Zq8un9frnpUI/Z7FgN4M1FM/eRY089fYbKFAAue0qVlB6/yxQeWjAkCAJjDQHR0MfaGxN5EwTY4JJ1BgdNWoziCRZA10ukWNXRwWddaE6ZPnN/03QvD4zoCLBAhlSuSV0nj0mznwgQl4ahcbEmirJpAQCpUg79hXTcCP2or171/qa+uPm6/7743OXQ1iFKZPzlydXesQsOXMclU6BNHmAaQTXnWkORVPj4uV7xzISGqY3nJHMau6mJ8n5C6Kk8dLhjsRwkZ5dEky9i8BSeUQWow/tHfrntXQvmrSt0d/VsbO3Ry7hOQAbcOM+c3zTn19O+dt50e/bEpgOtMPiU7Rhvh3mcbEcwtOY7TB8HT8W4xzhoQVAyj6nmHstG4ektAO2clQk63HGLNloTr31oefsD37jhV6GHaeZbliz25x15+CaYNbaFRnAgPi7XYGMcgkMSab1T0k6P1Mg5HMHpa7oDkMxJT+8T1Fg2QshvrEMIfK8NPZ8Znu91HHbc25578q9YSY6fZYvKFBZViuvEU4IYd4F4HsfzTIIgMNoREEIf7W9I5BuEABtcak8kkPjfQIPLe/xB6xjdMtPfGyulOgXzHeddPBnriH4crtQnwfpbQ8KiUVhnh11luz2yVs6Eg5LiinSdkgG+3enZf2lRHVf/17mnQvOEYxp0bbiEqW6kfOiR5b3vPmZuq22GdU5Y3heEnLVxga+NY8oWtFIIbyELsA+8wslBeJzcgpB2KjTJ8VpH0m1Mnya2cX2BlWv9Wjf0Di6EPf5h0+u2nzZ/n1LbU6u9HCaqz8JzZ2CJmHNPmpg5422TGpuq3QUZU33KVtHbUVY1CiKT6vLSRWRSYh04Mgl7GhSOkvBNcK/lwZHEzgisZe+Bzg2HoxDLN9qTrlviTfjVl6/+cSnEN1X8EFQb9ann//5oaf7xJ2+2c65fNsLDYXnP8psrMMFTEK2Bp1o4jzSr6yEK3I7jKU8sM6/5VuNryoT/uEdh8Awnue/v27nV+x/3zuXP3v17eOrhzaAXZeAr87SMYM490rJetCoMdFBwIUEQGPUICKGP+lckAlYiwKY5plSeJcSh4+IdqZXkqDVzpwZ8WojO+851db6bPRsN9zmgkCY0+AkTkQXSh/tP0oiRj4OSgpNioz2Wd+17Ol/aetVffvGDO1uXLw3ADqAejNYnRIc/NuPPD63YduLRczbWhMVmB85groGvnIChHHyFBQo6hEedMARAAZOvtcR8pHscunYDciUdCUboisRyIZF2YKtBvoeC2A5EL6dw6KFTzRMPm5h/+/wZdTNmt0ypG1d1BIjzdCDwMfQnjgARYgoAswE5EpSEIEmMQ0PaDYrpjrVLxtIhD8k8BhdqMRzgLHxHrqSqNnWrhtvXOw03nP0f13RDJ8bnaGjV0AH9AEs9/cBDfYe85a2beq1MvWW6+zhWxkW+6DewY6PRAB6QDK9WkznAiueqIzNtySDRIz9sXEVOVwGXWnrWCSeoJyYYRAXAPQnEvXLOoQesee5v92N5WJ+EjmWAUomSOldYHGJRZS8IjG4EhNBH9/sR6YYgkDS1iI214qSpj1Pxpt4wamyCzDM16p++/u2Cma9+R2hmPoXFRKbAHIthbFIWEzKP9KEki2EILL4zsO9/Aidam0dmoK/1Vf72a/M9a3/xi+9+p5cu6DT2Yjoa+C/WXOFbrYoQeN7UQtvsvNXjqAiErqZY2rfbgU5ON7KYELnsKUXTmvBA0YPO4lqkdemvCcrT+inT5rCSy3SUeoxt9p3gOOW3GXbfKV7UdzrEOD0Mg/mWaY+HPwH6FuwdDEffg4qMLwhAIq2umcaMcmDtddYV5mv9XrCIDzT0jh7V8PN2c8J1H/7PGzdtwTdZ0amiGV4jz64XLRK0fj/z5JKOWUe/bQPIfArMKtOCAG50cKSjVCR1jqCQ20nYJHOYJWKJSeiUgfdwngaeoVOjze6pCZ9DLLB8jMfEgMZctfu80VC7oXXRU5Hhw9eeQe+x0xVgRPw745kEQWC0IyCEPtrfkMg3CIG41R2I4nVMy2zNeYXN4nzzGnXSpz9nNEyadhTWEL0cZD4XN+FurXOI98M01sn9gQKGOUs1VN4iDdpRqT0Tdt1S63fe9s1LLtgKDRtsRarDquSJHkoZqf/BCG888fTmYP5RB7dijnS5xsZUNks14StquA1Nkc9QOq1V9rMKi9rdoCuIxDzSS90Ev2ZcJ9MA4p4Eqaagk9AMYqsGW0JJJwVSNdX6bQzlrkqKIdTdj5iYSeCsHR+nXs1mxY48owqL3Db8odVt/M5tDz6x9G8vbNQLsDIZ0Ul1dPof6G+m+aXosPlHbIKpfaNvmvtjpbkpFI8+BrFmnpjYMZ2NBE+Y9JEsr0l9sOB4MgaBRyZGwNQ4fsoWE9/NSdjMusam55+96+423EAC9oUgHDf9klknCYLA2EFACH3svCuRFAjEzXIMBemO1vN4o25IUsdmV5sqU6eO/fA5+2FVsi9j6bDDkTSDRj1W9/rzIQHtcaD7FKlEs6Vj2r051fOz6rDjxm9eeO5Ks0yfdiYhZSWBJ9i4ahp1drqy3fHw8vJJ8/dtbXb6kLA8zzY8ECySQXPVKiUH1HWnIM1kz49xx4OkRlbnJDiqq5jUBbU3NVTQXY00pgVMdrsqSVdHP0T+g5zoDxjYaHqHoo2AEfnQjUpWwyMls/nqxV7mwc//6Hd0P4vdDXQGLJJPMJA4uRJ9oBbff284Y96Bm1RV9Xa8r4Nty60FmZO3YWq3Qmx8izqCPgYkatYTFdIEz+v+DbmyKAa+Ev1aGKXJ3YTnuznFzFR1Hjn/6Ocev+OOXu3URzM7hNJOiXiOeUkQBMYKAkLoY+VNiZzDIkDaTHXD+HOotZjLVRV96MqrJ2NBkYugLZ6CVpmzt3TLnDbQcTMd08mwGY8cCULQTT6yCrDiWe+faqPu7y768++eWPn4E4l/HPIlU4Ic6OCtiVXnh1LBTiHXesf13x9e1fOuQ2dvwUdX8lFUnguudfUNPQhMQuf/FyVjWhqeBxPqjJgP0eIW117nrgkrvdaP7eYOjmnMWY/3w/6Bj6lwwCDApPwQHzEPQve5zdnmax5pV7++9IpbfR/9LQ456KJ1cdxh0+VTJgbKGKplj//df9OC+VvwNTk/cLIHgcyrwOghzOzawkJC5zS1UHdRQOTsCekwGKukhOTewCFOxbLh/B+pWfjC3eZD3vzmZU/ce2dZWexYIAU7VrpDFUs28LScCQKjFwEh9NH7bkSy3UJAN8yaGxSd4JwGddFN32sK7NxHoIF9FOpcE5rn/lb5ZSB0ftdDt/aG8hbjq2Df3vLsY/f+7rvf0mu3aI0VpKQLpLaXco2uC/7csJZ8iJXKsE6Zngf+2N/WbnvHgjdssW2vGVrzPtAMaU/GXaqfMQHvFgzDJoJCHqJM3amISTPWyCFdMgauodHlDJvBiJG0i8CLH4Z10iOrDu0cBgB+iT0yc2tDo3DTCqfp+x/4xm1FvSYbkrHjNYBH8kp0b4edA4LKMXgf3gOhsej+e3vedNyJ64tOFRa3Nd8AAs/hiNeHdCBwquwkdv0+kRWPum/AMpLAEpJSdEyiobPbEP8k9ANmHUbPp3nZ7IZ5Rx+26ul77+D3ZJCCmbKWrJ8EQWBsICCEPjbe0+tSyrhBHmhUBzXQ6QXISFlwgnOwTIpVo86+6vra0LTfh5XHPgmGmMBmGY2yJke00lQiEbUnRBm7qmm2IAGAOeDqhYlY3qoav/Oq2mLbr2764mUlFUCzA8HQ/KynXeOU5QwKOg4xlDn+r4ld+W2tB8yeujnw/NlYYW4yxtkxbw3l0oFraB6DMtzVRWodAENRdCSPrQUonBeUgxtP9X73dtp8Dbm4Qh5NEuwzUKGF4wK2zNZtmfE/XGo03XDOV27Z3p0yYvIGBgpiuWn58XkSg5eDXgLmuT153wOdh5z49tVYLBdT57OzoIlnAIju78RT+hKpcdDEPgQr3k3yHHREdPIEJs9BPnS/mvwgbMqaxkq3unr1hmeX4EHYE9gh45PMZLjAAtJtuPsSJwi8yggIob/KgEtxu4cA20noYfhHBuZV7DlN3tDzoysb0gzI3G1R7/7Kf2dytc3HhKZ5GTS6/ThYrB/TLK7zISXr3HDYjaA1ZaSLn0JvgMuNGxkjaMsb3rW5ztaffOPiM9sUnLk04TNHJq0MKaMwThOD1lORzlJ9iOhAN2TDumJ47P7Nmwv5bKej/IMw5t+IpJD1pRJ6f6E7iEVhyLUpupUij3Ter+GS6HRnACnRiQnhdscYI3SLZpj79Qpn4lXv+sqtaxMy1zp8vwCVeIxcEMQDoeL1ddtu+4xZ+62FX8Qc5DEFUew+kMAhumZc/U4Rhei4NukeIiEyeXcaUPyaqHVjo0WAjR8+z86awMXAnYCVZ7JTJ097/rE7/7BZr/XO1x9Lr3PB1eAw9F0PvitXgsCrjoAQ+qsOuRS4uwhAB4T1c0DF4zXb7TigtdXqGpZ1xUdX5nzgLHPmnH0PsJzcv8B0DSe4yEFbHLfmcZOfPrjbR6rz4FtszEhLYmRtq+iU2n+c9zpu+eYnPrpG+UUSS1xOzB4V+Q9IWxGZnMb3sCdlGHc8tsE79dhD1jUW+4pQzg8NVLkas7O04XfHZ1/OmN1jpZTMWXLcESCXkzqpnLvo6ThBhzPuzxvd5iu/ctvPnl7Z6ZPkY4MAn9m9YgZXDFTbvmqZcfhxb9uCxe3XOY7xRpTdhAKx0jyd/HTGWohdZR+/ojT72LJAmVL8URssPKsmwe0/PPqEk5Y9cvdd7frNYKW/5Fc0cEyz+f/sfQeAZUWV9o0vdZqe0D0RGBiYIUcJMkhQUUFRF3XFdc2KGXd10XV/w7rrrrpmEQRBFIygJEmShBnyADOkYWaYnEP3dH7xhv/7qm69d9/r12mm89zqvu/eW7fqVNWpqnPqnDpVFd0jDIwzDHAMGrkIA+MTA6TSwXpsQU3BwCmzCibrYycvn0dh1kB0T+innfW6hVYidRkiLIamGqex0H5KuH0vG+eZIbyR7kPNrtmemzc9566kn73u+b/ftV5zaKEu+Ap5i7oGl14QmrcW6BFexbjh4/99e2esx7zNyLo3xHS9C5bjA/GpwaW1n6HCzFyB4lw8Lx0aC9/B9nZOfFmb0fDLtXbzs09uzmCbFuBjf8UFLnLLt/vXfeUzBT+3d5nppX9s+O5WoNrnHnxMPtD1q2wN6U5diRhxoJ5NrDT0NWuqp6Xeh3n7d334e1dO1wzugs+Bo7zxscjcxQv1RxEJBVYiN04wsL9dbpwUI8rGpMSAIKAVBJMU2MCBHzrWmtu44rXa53/5m5ndnvlBUOQPQOqqJy/3sOKb52+TYe6rk1I5TL3A0cA5/KSXeSWR2XNFItv+6G++922Ibg4yE6xfljIoSX/IDZy6FHIlX4hRb+3muw4+fP4e2+2egZ3LjsCQBPuSVoANpbD/j/3DrsbMyUoZS+ZL99utho277Bm/3OTX3PTx/7wqi4V74mhXIl9B36ciMDKX72Ew9cJDf8ufcf5bt2aNWiz/M47HB+w5T/U5AmFMpdIZHD5K9cIsYrE+6peQfJ6QXq9bsbmOabUee9opa15Y8hDPgEWBEJK6FBVVpKtSU57qPbpHGBgbDEQMfWzwHqU6GAxQGheblJBgUp4i2eb+n7UQjLBHe91U7f1X/KKxs6BdbFqJz0ALO4syPBghKTRob4gADya9ijBSPoeqHZwdIHfWu50/rE3vuvPbl30K098FZI4JIQ3BTcRPBYRBEvogKgz5tBdxkMobTj2mdabRvRPlOQyW3HNYaFwEVi2RijSH+jpkkEKTLmMBQ76+e6c9/ddb4rNv+Pg3f9nRDm2D0CsI8XeoeakIzxITjoYV7G5aW/bAE+mjL3jfFmhN5sA+4nAsSeeG66ieQeKZoIQrhYeJI6cOgGZR22g9Jg0Vp7lmorGmJrHZnFK7cfuLL2Huh4vuoPcRg0S2ywBvvEnlvwQd/UYYGEMMRAx9DJEfJT0QBkAtoQ4lL5OME888itPCSd92nf+ur/9n3K6pXYy9vy8HTV6EMEJkI7lWJDsgu/0mROYvWCUlPRFBxqI/iL2n5Xs6kn7+F/FM6+//97JPtIC7IILcQkUwk1Cc8oRULsp9e73J5IQACMj6I0+u9s4+97W7YNXdmvDSx6BsOAlVaAIQNQhcAYR5DX9RZQr7VUQJXimXgmuSKYkrAIQbB0Sl+IpDY9LDF/MgGOYks5pbd9Nue8bV7/vmdZt6AJE6iyLyqyc4RN8Ah4QLA7ysVug+4rD5m2DfcDg0MHOxyE9sgS+ByrnxcDlK+Q8nq+qFbQvZRaBiPYpnWGf42kzsF5CY0dy8+vn779slQ+GXR+0SaBHhYsQh4EQ/EQbGGgOyRY91LqL0IwxUwQDFbJ46ZvIuvqO5xjE9Hk9psy94e6xhxqyTsN3IFyCtHQlrZbZl8CDe1FUF6KC9AAOqWMdxcinDv63W67np/y771HZI5vB3ydJoHg3SzrVqTG/fHHmDYIDgMZT5OyAoboHXO759S26nV/MwJOCr8Lq7FApPcGCqxUv6yF/6D6b8nP/u1xGOukIBg3iwSDOzupe6Wys0Xn/XA8te5WlyXI0ud44LRRiOR+aVfNPt1Nbedb3TvWP1i7Bl+B6OeFmNKQFUCPHB38E6hTuJR8bCNrPiglEA99TDbgF6zDNiF3rJaR//xI+vmq9ZCdgEYDN5jvjIzOmYprqER/QTYWBsMRBJ6GOL/yj1fjFAwknZKZAVud5c4z7ttdo7P/evC3TT+oJumW8Cb00iGPg/SDEVsGIGXUrbFDoHdAF9ZjjOmyt1Ktaa4xTv/F1T/MzP/vaHX76wa+OrkNd5vjnDSEouFj0Vqbqi7uo+YMqAJRItBUSPFObh4DVPLl2Te/uZJ2zFwSKO7eePR6oJSOtBFOQCT+QtzAOfxQfkxUUQofaGf1+MTvEkwZEQkeElPOadhuMEqNYYsLzY3Q5exG9BT3g5o+ahPbGmn6w1pzz59T/e53UxNL8zEHGDm7hKJdu3JwVH3AEXKu+Xlz7qHnfCsXuStalM3oqfik+1yBfqHu2kGJ6jLXmJMpbVEdsIy8KLEUr1hTeUA7sBCANMDdvD6gdjy/v8yW9486vL77unS3PSoXIBL5GLMDCOMBAx9HFUGVFWKjFAYkuJM7gbdZhNbtAu/eHPm/J2/APYfOWDOGCjDoyEqvYgHIg1uBi3BRUxBYWvhCslM8mMg2jBjfwU8QDEd8HMV6R090c1mdbH/nzFdx3NzWEfNEH9RZbCoMM8rJQTACWv6MeVhWU4hCeb4L7nOM1de+yxdT1vPn3RZhjkcar3OCiDecg7vhbN1ZA0s0sWzCcwcygNXDAkwubJLAM5GHiLbAoGJ54AJYDHAYEwFRNqedrdGzjyvf7prDnlJ89n7Aff870bXDBzpGciJDEOR2QMk2MZREF4F2CZIUd//pEH3MVvfuu6LjOFKtOPxix4DY0gucZcpa9wy6jlTmAGXgI67gQs88y99CUzF4NDsHY76ej2QTk93nr2605ftezeW4VGQMImviUUBQmvkYswMGYYiBj6mKE+SnhADAguSemQLA4XJPQv/eL6lGNbF/rx+BchMzbhEvt7c3GZYNCIIxgTdOL0I2Oq5gT7U4MA3GVcSqSODmMrnNyZ2zbDzP2otmfXPd/+3Ce6NexVThZJBlcGMXgp86uW4GD9QoD4mMFVn+3uPK153gak7Hu2Mx9jDUik8o+busgnhEbZmUduLUsmzK1UxaK7PtMmXsVwAHHFUABoZhxu4Epc8OInakgMLa+nvIw15clddvOPXsrW3PfZ7/4uw/yBByIGQ0p44hFvw+EIVcAjvxUvuAvLd81/6qGl+aPOv2Aj9h1o8LFtLjYT4hgIwVhPktnyvbeTzDvMyBVDp8TOgREdzSdQcpTOnYLRVN0UrXvjk3fdvD4cT2WpdxqRT4SB0cdAMKQe/YSjFCMMDAoDpJi4BOEEk85TdAbXdb1CHFQbk6H4QsYNMVOql8lUwF4Uze43EYqmlLl5V10BJ3N7hVbL8K/QOnfd8j+f/gA2cxMLsSC8SX0388LQTENd/SYzlI+hfLch3gZcf35ul//k3S9sMAvxqzXX+xW89qDIkJaRVRjohaKIlGhAaMCf98E64o6XCfQZYOqcWhBMEeig1Gr4MZwYXvf3Lq3he6/mUne/7zs3dLei+NwEFxYF5ckwWXWVf9m3N8Kiw53sVnOFUSKq2fFefO7pzZClrwUy/o6rm3llGbiuvCJXEkafvwxdisF9B5RDrbPmXewuh+YX+IoGqUJE9wgD4wMDkYQ+PuohykU1DJC+lhFOXXvqntuc111wYadnJ8HK9ePAujh/LqRIGjYpgZzRpNq4DEAxFUpi4FS4YAxl8qQwSrWen3ULe2BZfk2D33HjDz/zsZ26UwCLoNiGzDg4SwyJkdQLflUddDGN/X4QhZBQnm/P+Ht1r33qouPXYqHVjppC5iBkfxpyxmNKZGGZLw5wwJhw0Ch8xZd+siG5k0yGJUPZYLzP4QCXbzE+oPs9Zn263Zpx665E84/XuQ2PfOq/rsvkGEnuN48HhZF+khrWT8gh0mdOW15Y7h967Ekt8brpW7DL22Go89me7trSapGJMqPVnKhBfKh+p1ZCHBaDZpJ0u59O5XZjlUPbksf/drc4a0ZEQ+y+oFdLMfKLMDDSGIgY+khjOIK/7xggtVRCk5ACMX3pZfUn772v+9QL/mGNYVjZfN472DSNOhfbjVBqBXlmLPJ1cmxJrytyIL11SPqYaQd8E0eGwVjay3nOZj2W/GW91/7rVUvv2LJ++XO+BV5FyZV3OsG6mAKvkXZBGpyj3o7r6W0d2u2PrOy4+OzTXm3Ktq3HEiqoF7SZYNsxBJUzDEAYTljzLcemWAnxmqZqfTl+EhfNDsTsBPX3OOIVywpsH2oQLI33V7Wb065osede9Uo2+eJHvn1NPoMgYn8A3hVn4+NwO5E1VJBIpwSc3sI2wEN7gJHa6qeX+zNPeO32mpradch/nWkbB7l+Aep3DmjEfA0jM5p0Iv94RAvBD/1V7mUYfkdLsnUtZzju0tr8nh835Hbe990vfqFTNABCDf4kWEYLg5HJRL8RBkYbAxFDH22MR+kNHgOSvIK4splidzjSXalG9p+5+7bOxW+54FXfrtkJtsy59CZ8xSq3olocsSXZ7ZWgJOSU6jH1amATWervC8/X5buumJbf+8eXHrpn20N/+CMs68DOkB6pPbNSZOa9AI6QBxMNcMA88KKy+f4lL2XPOOGYDW7D1Fe6DHMr/KbonjvdsgzLFJuisoC0+uY55YhQhCKeQz8cLTEA2KDuMjS2TzEM10y6jl6zudtuvL0j2fyzDe6U2z74ret33Ll0mZtleHG8K8EgR8zUSDmRd/7gCjF1+ih8kGmzTax/9GE/53RvP+aweWswI+NgPfxBqD5YUWJ7HtkkSrkU9R+8BuAVihhUjIN0t63WyN0dz7b+BJL5o9/94ufAzEvlLelpCEC0jBL86CnCwBhhIGLoY4T4KNlBYKBItXksJwQuvAtCSsnMy2hP3ftAz6JzLlhjxq1XsKV4BsR4CqTvOpBYsGnK5xXUWiUpPoBDQEj3HGeL6eV+n9TcK+u6d9zzw0vf37pxxXJfL5B44yLPgyMkZkc88MYXeo6kU9kP7mTmefIbpPzQM+s919J2zzzskDUQ059LuAWo4nFwrObUwmgs7hvcMVZMLIhsI2o4t7JgUE/ADAF4woSzDlTohoN4r3bnzD8XjIZrd+uNN2+zmlZ88JvXdu8BE8wJy3ms0CZE4obXSDpOcxSzzeyjysrS43eQMI87yXVprWtf8Z+++44957ztwlVZw15PVQO+NwAR2IlIcF1Gl81CwFFDNIFS+tAD7ch9CgvXfllTaP9VbXrnC9/74ue7YbsgYqjomJSQ7UHkaITxEKQc3SIMDISB8v4xUOjoe4SBscCA2P6VxmvcusQlFZfU1ao1tfgU9x/+5TJj9vz5cwuGdZRn2qfoWuwszY+fgPepBR3bzoC3g2lhYRXXkLsOrLjbYPT0PAzHno6b/hN6tvPFtq0bdlz/7W9waZrgGrqHMQHNvcG0yMB4UVU/VEcJf59d9fR4HI1fC6DBWINDHf0n/+89Dc1xc35dIXsoNBbHItWT4nr6aNtPz4p5TtzyPIOGXlBKYD0eSgUGnTVSWk6vaXMNbx0U8y906vUrcsmmV3KOtn7jlp07vvnzW/I0B8TKa+iehegqhkmiPDzelG4/iicB9PMryl+q7uppKSygSdD6nWey2zHtiz/8abxg1RyeN2qOwm7BZ6O8Z+SM+OE5I4GNDGSmAZ5TDZrl5wsxr7DBcp3nbLfwmO9lnitkO1Zd9bUvd2jZbpQZGMPBuQCOKBwqSpv+kSx6P1iJPkUY6BMD1UlGn8GjDxEGxgcGaLAlCCpbsA1Cbpv6ue/9Z+2415w5NRafcXA2nzwoY1tNTiI53fAcCOB5La4XsHNoZpfp5XfHDX+zXchse/bRv7fe/8ffwFi8nEFR9UpHzte3U1Jb3yFG7gsYGbPG/EFZzucZyM5ZTfX6pZ/80AzL9mfECjtnJ9w90+s0f1qt5zTEdD9hOnlu8ZZ1DK2nKz6jo1Vr2OnHE61Zz9i+yWnYc+k3rkiL0Qv5pBqMqHu1woxnrmbVapd86Rt289yZs2BhcQimEGblks2zPM+pxwnuMQvMGdbw7TGnc1fS6dpe6+Z25Pfs3PyD//l/Pdw7no6GBeDgvUtexat3oMgnwsDoYqA/ajW6OYlSizCwLxigubNF6Z1MDYzdgITm8cyOhPbPl/+b1djcXIdlTTYZdjJuFvLp7u4f/MeXYdYO7ucWILhD8kJcCwzMcSB5lfUIEPNxy9BRRJFXcl6UBc8p3Ci5wxEr3C+GOmf9O19+T3yqnYgn4rYVs0yzM5suuKZeWL5mY/aa3y51IIUTGzr2YvezVHNTbCUTHwzTGkwYmafR/zXRDvQ4UYE7CoQ9eS79zo9rbNumQYZlG6ab78llljz8t/yLD96DQR0agMN9Y6DCF9YKuLF8As+4h914Lnc4n9HzAYWBak31gEJAVNiJi4GiFE2qy5ZMbsx1W9SPu7BgwrKqIlcKGBSCUC+LKXfJrniIFjaSAb+Har1XbxjnDF1Vnco3ii0KJ/y50xlwQHRgtR2tECwMfHIOxjJQbqC4ilExNgwA8UujcMzCi8ERDcCkKz4oj7J7/1/Lgo7VC3ECi3UNkyksu/wRB7WhGaCcAk8ic5ySIDIqnMJv2LtXoPDH6DnCwNhggG09chEGJiwGyNTF0ZdkQCSyFMRAlXETPBvbyIF9B9/IskQYEUwIoSw4eT2DCWGcD8WLH6tRc8aiI7Dx5VgUmSM8UU7HrwWEsIwc42C/e82lcb9JE38RkkZiIiDMDeQwh/iaDI6lwsXS8OKYBTihD0dqotBsK0I/gRDiC8MoF8RXr9E9wsB4xwCbbOQiDExoDIjVxiHmSsJNPkxaLXmWLJ7w76+kojcEMRQAcoI+nWARfX4dzQ/Muhh7qB7NfONSr8yLLArLJ4266Ecn/AUAGb4UTn7v+3f8lL9qHkXhK+qTy9JZQFz8HJZoaEUhcEhgDBNGHv3CTiIp7BM9RxgYcwxAvxa5CAMTGQMQuiFa8WCOQAYrEmL6kEiXOUWk+yPYgqqDEXBmWbK7MhDj8aXIXwKxW+QxYF7Fb/1lPAhUCjvOmXV/Zan6jSULmHnwnT7h9tFrQFQVTuQZYWD8YiBi6OO3bqKc9YuBQPKCGCV4OcUpsW45YESk1oJ5I5ySygYDTzFzIduPX6bGohWZryony1eWf7HMr0qpFe7kJwyHxAM3O5VIozp64LIX06+SwrjwKmYw1CYq6lWWWeUW4Ypx4CeeiZNquKj0H+hdpRHdIwyMHAYEKRg58BHkCAMjiQESUbhiKw4RXhJj+he/MSBcmGBLn+A3gFXm1194BgylVxlvNN+LZUQZRPngIfzwIrQM1TITLm9oXTUHRX3GqQZnAvgV8YO89qp/lJcDvj4d8RT+HuCtCEcBD/wFHMr94Th9Ao8+RBgYVgxEEvqwojMCNroYINEME9LBpB4Or4gu/CjZctJdOOXPl3B4+XX8/gb4qFqOIeSaPEqhYgjRJkVQTlmUGLzi1gE2KtsJP5OEso2ooLToyKI5BW3oQMXjpGgME68QEUOfeHUW5bgMA2HmW/ZhCC+AIdT1KgoJ9HDAVfBG8z7YfJeHK/Gdcv/RzPnYpFWtvHJ5gDxDwML8A6cueMgNsGRgwZ/HZey8aFKnzOoEQ8ePmcJaAhyzKha043vkIgyMHgYihj56uI5SGikMlLhR7xTKvgUSlgpFGsxLhCFhD38HoS5KuirCOL2XlVGVZx/zWglrH8GMq2gDlUl85yAucEU7BG5QhBX8PsgkFvNrOk5OFW3GRtOYYltWrMbUY7NM02zGNQtLKGfmc4VmbIh/I3aiW+m6BZh3sF1VGzSoxKJ7hIHhw0DE0IcPlxGk8YwBcWIbt1chkSbxBsMmIRfEHIRa4w5hkMS4japwIQIf+ES3AwEDXI3OuufFXeZS3FkugYX7jabtzPG1/EGaVzPH0Grn4tT5mdipZqbnO82O608DE5/i+2Y74i7xNONluceRMto8EHAXlXGsMRAx9LGugSj9kcUASLKOfdIMPYGdPU2c01GL8zQTdZZZU4utYg3X0TJ5b0+nprVjv0/PBEPHVrCCzVMWoxtIvpOhot9JgAFWuaU98/Rz2rPPPnfy/33/F+du3tS20DDih1hGfK7vZet0HSftYvN7XHHI3RaVODqma+SmNJTHXbSqmO9gs3wOCnAUziTAS1SEiYKBiKFPlJqK8jl0DPg4NdNPkiOD7iaStamaY6E+PRN0+AhYLTXD3zJiRrulNWxyvdhTBbf7Mc9Lt2k+9njXHHymqhS3yB0gGBBM2D/xxKOmpNO5jzXPnP2hrds6LRNbEbo6TlgXjup3smrJqIV2Hv662rPAwFy7wUP6+loyeICgMirmmGAgYuhjgvYo0dHBQBLJzNBihr0okUh8HAz6Tb7mHo59UG1KTj7nRcVeoDHPMpI7TKP2sYKTvq7gtj+s+V2Q2EnExa7no5PdKJUxwgAZOfm1uOvZrKYnE3U1juPGTcPG0A4DO1zcZpin/EkXnhfHs2D3YPKwbscprmhXeJYbJATho1uEgZHHQMTQRx7HUQqjigFozTFP7ovlRHEtGUueG4vFvgomvhibl8e5ZQo16vKPZBgEmjpTX5uj6fa7LSt1nG4Y33fdxO9dtzOjadDG9zJqCjOAMGEf1YKO/8QEkxsgm30qQIjj0cIt02F6Dre/9z3P1XHEKvgxhn84pU+saORJfoJrVyuUyivvIhCYOZk7CjfZ1vSzhJEbtxiIGPq4rZooY0PHAAmqBTkq5ceMOt1O1i/yPOPLru+dg2NQabYeMHBCDk4kwZMfHEYijnnRrSMMM/kVzatt9Q3vTt/r5joljgOkKzKgMBEfLcYT5GFc3QQT6yNH+4oXwiTCFY77AL9f3tVgs6YLWjJFEdvV4nEuTQvKJ7bUlQZuxVP+ihI4ygmuz1cfZhji/BexQmJfy79fBYsiH8AYCFrrAYyBqOiTCAOCCYCu+lpDQ0M9JPOPGIbxOkhaHLgqlizKK9SnVKGGLn5AWPaJw7AM6cOwbp5m8kxtRdSLowASal5F7o7nA9UpXFTegQ+iZ6CriLYwKVK45X30nRFkBW1AJN6bgfefJ0r2kYswMBYYCPeisUg/SjPCwH5igE04fOlCNqqtrZ/ve/pF+MiJ9KFyBtBwfbFpWmdRfS/GAr1odC8PhDtAHYdKZcOlEh7Up2r3UijWH0OoeuSXoVYZ4wyfI1PmhQEhBiUqf6oUw5dOBCnCwHBigC01chEGJigGKgktVgbrNtiCpdt2/KRCoTAnJC0psa9YViV5qbv6wDjwq9M18zxMr4OKV3QT0nXBcAhybBmPyvOY3pUUXpYJiRf1qfedOKUETLV2AhfHXbzznYMozpBU4B2+o+lk2xnbPIxmeaO0Jj4Gojn0iV+HB2gJSGiVVEcUBAzCN/xjjjrB7unyjgYztiq0n4IVK4QFjFu9CokML+Q9Or5ZhmEehmVutYANyzhhLiWTLMY4kB8qGR1RS9TRGhxPAovED2y+S6eUco6DX4JxEDf6iQOQCT8Ldy7ehjWa2OSnABGZS7/G0EEyFzZtLBBc5cBvDHMWJR1hoCoGIoZeFS2R5/jHACVAOccZzqsLY6ZcLmclk/UN8KeoR1fGyKVX+FcyITIkMHKElcwKzxQXwXXEu2RE4WgH9HOlZoI4Ipqx74rYlQ8vwnTBlAu2Ja5o3oBA0H1YNjb3STQZhj0LKu0m4HgW9kzvyBd6bnWdQrdg7lzcPc6wLpl6ZaZY9kp8yAJHvxEGRhMDEUMfTWxHaY0ABiTzLQE2tLlz5mk7d3RgrXkgWqmPYheQyvDqY0kCk1K9ULWDShuk3mRClVS8FDF6CjBAcsLtUjmOioNnp2K+FotjHroWjHAmrrn4cAjuh6AW5uB5Bq7pwG4zmHq9ZuTu07X83+DXI3dqGT9MUhfL1lR+UES2BtUiRNNgu6KHCoPHyEUYGGUMRAx9lBEeJTecGCABVWpZElQpsW/ZutGvq53e5XkFV9MtS+ypDd7u8XwN0GLpJGNX74Jt4wONoKiKx8EaeMulXT2bRhqIKEYDQr4UdFvBUUQ9gHrg3iQjW7VqTerLl3/96IcfeuK0nKMd7GvxI3TDnwdNeyNwk8K67hQWEiR10wSqDaDax/QGqgkboUvjs0A9MuqMUTFiQ6Ss3sL1KaXzkg/PXyMTly0JT+Tzql2o/Kv3qJ2UEBc9jRgGIoY+YqiNAI88BhTZVSRVpnjaaa9xt2/fvQYq3DwMqyzPw27usRiYNF4pbItLhiXz5ruUyrllJ3g2wPmag5FCfrXrZQrY352RJEmOCLNAnOJTEovylzuZH3RQ84yD5h3y1WTi5Te5Gcd0PQs0BqiUCIaJIQddiA21vOd62MMHa77BBXXdw5gK8+ayfsJYLuE+nNiwPKt2o9pRCahoBxjtkYlz0CeZeXmpMR5B3rEzHANgqwLeuZNcJeNXUOkv25vyie4RBoYXA6pFDy/UCFqEgVHHAIkyp2sd7cY//Mo9+pjDn5s1e3oLhUBuFuK6Od/AHtvibGtxohrDyssQlk+yK7geNvr0Mzi3Jd2q6YXHseOXUgGMeokmaIJx8OdGXDRZxzmjAbPUIc/iGdK6YJBUTZO5eV6JmSrmWaG2DjP3CYqSKNsRBkYHAxFDHx08R6mMCgYkU9c11zvmmCNXHX7E/PtSNTHHxJ7tPqRzw6SExTCQqkIXs6bDolnIX54LSavg1NRo9+OozKX8hCtgKuwu4QuvB6yrRjoEc+YPcCa+Y80Bn3zycWGNIN9Dz+L7BEIi16SLdemqHaCoQs+u7hOoLFFWJx0GqvXKSVfIqECTHQPkIeS5vDuaZenaJz/10Za3vOVN1y9YsOCFVCpFBqPLOXSqfBUxxiPjCKMmCSOeMPV4wno5kbR+mc2mdzNE5IaMASJTOeA+chEGIgyMBgYihj4aWI7SGAUMSIaMWUqt4GTAprPaJz/5vmfPPff1/3nSiac8WVtbh0laA1Ki4Vu6RQM54aDm9bEBDVS/PIzDdVKp5DPzDpr1H6eedvITmkfDOCWdj0IRJl8SETOffHUalWgcYyAyihvHlRNlbagYkNI2jZNorR6PJXJLH19xz2GHz2xtmll36SuvrH7D7l2tszo7uzUrZkAuz0EX7On1yYSXShnbbTvx4Nw5Tb+wY9qyW27+AybYCW+oeYjCAwMR1qJmEGFgDDAQMfQxQHqU5MhhgIZW/IMFNdiKo5115jE4EzP25G9u+P3qY4477LQ1q9eftGdPyxFYKTUzk+3U4gmjA0vUXpw6pXHZzFlNT//kRz/aK23eocJXS9VGLrvjud2NAABAAElEQVQR5AgDEQYiDAwbBiKGPmyoHK+AxnJWhWrwMXCcTqejnMjLy3sffP97WiG2393a2v7gihUv1G3dvCXV1dXhHbHw0MLcuXPbjlq0CFZzjMThQNGFHot+E+uhL1l5v0tWsYkb0wFMsQJNHC+v2p1qA+o9QJ+wW0AEZQUv7B8UakNh+8q/CjrY+36Xd7AJjWC4SlyIMhFXYRwHFRH4VUYZSu4mA8qGUt7JEDZi6JOhFvssAzv7/nTpPgEP8kOY2Awyyn4GU2uAKakLzgxRXDrc8T9tSjKHd169naKLZV9CzKXMfwK89Ff1ld/2l3oH8bkkm4+6ZuGCfTsZi7ACD+FLMHO+E+GVCTNjwDm3jy2GY9j9cVUrdn8AjmLcij4UrjeBOhp50rGM/Mj98eVKywCTeFduaHhQoStrSEGL7uMPAxFDH391Mow5Ul1yMCBHgnENJf3B5HHgMIKRlwUbhXKFiWxZ2oN4GUlqSdh95W040g3DDsFTg6pBlH6AIMPYfsJ5laoYmXYo3wNkZow+V+CgV345YEUYlk8MXsnMpR+DVsSGz9CdQl2vpIcOKooxwhiIGPoII3jMwaveWJmRXr1zOLp+ZSJj/U5m3hcCBpO3XkjqHWl/wBOaij+IpHonPgifQcOtNvAZB21C4WcQRa0apFf5g3JSazBsGoCqKQ+/J8ui8FEsV8DMi6kFDL74vn8P4VahWkMx6f0DHcUeAQxEDH0EkDquQB7QvU+RoP2pkTBJqwInTGSrfB60lyLUlRFGrf72AVfDVfbKMoffh738QTkVvtWZ68OeTrgQw/hcLZ9lfuX1WPZJaCZYcNWmGTYcojwuQ5b7yHLQPxxL+ka/4wEDEUMfD7UwYnlgx1WUSybC3aYrJBN5OIbcZ7pXP5XbcUoYfIZKm2eFi3C91dsisTAMRCkGH7FS9gtYFBizuCgCVrJhvTmIUTiH/Ubu62OYIAKuZAomtjGtRv/6Sy1ArEinejgZYj8oqMxrUHdBxrHxOCDSTzruSR489r5xkpZiH+MiFPd6CxWz73i9IQ3sI05rKRVW4XngiNVDyONTgm/yYB0VcHjzraCO8J27GeICWtjU2LmQYNAd0dC5vS6qCHXJekI/Rz2JEMwW3sWxtjwJj3jlVcBXquhFe0BY+okPwuKR9g+MHnYMwdoP+09IVIYLNYmeI4Y+iSqzd1HYeW3V94J+h/MxhJESNzanAw1FF8UPw6n+yg98BzcmE5cmySQgkokLAIA3UFfOI0Y2IDgEOToukUho2WwWiYEXiTO5WQ7MMIb4UD85UfhCEHHKWj9BBYE1PM/3LDMGEuuE4opoRJDyq4KsgJASjwL/eO8ndD8Zqf4JBNowbc3DOTMB4AADwpAKzQBb6jFlVqpKtwISah4fyc9Jx1nvg0NiBZjBvpK7ABlIhqfXivoTTGaw8cvD6cAnsS4NIwEQx+31ciNanl6pDcmDKCg64IF9EbgRRw9gm3ycO4/yxIMQPCWQ5WN5iDMZHtvUBlAEHvGD03AE5+YAgFGxoxIbOju6rFvCwDOqXdR7HmlygyWpyg9jCwEiN84wEDH0cVYh+54d0WErouNsDK0WPbX052Kfc9kp2bENywRBsA0rbhpWPTZjmQYAdbjqcdXg4gEbvJMD8OIzyYCyFCeodlxtuLhNaksun2tztUI3nvGtA1ee4Sv6vswB/EfESWZOfMRA1lKUU+T/4FJjXllWUDAOCqobxAveBugGrLl5gKbj8hgxU3C+imQqys6vqvxEDRxpp2A2oK1Fq3zmX4VjILgguHjuBTVc/6V4JNe6ERcb7bg8QK5YFWAG2DVPR1HlII3xK4ESDs6qQxlFXvQCHwoiu3gYHhfON8+uFe0SWUFhfW6+z0HpPjrB+VgGiwXDRWSgiooFKOFpH1MYpWjAEfGBdoay4FLPSTwn8RYzbSOJ/ZRcu6l52pRCwZ3V052eiaNrp2tefAqGs+jPHgI66M8+zOA9LEGQ2gvfEycVZcDP2zEgYF/ehgHcbrSJLb6Wxj2TK7idnu5nRetQLYQ5EG1C3KOf8YKBiKGPl5rYr3yQ/3CZkOro6j0BnwQoJPq7YdRAXE6APDZrpnUwnudDfdeEeIfhWxMIey38UgBECsphP9e/UAUal6N38RxDGKpqybhcPuOumDvODdc6QS+2Qh24GnGewhEoqzwtthlBevANYRmNTKU04sfLCDhZ/osu+kfjmadXztm7d28tzuE2HNfxTWDDMHEZlmByMnFF2HFkC7SMnp+F0J3b4Xpup+/l1Meq+fQQ4z3vfu+Mxx5ddmhPTzruQq0JIgklJpdssbyKBJZHJ+bwXUe+8tjYZjsEJRDSrONpaVYi0CcoeHnk8rdygJVvguKSAUCS8wztc5//19rf//6Pc3PZfIPr+gmCx0AEugWq0EXdSghqXbg4hATyIEI4XlcWJ9C96vlOh+ApQ8lHOF+iuYQ9is/EMRBmpkwrdahpW42m0QgJ0oQQiW16USnARzDwKMYZ8IH4RWTfcdMtrpfdI3Q0xIsUTflATA8IZ3wEkHXJrvmZT/9L7OG/L63fuautxjQSsxPx1CLU6dHYV+GQ9o7uuajbKejXHHwnfcPloBz92WOnQIH5T1i8ijfo4PSCrhs54LkbOOeAvB21vxmDhScMM77cdbKrXC/fCqaf09F/cbwwgqDrE590EwWNMreT9jdi6BO4akmXJD2Snd0A8TZNSKV6ImVoyVm6bs0Ggz0MjJcMfCGKeijuc0A9a/GMutdtEE1QfKqkyYCK3bMqVkTfRSBFA4M+TIm+6MAwTzYNIdqmNT2+zfenPuZ6uSVuIbekoHXvABFA8jmkRemXrl9+KYNU/WWZS3HLccFmbWtHLDju4JUv7Plpp+GeYZuCm5AKYdwjphHE9AHwIeCQ+Rp6jB9907QdXze/kk53/laoflWBEbK3M7Szzzpv3p6dXf+3YsXKY/JZTkiaHggt4Ds65c1qjrkBt0FWgHzDWeJ7hcs9vWMtBzvcV35YKKSYM41pf73jbuPeex54R9xu/Eqmu3s6pD0LpcRoA7kj40ZWJF1GXmTtMlfwk2eeWrHYHZ7W/p/pbK6DqCA/ENhkLoNGQCBFJiFfBvyVuBfBAJH5MF5rmdZfoQhyAJ/n3go+wWYu8iczWYQbil/0K3/gVLDj4sz1qwqu9gPHdTMajtJVpZVpsgCldlQef1y86YZl+Y8/usz6y833zL3nriUL77v3saPb2zLH61rqyGymMC+T7qzDINJGSTDgpioexWZ/ZktXAzRRFFHX1ZoWMRtDLGyIrJf6s268xvdjb7HMZIepe8s9r3Cb7+UfwABvo+ZTqHcBHdNSsg2o2ilrEeMCgwdQJiKGPrEru6wToeMdYRq1F0HiPhoS93xds+dhDnmO6KyynBTLQNCCLsgnRZMDFZwMtt+/lPApBU5Fcsdi3PBeO249GjPit2h6/u6edHuLVE9TuM/jYqaGjaiKMgEg7xy4NAM6pxKYCB0YFYldQIcCDJIxkWsIzqHrBdypoYCHiibeQj/0Z54d7eKL37myqzN9W1tbz/GbtuxpzOVdHxKTbsfiOIed2oi+HDkjSK9hvcW3Yi/5fv47mptJS8UHT4/pKx79SZwDnIkyBM8qjrhzNGEa9z/w8ElLHn30c23tnUdzHMdPGMjJymeZVeGFjyT6giegbDhKdpXv9/wpW+iACpYDjQAlAKKSEp779RMwGjnFQ4lS1QMLFdSQSCD8PGD6HHSgL2DgYk1F80alo1ZpMlIWswykSGRc/aB9eJjPWXjkotfMnP3Clzq6ul/b3tYzQ/NtDkiDwSlbszCSwySDQBnHYqIYLO3AA59SicvbHGsY8zWaNlM3jAtMwzgLNGWZ6cduB2O/zXG7tnouhHk/h4AFERhheYcLtU/pEf2OAgYihj4KSB7BJISlMqVrdCDdNFIXGFrdN3XfrcGhIxyloy+rOVLV0cRdUbGg85URzf3NLmESPhgVDXIwFaD7DVB8XgDN6emxeOzCVMr6WSbd/bindYDbkfBIRrG/CZfHFzgROJDERQihzJsgg9LuhzGQRaGCxCfBzQPmAsyWwwu/SWIZEC199pyZhTWrNt20c2f7SXfc+cC7d+1ujZFJovxg6AG8cHQ8UxYOHAcYCVjK/5Nu5J/13PQdknGKqsFP9fgSxQoC7gSH0JxSwGACr4inx7Urrvhl859vvuUTu3a2noi24HNKQTJzE5gnKogQkRaemBYHAcIoCizQ7fDd9LW5fMcS1+eMSpCKCk6f/SLcobKJnAiA4R8VQKWo7uEwfT6znMAJCwRpn9gpFrTPOOPyg2H4NTWx1KHzF5zqOtrMbMbREnHMn4NpYzqCLZV0gFXJJ1EE1qn02o8SSVjAH1EoWlcdkHiersVPQdN+i67X/NDQMo/nnd1oHFTesHXJkEEcvKi+QhCRG2kMqA4z0ulE8EcGA7ITiw6XRPezKZFyrlx0Zt5LxFp0NeZC9vhSfirfS1/27akIj2lz/hPzxPTD1LU5vbOz8x1Owbu2rm7qh2qS06He47S9mK7ft9R6x1JEv5gPBAn7hf17xy5RoEFQIgZxQbIK7oJF87eee97rrly48LBVJmy5MKAKpHOGqXLRDEFcGHOAMKPyDoXx2mc1veYwaD4VkWb++sivKhJC8DFIAuiG4yxKQvvjH25NPLr06Xds3rz9na6jW/kc6wFdXqrZGbDkKM4CCNoMHJ71HE6Y7b7D1TpuxPRIH5aBjC4SLMEZmSfiYF8vFgwDGWkE1jt7o5L/3skOxQeViqHxrtmzZ7c1Nk7BlBD6NSRiTs2wtgJQLKdwoT6vvPb3XoQNQEQYGfsbTSP+M9NKfsC2GtCP68D1IcwX2xY1UxMAt/uLmXEWP2Lo46xC9i07ZIhgjL4tpMJSHx8QmiIGAwbchwACNvNCSVXlqaamzojFkgtAX78JO73Lk7EmGOZRq0cpYFibI4nQvpSPcYYSD+mA4CLSwQfPe/aM15525ew5zS1kinIZET70ciR04QtVBwi+by+O2VM/Y+jxqZAuRT6AtzAx7QVJeDCE1NIEMqhY3aCtfGndac+vWPkpqGinpdM5LWanOOhDXQiJi1Gl2lZI5BDIoVGhQR+Mn/DirPC1zM8KbsduGAiKZMTPwLkphR3jp2GRUse4DEhedArX1fZgQLyzqakJR/5yoOwW+xTCFNus6m+qz6l+t5/FKMIP8oN3w4Th50LY6vy7bTd+zDZnpHQsgmH7Eo65ZqzIjSoGhpWCjmrOo8RAxDFjAiP0knorPGAfHwhSBIX34MKN6kB/Nh4+a9qxz8asBljlUrlAxj4sTZKkZH9YT5iADYhIGtRhqZ52/MnH5E4//dSbTz311D9NxeohaieqO5ZRXXikpG5kyF6xLMF6r203vB0rB01K2f07MmYSUN6ZVi2gzsNbo371lVcf9Pjjj3++paXlyHQa9omaSYYdMIGgeFSp8kIs1g2diaXpULW3eVrmF/lC9wppoCc+RT9jgwGMDC1MpWjddXV1u5uap6Bdk5mj4sRYr682NtKZRbpot7Cin4e8fMmOx95n20l0YLZFXMzW/vTAkc7+JIU/LNRzkuJmnBeLVUfJnGtRg1HxOM2xYha8BxeXvHlYJjMFS2Q+AwZ2iaVPAzFIgKuQIIxps5ScbTC4LIakSlSoq7U3vun1ey+66K3XHnvssY/V1tYihGLc1e5BIji3HSpuvIAK+rFmw6j9hGVOO9rQkxAy+6KKTJwmMOFBUD1o6Cx93erNqaVLl37wxRdfPj+byUP0l7YUnFtHQkgDeREb7sg8cb6dUjvTwpVF1fw+X+j6i+ZnwTlkFPxGbiwwYGJchz6BufPCtGn1W2bNbuJCvOIAbCyyJAYSxcEENi3S/ZloP5fZscSZuhFDo+QS2jHvx2OCmrFOlD06chMNA4LIct6VuzhBsguWgrsw6OUsqQsjL+5zQkUwZw4rr2JxwWCrsgtayHL0jbvLueAql5z3ZR7kJaxqxZww16gyX3mk6yAPnGMGLCRKixmY8OAyYbIHtiEkRFgga7HL4rH6s7FsDME4tGcBOUjZp+bJyMrxOfyu/PfzjnwJQzrwxSAFTyzF43L7Hm3dhudfevs7zrl61pz6LZpOyZvMmoZ/ZNhVsiPU5SSAcDp3mzOw9C/5UdOsmarpHLAF30QA9UOMEibmKkUeiK+CNm9Wo3bVtb86d9lzL364tb2zlvZx0ILQ+o12YYIMF+sMMYS2BMURzBx15vodj7l+59We09mOOgWXRyBeI+FE/SPfYnkdEqDmhqgVAz+uqIP6H+/7fAEvHgcpAC1LzralCqTuI1GwYYQptDyudsWV1zs1tdpazKNjGR4GYBDZlcOuL+hr5VeR6bLG+7yUHUf4XhFeJdLfHVN9mpc6QvdrL7XNxmZsZ8EUIzcGGCi1ijFIPEpyPzFgYA2oSWbBC4xUMFcSLzEfyx1g+k2ARBwjawQzsUYKxBMTdY7DXSA9rGfHbFgihk1FyJA9LYsF1liMBfOvgu/AGIcs2kG4gueCZkrjN/RqmNaTwQSXYmLIhWAY5GfY5ARpYe4WC8MFIefyqdjhmIv7FOZ4D6GwCIaGiwyqGiPrt0j8GKbU4ecBIw4pgGDMQfchmnkZWIKn92iX/9snnNe/4ZR73nj+6Tc0NdWmLSz5xtojzcK0ow7mrbSl8pnv3LgLa+D5jepU37Ahnf8TVi2819RrgAjiIjy6IWPCFQygUFn4GkcOHO3yr35m0VPLnvj0jt1tBxfA71FFmBcvXrIepCQumDkB05GJot7We1rXT3K5tlfEIASL7+TX4u8w02kIcx40DEJboNKQmg4WVwz+eN/HC8Yb7AsovhgxsZAqkYlzB8Z1y9O/+K+fxN4G2paZTc35xsZGL5/PY0dfDuhE3bFBCANUWY+eXyjk8O6wH/uWZfiOk0c/df1MpofP7IGi/vmdz4zNNgWUib7P/o85e4Id2GEJnebVoKJqLzD1KRdj+SxVR3QTEOEy4xP1N2LoE7XmhinfWCetO24WBi4YFIARYzWMjuXT4rmQ7zJMGOAk4qZmQfMHuRqGVejouNOK245h41OstwI75yCADh2YTYqEAIy6ZHxVnlshmSEo7mIw4BcMT8+fY9r26zU/CQDcqlMQmfJ44/IN2WVWlRM9qgab2izuPPnE1/365FOOX5JIxjzbtrRcPoM5B9LecAQVsfwOvEzFBjeftOya1+pYfgZ8koOXByKuiUtMYIBn+dddf+OUR+6//wNr1qw5q6O726ipqwOxBj8HrSahp2RXcgSHfNAsTuwB7vRoRu6GQqHtYU3LgAcOnMcSrH19Yh64Xz4tvJgedDleTis4adw574/NfjCMxKYm/V2wDsAAtMrF+BjkoOQ0B8dYU+B+X/M6VvGgYfCwxlsMkrXd02bUdk6dil2aUaOxWEyzLFwQ17mnHluDhR+aQYCJe6bluQWn28P0iWvjqAHDLOTrG+KFRMp3rVjBs+NQlxtdiAgtkpEzYAzp53IZcQ6Cw2XlYtA6ULllm4IwgYbo1cJQ493I08FyOkhU6kAAou/DiAE1khpGkBGoCYEBSoNgxbwEoacCHEQhFgd3NQxwdyuDL1nbTuQwF+zBz0ulkk4mkzGwV7qZy+UThbybgjp+Si6Xi2ETFW5jCpkORJiSERkCBG2S6eqOhIDMjU4Q9imgLu8z9foHXL9nk9xHXX4dt7+K4Ck+y8JCHpRL8Zr8y7/0jXVf/9Znf75u7abDNm/aczh23SLrGsgRCiECunUUpPTPWHb+1UI+u12q2AmAkjwCiPSBR6xTXr5+o/Gjb/zf+atffPn9uUy2Frv9UuYCL5M4FpIb4vR2ng5Jzocx3D1Ooed6z+vuotGVcGgeuPddhb2B7YMPCyG2JUVcjAjJlzBYZJtw3DzSxqZ2+zi4MKHBsLCxDARNyKEeFuEDnOQ/gM+i0Y1w8WQi+/arssjY7Kum1pmqMTfW1iTmelgKinGYV3AdGEj4eSjlemKW3WlbZra2rqEjlUrsTGc6tk+f0YA+bOenTp2ah3FkDtK9Ho9j30Rdn4pvszu79h62Zeuu5k0bd0zr7MhYXR15rYBtlbgPj7S56C/rQKZqg6gvPmK4f4RlxBdjALpW9GvVlvoDE30bNgxEDH3YUDnxANG4Brs/acmUtXdGU8NzjVNrNzROrWuZMWPGrhkzmnfW19fvjcfj2NXN6wIjd3p6erSamhoDp5nF2to6poNRzdnb2nHcli3bTijkvOM62jtnZ7PQKoMAUzofIqkEFbdOsM3a10NK+5UgBhzgDxHIqNaCEkBChBcT1rrvdCPX2/St23P+Rz76rgc2b9p2481/uvPfNm7YXmOZUE327xQ08iAQXv/NUGG+zzXrrvDcLsxlSDW4RAtBcXoi5v/1pjuPW79u02Ubtm+fU4BRkoGpjUwu4ycx0BIDtj7ShHQOPWtmjaulryo47ZsF3snIg6nnPqINjzenDMRgjqXh8MPtnDKldk0iYXVBaYxT7ERbEgPNfUmQbbCAbft6Mp0rIeFCC4D0iN3x3KbCBVX59LEczIP9qKN11dY07pw2vQHjtXRXLO6uR19bZ8fMtclkfG0iYa+fP//gbV3dne35fC4bTxqFk09e6MI6Xlu4cCEYdUFbvHixt23bNmhAClbjtAY7X0hP9T37+G1bd5//9NMrznlm2YsLN6zfpoG56zydEIc2hXMknwUTV96qOYs6RL/3m6AweB2mif6Mtso94SM3ihioUlujmHqU1JhiQKphsX76kDkvfOwT//TFxWe95pWjjjwMVA8iEue3SQC59zWJbi/Hjmxrt956z58z6XzTbbfedcaqV9b+044de96U7snVxKG7z+Sy0AAMPA8npEeYvIMxTbWtxGLH6/mz43Z2gjpMAOIb4CZgFD4EJ82AcZxOpg4Z27CyK55f+/u9rd0n3X7bvW9r2d3jY0CkOw7EKzCs/pgtxUkQW2zakfgopkFfzLv5+2AvoVvxmO+AP4k6gqr9r7ff2/ynP9zxsbWvbjzFT2AuHcdcJ6imx5R9lboj5YU/xWCP5u8dupG9JpPb8YiQzGVxFCvpVevD64HEiDdZy0jTW37mmad95bw3nLkDanfM2bi0uJAh9iVhtOG9LV35v913R9djT2xNo8iExeHKBGhXzCP7GDPbiEzP8Xfv0HqwW9xfsc/BasNKv2zG8isPnjdr03PLn21XywtXr3kU4Utu+fIlpZfik6jevJiC0LUOAN+Uy/t/f/Obzz/h2Wde+vi99zz49lv+fHdNS2u7GJwrjZscqKvqYN7ognt4OsM3jrLMxDxoWFYjQNBBRODoZ4QxEDH0EUbwWILvlyqLfokV1NDb7W3fk1766ENtn/jEeyHFFNABwYSp5oQEX1S/9ioIGArcP7zzLVBkGjvA3G/79Kc+v2LJI09s27J5x4cKTk+tZUHtC/mqV1Thofo5cwmioAyjdP0ELH851MlYKzCYYNx+i1Ed9ij4CulclSHIpSgpDQJVlnHXXePEk45bd80vfnvFq2s2LlrW9dKiTCYLQyUb85zYV71SnUwiDuIo/eUyP8OILYRK/NNWzF2V7slvcnLEPZmT5S979gX7mut+/86lTy17VyaTszElDTaGE8qIdlw4IBVAVH4EXiROaZ2o53K+3nM7bCX+AP02gcpvItio/jBdjvy6777nri033/KbHZrLFQPEL/JeiSP4Ds6RvAGsgbUfnOMFWhX/GVz8sQ3Fga4sOgXd7dpprz0h/dSyv980bXpK7+5uzXWnNW9vy07oNmgjAY1YEU+hdlm1+wTf2TyBInZz2Hl0YTD6CCT7DYsWHto6b+6Mj/zsZ9fV7NmTEUNtziTRWFYuRyNeCIP9VrZX8Y52JvLg64ebVuIIx+1exZCRGz0MRAx99HA97lKi7AMxEUZwthePw6wVZjGCgYszuWlZDf7e7wCbnZqLm7mrmetdedUP1r/33f/8bSefi+/YtvdDJjZuL4AnlwhNBQrIaPAv+AiXvkAjAKKxAMxuEQYIYOgwmNoPJyT//Yjfd1SWO+RULsmWFPPks3Se72a117/+nEdb9nRc17Y3/dVX16xrzOexegCEWEnoJUJJIikwIvDGMgi2rhtvxFr3Sw2z/r9xIAbOWKVO3NZu+ctfT3n2uecv3bJ9V3MK1NkC7yIP50qHfuqOIQA//Zzj7v2546R3MxXUkyqJyvto3MNp6pjWkapxi00RDISzN5xV6NuF45eHAgPitDlt4mgPaFomDEDRXoMY+yH7l6cz4m8wa8ByyK3bt2hz5k6VB5NrhqV7Bq0J8Q0XysQ6pINeSNzpyU2P+nJEgxiz06rVoSYOu1okYpsLhfx33/WuN0zbuXvXe3574112VycHV8GAoawqgNQgTcngCQHOt+ptK3V4LifUc5QKIjdKGGCNRG4SYoAEW/Q9qsIqL5SXxD7gPezXuiRzQXMQBK+CafWJIzIlsegNIRz9jzffsGvW3Oaf1zbUPp3NpgVT6jMqPohBhQgg0wYBwhnP9jGWnYLOWBGm/iCM028ChyJvFJONQ+fPyr39HRf88XVnn3FnfUPK4YogiyQZzEoxdVmSAO+sM64fAAYdrAzM57VkvmBckoxPfTN2kUPQev8Pf/hr07PLVl666uV1x8SsOOBYELLUcWJkZbjUACNAE5m2j2kU3SjswF4Bv8JucM9DE8JE2VzKyHUQZQRuTC4op7gHUwMocywGG20wYI2n1HH+AoNLqpOHfpGZk5mRn4g1GDTYLNVKn6VCvgQmeOelogT5VX2pz/jD94FlR96Dq8iYgzqCJaMoG/1xqXzhK9fcy4sqiRKEymd8ohPjAFjFC+4MHGEayNw+d96cn1900dtWzps3Wyg5WHpxAXZpzTvqxcBxv9wYKXDoz1yVikqMH2oYcR7UELlRxEDE0EcR2cOfFHuvIjig/5C76EiDuL8UqCHEGyHfld2xYzfG29If1B1dEJu8yN5aorOCFFDFFtCPfjJPYiuJC9e65PV//+rlr8ya3XwTrOO7AL/vmIKbEz6boaAnKA49jUWJeD3mjgdOu2/gpS/Mg8IDn/vNUyna0J+IQxZXXfIdCTp4crWjjlyAA1zOvPKoow9/PhZHecHPqyYC4qy0C2D2umnGdctMYT6+5hDLqPtUIjZ10cqVW+0H73/ivStf2nABjrM0TQ/rrUV1UVuC6CS73JhdkmGRTFBuVKmXxTLFm/KFntuRN3BOaXwW5LxqlkbGU8jPlZWMd7QBhbsSNhVWK+/9Zk12CQJDKXFjc5QXHpi8gtYvFAaik3DkM+HIdhVuU+Fn1oJyrM8A/8prCHemy8yLG8XukFN5UgUJwgYhQlkIxSk9Ct6PbLouVxhwTbq4tJ07d7507HFHPnjhW9/iwkpeRMAUUVnKMkNq0KFg8jwATtnZBycTqTrVjtXX6D6yGKhOUEY2zQj6cGGAlCnk2Hl4kSVyxzjBL/FddfXiHd9I6um4GxefyzvePjaLYCRx/vnnFGprU0vi8diqcrgyzeq/JEQY/QtDMWthbS1Mc8W0avXQg/EdfNqDgbYPYQTCgUsxz0gpJqfVT7Geef0bFvMAl51CJgq4ishrIGVJIgxlarEagBt+g8NGP4uTqdpLr/nldRc9/sRTn+jo6pzOoRyYBS+QfdUmgjgh6YnxEQZian6J47X/wsl37aEUTG9+G33Xhy6dDXe/HfFF/UZRspUQh62kEv5+Z3NAALLeBwomBymifsXAgeVme6ggEb3ACBoBnMj4EjmMd9C8g7tqa7VHzj77rL2zZs+kVTz0RCVJXABSWgG+sO+HHDB/EJrlQIcRhGJEj8OBgSLJGA5gEYyxxUCYgYmOOgBdLKObwqKWzYEMCP1T/A2leQSJUROIx7e+9cL1YM4vDoQRxpLimCRcULf7+ZzTlEkXZkmpfSAI4+w76VrxoqQCmiZ2xKNaNKedffZJDqy4bzv99FNuamioz1bmXtYhcBFI6XyXl5IG9Xih4H7gzr/e852dO3cfGTBzye9DlQ5tPWc9g8wAXvANCv5thu78NJfds0ozaOAg/iqzMcLvQTsTqahntjv1PJLJM41J7mSnCgqpcNpHuVUTCUKTmUMnhIG1oedz2losg9t4yLy5Wgx713CwXYk5tjPu5VfuRJqN+BIx9HLEjPhbH7U84ulGCUw6DJAyBB0b0sGXLv9Ct2Ubz8CztVdROZpXl2I6gQRKomHCRBZWu/Mwlzex26dYZy134OMgJ5CyzdecctreCy9827XHH3/8UzjZTOJNMHBiinhEUCGmE5+4xPppDggkjqH6nLpt244FXFcspTAZR0Qs+wH6xGACi78Ix8h2ambntZnc3gdlXQmVd1mM6GUSYIDNodgkgjak+uYAxaM9B2wxEB2GH4bW2jjV2DZn7iwtVYODAKXqqAQBAzAxqdOLzYsgPIQApyhGbjQxMLEJ5mhiKkpriBjwNOxOtQZEgCa6fThFbEqf5fIb3cb0bzM40MRunyR0ZNiCmeMZRNYwbM/3XB2b8rzy9re//ecnnXTi9myOxoOehv25wZ+pJoVpIFaRYXAjGLFUn1KFKnbhwxp2Wm1zyRss4IjCMlVLCZdynTrnP4lGGDro2Yddr/03ntONTeeRGdrMVSfGISDR40TCAPsP69vQbbQR2X1UHfNVansYhrYW3DAWmxDhA7/RXoNlhREmfi1j+/auTowZW6ZNa4RRZl6zIaRjGSSXQoqLYYVWRWhWxJvwCZ4Ii9abkRtFDMgaH8UEo6QmOQYESaB44GnNzTO2goB09ltiIZkLriSC8UAIMDQTPG0aPCZP+wwkJjBlcNGC/6XLP+Ze8Naz7z319GNvOPiQmRlK6rDwFqGEXWBwvCmZu3Rq8MP74B3wDwCY+9RzL+t67se5TNs2zsQLb4Apgh88yCjkeMKA6G8qQ9xymWM0LJ+AcYzSkMs6hjTt8UCkGMLgICAtBTacBGtOYOkqB4fod8Kwkuzfxk/Cr0nVcS1bG/aMFye8oS2WpaZS7efO850jN4oYmDwEcxSRFiXVBwbAOqSSnGpkX8PWsa1gKO19hK7qjUXHNM7mQrhGyAFVw0wYT/Li4sWygOBy/xa9gEXiaW3OvCk9573hjOuPPW7Rw7Zt8vQsBOKcOdeQc8cPRT/BxDnwEYOfoPT8VvzeL0YA0N2LvfF/lc60PQbGDjGfxmLMWOQmNAZU81B3URgLNcs1LjYunOIHiV2uS8epSlqcjBpieBLPSYz0EsIP/mgPVLNTm2MjfAIwYv5jS5/iTE0OfdHjJkhc0hYeYytJvUovjRrXGDWsCbzQd4wwFiXbBwbQ1+FcYQhLlZ6uLV++PA81XiZY/ysDMJBiRDTjLjIWKXkKiRLLueANK/eJztFZWOUCydrEeVge1n37OhaNe86bzz/v1R//5Oof79m9d8GLL6xeUIDwLFSlQIBEE1ctyMGAgEQsUsUpsAlxTIwY6AcPMcfOUAqXgq7mdT1zR8HtuMl3Mzy+jIH5E7kJgAEOaslVKTcXu4qoe1GRst41CsLsc5b2ta9929i8eWts2dPPYRN/L2Za/sy9e/fOtK34jNbWtjrASGA3mjiYNCOhn3HrAjcNQB3oex1QrcNoMr4Dixnbv/+Dn7lnvu4017YoyYupGzasIGE8VXfMHUf0dMxU5EYRAxFDH0VkT96k2Md5kVGgz3MeDyP+bBbHsaVSO9rb23laG/cNhxowYGwMLyaA2edVPB6fKaRHLsGKQyrQXcz2jj+naJoqyxByiBPmZWgDQx8x+tHfftGFS/a2dPyqpWXvV7dta6tzMFfuIBilIrnv5lDoIsEDiRwUEa+e/6zjd1+RL7TtEkeVEtW8IjdmGEA3GJSGhMxc7fdHLolqkzf2L7GFAfZvATPv6GhP/Oynv5324ENL5i155PmF7V3dR2RyiSMzmfR8HNSShGCdNAwHYnctz+Flu+DFRoU+iZOTfQ0qI0riXpan/MI/jZmvHStWrFz/X9/66WGtLR2WU8C56macAwBGw0UXNGU1QJee/GU+6aKWJvEwar8RQx81VB9ACQlGDYqB7U4gDewVUoDgTGEcVGGGQvKUS2NwepR9yKFH688+i1NDJ6Vj+UkYPW3+/HnZh//+1I3rN2w+vr3zkXfvbcuYsVgtN/kIDYDCSKikk4AlSCjhCVoNsQ7PRnqP63f/LJ/vktvoQvkOElsZOQw4eh5HGKBkrnoJ7Re5O6AwHMeZ8TykZ/OWnY133vW3ky9532deu3NH66kte9uP6+5ON+JkxJiLE3GxbtzgoDCwS+mvZHGkU1ti1CLoMUjR+c2vf+dCmofxJU8FoJ5gQMf2NZhwAwKKAgwdAxFDHzrOohgDYMAwcTgILGW3b9/u1dY0cyNoOp6XDomzr74umZvB0yJwKhac3dzc3FdgCXFS/HLpmKedc+7rtl99zbU/X79x7eGdz687GXYEwBet2YmXwbhggEDBiwZ1vg2Dpp4/Ok7nXRC8BF8QatvBgIrCjAsMcKaFsyiovGAgNkWbO+11xu13/3rqihcfPvdf/+Xrb9u4cfNr12/ccnBPd94yYcDCFRCUotF/yIAFM69aGA746Io9rPgg/Sld+6ZVyAtjDmjYBD8H6EHxdQWMzD1yo4iBiKGPIrIPlKSUWh0M3E2n01kwJcFQOJdONXpprhcYESo8hRkDZzbD2hvbokJBb2DrWPVhkt7lFq/YWx3U1fewJexT57/pvGvaOzPf3rRh9zTOUQxOniZxVgQahks6jZMzMIDLXIODV7DKAObNOk7RiaTzCdWOqOiCNjtg5qa2ZcvG5JqV7Wff+PvrP/j4Ew+ft27DhumQyNG9aKWOykVgSuTkunAatnEQDJXPcIrJChywadHxm3oWHvKnyIgh3VPTZmSzWcIu+ofCRo/jCAMRQx9HlTFpsiJU7oZ20kknaS17Mv7u3bvFmmrBnwRxKdGFEpWRT9DMCzUzCU1AiCYNWqoVRJaRh6MUtLPOPLnw3POv3tLRlTn1Lzff+U9QoyYss6ZKtBLWSgwfDF1sZIMDM/zcBl/L/SibaXkJcDkVi8PXQdADGl4FYOQ1TjCAPsJaQrMQfYTjWtSn7nd155oefPDxf775pr9d+tgTTx/asqfTBJP1TBPGamDkkKBFCYJ4Agz3NhjIlTRAoTYVZv7g99SsBfu5lwUaCHb0ffQxEAzrRz/hKMXJhgFJPOTAn/1eHg2qpHMSmoBY9Vtw0jNBlLCSFjAODALCUgpLdlM76fgTWs4448zfHHvs8ZtsO14a+fSLNX5U+Ddh6RTvwjrjbVC7g4lDaUvRTWJyCPAGTDAKMCIYQOtnfQmmyt1W416h4ByyZMmzX/vd7/7y1fvue3DBnj2t/KAlEgmD8+N0chwgHks/Sq0OH9Gngi/qqF6m0vcVbipsW+oqgY+exh8GIoY+/upkAueIFuoq+9IYh4SGjDxMUFSI0p2URTZFhlc7o5W+T/YnlD3YovVr3/hv4y9/vm3m6tWv1kMykmx4oOJzolUtWQMcMPRFhlbzuXi8bi4odtTHB8LfOPpe6j+oNj2hp3vS85YuXf3l66+76QN/f+iJqZ0dabECgv2p1KcC/i9GbaVn0ZcwJoY9huxf7GPFfgb7eTQNmV6omYUGAQOjhU0ral4D42n0QkS1MXq4HjcpkeeGZd9AW9dn/hi+8mJg5ReOiHOVgy8e5sNxVrJHSRthQTlIYAZyAZHCjUtZpdQ5UJyJ/R348rmaiKr1Gq270z/xxefXfGHL5u3NMDkQuOtdPoV53BUjDwIRf7g4lXYxjlz9KGBiKzBI+vKvN6h99OkjY0VobF/hNlb8ED0MhAE0CBP7vMW1bKY7tXbt7s9ed+2v3/fwI4/Vd3Z2+Q65M5guVOCoZh9LzvqvCfY52KiLq9fmRGgU0OkDHKzpTRjT4Y6164Ln8xRG8moqeAQMOTBH3sOSevh5oGJF30cDA6S+kTvAMKCILbujYuaCLyg+EeCDelrygeqOTUddpRDKIA6koOQ5yKcSw0ea2BUtTKzUHtXV0hwk+HEYzMDOeuS9ZOi1+hf/5VvzHlu6/PKdW1tP0RzTiBnY2YvrlUIX60thvVrnDXDG9cIpMIVPJ2PNF2taAnrZIHRf1bmf2FG1LXcDlwO4cP0NFvy+xBks7JEIx/xWu0RaIWYbLlf4uUqe0D1t7bGlz1jdXdrFd9x+zyUPPvhIXXtbl2bHa3ScRogtgrF9q4OZdc5qsT30cVEthkt81z0Xi8+5PQHMKXAMKvMg1rg74h0DhTwGYDjsB7Yc+XyW0juXmmBf94JWcPI+redzOS6XG7xj/AHKOnhgUchBYSAyihsUmqJAA2NAcooSv1AkfuCY4RA05BFSA4kPCMKkdSyaX4+NdLhlva9d9rkvNDz51LJPrlu37nxsyGPT2InFHypBVEQUcQ2Q/BmmFf9CTGvYnM+7S7F2GWO4oRHloeJfVRnzzWsoNTjUsg41bxMhvGjzkMBPO+2ohffcu/zjt95255zOrjROILTFkjTb5l7s+FcbtauBmigch+hwUmsjx+sI7HFnQt3Fogm/27T1XZauYytgB+bxWiEejxdiqSTGBoW4qcdisKucWlM3p6mzR69t27MtbsdwKIsVx4FAON3HiaZvJILH72/E0Mdv3UzInIF+BI7jf2mwo3yq34dC8qtDmJi+lJh5uuRB2mNL/hb73+/+x7vWvrrhIz09mSkk6pTE5E5yahfNUCmFzVTwXsR38Tt9AqRy29DY8bbd8K844G2747aug9U7CH1A+ItRhu8hzND3BeqBztSpiSrke+zt27IX3Hvv/aeuW7vZ8FwDS8YkQ+dac+zxgPpV+hmlecFd586DYooL37l9MtdDmu0I+hLO73vY8/MvpZI1ra5X2FtfX9tzyCEHF448amGhqWmqns70xNJd2Xhtsn56a2eisa09NWfaVO1oU+88d/nyF458+aXVQWdW6e5L7UZxRhoDEUMfaQxH8CMMVGKA7FYw4ow2p7nG/P4P/mvxqlUrP5/JpmfKXb3AxPV8iDFXAuj3PWDmIgXCwDFa5hvjiYbL3HT2m77vtHCJnLz6hRN9HHUM8EQ0WDEa2tyXXlp14eNPLLPyBajKobLi0jG2DU5pyUGPaEDIoRDEgyEcnoV0zrvTjuNy7/a09O8cp/B8wcm1+m4+m8nQ6s3zWvZo2vr1L+oPPXSnZuAcF6+Q5cw8YBtr/BiOMl+wwNj0wrKGWIuW/8VVNyxc+fIqCPZoWirZERwUjjraJ1GC0XBrElVmVJQJgAF58DQzCuqY0T700YuOeGX1s5dv2rzhGG68Q4sksdJMy4M0i73e97VQmMCkGTOJsJ3UvPi7a1LTL9G0FCbsR3YczzXLXN8sGMDgcy9WQoBZFVnG4KNOnpDcKXFvq3fiqldeXbT21fXAIQVjartQlYKXAz1k2uErZKgGnIP5F/Zgz+Uf5vItX0hnNt+dz+/Y5nvtWc3IIF4Gc1q4i+cc5kTyPpk5R4EQ6JEKpmRSOCAx84x3+5P3tcUTWtqO6RxUBAOJiGWM59YW1c54rp0ob5MPA5CwICCxXP73f/CT5kcfffyzHR3dr7NMHIKFk9agGg3KzK45LN2TiZFJTvd9+7OpZPN5MJIDYKj0R2BKlFO22FHMpTQ5BIbO/PFSBeYzecwB5nSsDMnqmUz29JdeWon5GFFBHOgo/EicVC4eV1jixkJ6rtuwMlfnCi0/cws9e4oStZoLYVgFTQwEEKf4jkfWAM0swNOPnNqsYeoezJw5ETYRDFlyZYOKknf0NHYYUB1o7HIQpRxh4EDCQEBYH166tObpp5/+8Ib1my7JZQs4oNoSO71SOhdO7Mk+HDyN5Fg4iFj2EbpW+4V4vHEhGDok+MHYOASxB3mDZtglQw+2IB1kLBGMBa8B7xpZ9cFQcjRgWKJWopeDF9bWvteYhLW3taemq7Nn4fp1G2PYBtmHUTq4rIAqNBhIgnjCVVzvwGd4wU+HybqW+7vr91zjuXuhcs8FeULeGIvT67yri0M9XISOuXbpzWUKYOhWt6adveh4fCFcV+wLL8YVguPTO3LjEQOyNY7HnEV5mvgYgO1smWpQjehDKkJJXSZ+UQdXAnQ3j4y7Xvvzn+4/54UVaz/a0tLWmM87Go5J1w0TxFRIWaC4RVxJyFxAKB1giG9Y42+4WGoEkViFrXYXuBY0m+Sb7izTrP2sbTdNhW4Vr2DqZZL6vpEEmTscf4vsoCwuzueBITa5UX+OaQnGhIJz4GHUwYNr+CaICzhiMbcsriryEPBIjsq+grqaOqNm9o6W3U172vdiyVhxYyHBzAONR5CISht30WYY1u/0Pef2XKZnmzCopJ4cX3nx2HPBvWV7gFfJESC0+cLDFwMIHGiO2R7ydtU0xKFJDCHyKYJGP+MQA0NodeMw91GWJgAGQoRHEBO+Kxd+Vn6T8E6SymlQyDlQd3tf+4/vLVr+zIbP7drZeahpxMU8qVy/X4krUmJGREzQWz77rlFobp6xetGRh+1xnCyELlBeENlyFbeCU4ZL1deThp58t21Mf5dh1CU0bGCidqljJgFMRgpuZRBCL1U/I5OJhJaJxaxMDNbYNgco/TmhOsaAQmgjqKI3phg61+sJzYHkMP3FH6FvVHBTGh3oUsmrqQV5hxjMXVmE9kOhXIUc4A50oeYaW/furS840vhN5SEUk0BDFcUKw6o02FvomtfqOe5yLFJnAdAscOShGP0Jbt0vPjEOk0kwlAgpVEmiArkTLWeJgvIhgAqLz0r9L2NHv2OMgSG2uDHObZR8hIGJhAHwYkvJm0IEivnXXH1D06NLn/r0mtUbF7sOVKGgmyVmXlk4UlEosQOdKwyZHMPufKh+ivnZU8888ReHLTio24V+tFDIic1Aisr1SjAV72AS07FDyRcsq/ZccQw259PFvm4k1CG6L8h5ReQBXlGcTCqV6qmrq9NomT0Ix1RUonU4OaxRN2hQzdHA2JInMtPBOtZjOW9D3ukxRIfzVpI8z5ynm5U2aQImULlS4A4BVBoZeklVeA5H7m7hm8jPEPIfglr2SLbOTWWUlX3Zx+hl3GFgbHvMuENHlKEIA8OIAchqDlaI4QA5kFhTe+GF1bEH7l/6D+vXbXt/uqdQ4+OU6WBn3H4SFfv6Sc6i517OOy3/s3zFow+8690XXXfaa0/+K9YQF+xYZTfme6VfKAnK+76+0LZSn45b0w/TtBg/BtyLgwi8DZ0XiQTa2tK5xsbGTjIjMILBQGG6IhxW36fA0OfjjvxRSic76accIsWR+RkKM6/IATLMqYN9G5BgnbmOHdkMMlDuCEdH5syrbyfqW+ARxmsIiH+hDdp/3LF9Klyoe9/5iL6MNQb2v8bHugRR+hEGxjkGfIcH1dTrt95y95mQzC/d29reaNumn8dyIclHAxVmRTnIyrGnCOR8D2OC/Bacc/7jgt/zOJe7nXfOGVsWn3fG9046+dgnYzEDM5+Fcom4XFysgCy4JNI2Xm+YsY+YVrK+bC6drKFCWK8E0Nf7jKlTCzNmzOjmEjwaxg3RWWDmxxqGDYs9LI4eM2Y+tFyznoiywHH5QDPyDto6dPLqOC7WocttV3GammDkvSRzlVLpjuRFG8Jeb2IUANncwznmyNh+OqUl6H9AsZ+JRNGHDQNDb3HDlnQEKMLAJMcA1aAut3BNaVdd+esFD9z32GXrXt16go61xtwXOzhjuhoSihw+R4M5U++wLf/qdKbjL56bhgdU2ZbjHXPysSve/Jbzvn/U0Uest20LDL0A2Yw7iWH+VM5DV4Md+HGDXSup6/YHbSv5Fh37xkupjp9JFigh7xN58OfOnbsDzCg9SIkuxHW4eb11sqHHsFuehbJAUh+ioy0BXZgJghmF0ugfIOMBRB5bouYGzj/xE7owiEJsLvQ6yjSTyMjQcZhKmXlMWYhVAl1dXWXl6JVzOWgjjlT5Eji7BYMJfsCv2Mq9JGH3ih95TDoM7FOPnXRYiAoUYWCfMBB0H5JPRVIVHL77nJtOarfe+reGhx56/MPrN2w+37BMLZvNYHIdTFfwqyLvVjHpQcDiMA2w6Xyu0P7nrvzO6z0fx3V4nJdGEDDv0xcdrr31rW944J0XX3D1omMO3WvEsBWNm6PFvIJVVJcWPYoP0ugKvA6709X9i201nca8inIIS+YgnWL4AR5C5a+pqdkyc1ZTNyT0/hky54CFZMkiF/FwjGGY50BCx1eWA4Bpaj3IyxU7n4pNWMAMqSHghig6pFVblxqDYjr41ttRIt24cVu+vr6+JxYTtgVBIFUUmVdK5VUdFiv4mnWMZaWwikAFYv4ROnxVjSzS6JnRNC0Lw0IO+PrPrIQBqAimi+mNRl+zT0aZaREHGZ3+QbpV0+vPs7y8pfqpkiU1l1957w989G1EMFDq+SMCPgIaYWCSYkAKQShcRRdSdFAYKdlaJtOh337bfRcse+ql97e2dCXz+QJkOGjRsdRIHhHbCz8EKKDAXA5Q3Kfzhc6rc07rdqraxSeuKXLAcLGz1yFzmtIXv/OC373mtOP+Mm16Q56ElwIppUteAwqnPkR5L3Gqpc/4tGk2zCqWZyiMgGGLThhvbZ4/f34nGFLZl2KQfh4glc+EhP4POCluBtQQiA90SEl0cHehmaCkDBwI5i4KAtNCzun3yYaLOSK+FixY4MCor7O2tlbWZnGplqrcYnC56C7kjZQxe20tgsbj9boptB5BYFarukrxi/gOvABqz7Rp0zowKPKhPZflL8ZT8dVdwSHjZnsw6jGIPMu0Eg3qSylNxhmaE5hDhgSfFlGrMPOhgYxCjzAGhl7LI5yhCPxYY4DdmI5Uqu8OHKJhInTxR3xQMIq+k++BVI6uSOz5HFxiFzau8U5qn/vcd49csWLlx/e2d8wzoRY3oM9V6mDBdKuiiowHjNnwtsbi2g89N/MczOskdK4hYko8F5ucDuuLDzvkoJ2XXPKeK897/VnP2ElDy7tZMVgYkJkDUOCwYsy40LZq36Xr0wBTmearz/3cmRvlRLxaSJbm1qZZsTbdzAbcoLK1sF0FbSss1Uk44MXmWzQz8R65Ta08J15oD8QSdeaNxmKUvqtcHkiaHsN+e5b2ta//n3bjDfc0XHLJJ6fqRgofoBKR2AvVlUxU+ONRDIbA/TFl0AW1O0ZOcoAUhCre5AZAkIIpCYsLISUuMCSwgcTEJ0xjyilYhQZ8wkTBr8WFNiEulEFpHBREkS8uP9Na4wmjtbYugeFYcR26CtXnndoM2sGhbZ0Xs+vfqPlT4dGAUV0CaVLTAPW/WlReiYM+3llrxd2DOWBgnYXrSz33kSu278iNLgYihj66+B7nqbFnqybBdVakf/Qb/25MaEeYmQvqJ+mdppOA1mrf/O7Pp7zw/OoP79ix53Sn4AKTlMxpscw11yY2+wBbQMarXWDUPa6buypf6LkbO3yQ+5WoIyRPGs6LyXLE5iYie3Zte/kNbzznx6eedtImEl4apXHgMHimbjQaRu2ltjHjHLmUTaSARPpxvZoGmW098qa3L1jY9HzDlATs+Kny7ktTEDD1siSEhNtg2TVfTiSnXFaTmnkImDlSqsFgCIwR9ghy21rF2IlrdcW063/zh9RHPvrJ2f/znR8u7uhwvnLj9Xdd/+B9T30zZtU1ynCqfZcl2uslGYtvnzNnVmcyFfcxQBGDMFl3/VmcEzZ1A1h25ydea5tT/zdhzz3TMpprdW0KRh9g6sCPXPtf3cjh5r/8IdcwpfblBYfPL2AJWihf/eUb38RafmGIN9vU67+UjM97g6FPAeJq8RFTKRz8BFqlULPgQTAoG7Ik61I0Fz7j8r/xzW/BGNNEFeIXzdVgswUTl4OZUNb6eRx8++sHSPRpDcE5nAAAIM5JREFU0BjgEDdyEQYiDAwFA2FGHsSjsCI0w6SOIJ7LXllrfu3yr1+wcfPm9/f09CT5WY2OsIUaKCZ8wDN1oRZWiUsGp+OUdByacb/j9vy24HTmNR/W8GHmCWJb1CYjqgGGc/E73+Z0pDP37ti+66gtm7d9cevGXXVUwwpBXoHv+47MeKC95kLLTn7K1+vWFBx3m+b3IIMFjut6OeHFH5Uv4SE3Af/TTTfkjz1h4ZNHHnnkP7bselGofyVhR8bFyIs4CjPz8DMgYqIBDAWMKf7v+Xz+XGyAc3uqJvEsNtRpXbhwYfeRRy4snHDi8cbevXvtlStXJnbs2BFLp9PTMEc+94YbbjkaxmSnLVny3NFdbYXGfEavKbjZDZhDvxISKk6a699Jq24yMW3DnLmzWhIJuzGLw8Fh9KBZsHfjcjJZBlVwBU+WoajUF1aJxjmmEfsVNDP3YMudRxB3DaT+HT2ZXR1uAYu7efgOdvsL4/eSS97nd7Y7y44+5vD2RCI2I5cxeQyqSgR3pMO2I5zCm7oXQZ0KTdDV8UTtjZ5r31Nwsi94XrwHhhfINLaT9QgQcdA4hEmGiAaMo9DYaxYKEgtjRUf75je+TqsNN5mo1wsFlExMI7Hu6FQe+FxKn2/KeV54QKJ8o/tIYiBi6COJ3Qj25McA6TpoG+2ZHWo3DKg4vZh2x1/+etSaNWs/3tOTbgrRY9DmQEwSxJHoIWEsEUSAA/N21hmGc3U+3Yalapg35wBCsnQGruQk2ICETMHzG5Kprmeef+VXy5e/uKhl18MXd3dlYPxOiXZAJ2FCYwDp8nzLqv9H0PqfO54DDs2jVvtxAV2XaMgJZcKXvvh5b8u27SuOOGLRBuyId0JHRxdFOzm4ECXgj2IM1WDjmzgSRGsAa32TbSXOcvLe5q4OZ+fTT77Y+srK9bl773kkhnXuCcC1C4VCDTZiaQIznoHBUx38LHzznRxVILafrIlPcbzs4cjAK72x1yt9Zgwqd23rggWH7p7SWHt4SxuOFBfq6gKYeS/0VwJQdQTtC9cjGIdh/PYZ34/9M/K3xigkNtbVNG3MF4x70j2tj0ATI2tUxcLwCaebvbDgsIPWzJ4zs3nDqx3ABT/CsR0IZs72Umoz4lv5DzN5EJb/fRGoeLthpp4yDXsFRimbMKjYPmt2U9fJJ5+YXbx4sYb5erO1tdV85plnLNgNGG1tbfUYGE1BuBkf+/C3Gpuamha/9NIrMGawMRDAtI/IZ5Cf8jR7vZUPRHp9jjxGAAMRQx8BpEYgDyAMkLbh4gyjULX7Me03f7q18ec/ve5jLTtbTgNRK3KuIjPvFz1el27kf92T3fOwZpCZFmU+RUXlvchXOO8Kfaig+o52yvFHbr3q2t9e2dqy9+hlT794bCENGqwYQt/pKu5AqA0wSvs45tOXeYWuR32/5/+3d6ZBdlTnGb773BktaJdHaJeMEEILWlgkJBlbUBAwAtuJIWUlRcVxVcrJD5f/JHZ+JJVKVVKVSsVF7HKCS5i4CgcSIgiBICJskFiEkLWBAKFdIzHaZkYzmrl37tad9/26+25zZ9GMNEjmPVM93bf7LN95zvKdrU/DdRB07x54TzhNgzYAhn/REz0EhfjGpMnjlnR1XfRkgJTo6sLOgPyjpTBf7YPCboCSubGzs/NGxgU7qeHVsqiLV/84rcBpiyIN2odDdDDdSCKBt7jyGN/o7qzL5lM3wD+2uyypPHlr/jcWUMLnoczenzhx/MpDR07Yrm2QIxTH1n9snPRhig+tEcPdg7DoHDJiSiNyG5TybZl8IZXNOvieWWgrFHQ1jHAq1fXpkqXzN999z5duf+Lwf1KTwiqyUTCP3UfgZY8iaJShNRdeBIEW4n4a8uAr6KGO5ubT2S1bfp199dXXXKQT82cUcYuhwRHB7wSUeT04jsQq/yRGSOrbWjvQQ3fDeFbmff+XA8h3/XsiG5dEoFjZXJIrWRaBzzMB6mg7AAF1bZRfVeFWpVh8dORcW+K1Ldse+mT/wW9k0llOXpopVzrBveozV7XDkxfyhfRGp3ARmhGL1qn9+tGA2I7O9no3XYXvW69ec9v2latW/GTGjGktCMMUHyrpEN5vrlYegQisB3h4ysiNzomGR34H886NUM64Z9VEUVF5juxe4N47wwZ3YoficSZNmNC1YsWyl+bOnXUknojae/eegqslQhB8xdnCpS7ju+XU2RzF5qtovOaKdQyjY7o+inlgLDb0D9rHc+hO2rMLXEfqoKBuiETxzmA/JlDWsfjI9ORJE19ftfKOlutGjjKFzj1bguf9eOM/RgMGseCLbJEoPkPuvaZIAJ11iYZjAW6zzLs8sMZu/NjR2UmTx25euuzm3dOmT3G7M12Yv8Y7EXhVsWQqWOF2z9/khQEMckOzIdyAZRUzYG9hyI0t607n78hmnJUXO9K341iB37fg92Jcz091ZWe2X+iacO5s68j2C50YJImF6xJcXFeVBUrC6OoqIcBcICMCPgGvRuGPoH7pHQ17DTw+j8aPOyCxvi44Y6E8ZuPX5MhPH984/70dO76TyXc1Juq9jVH67qlwNtz8Q+2f2x+Kpn7WnW47bcOrA0ULIUof13BDN98wJ/9H3/6DTavX3PEiVmvnoBCtJuZGJQM0cTfs3B+Nx9dH4yO4PJrOmCXKTGXa20P8K+TMLpxk3FmzGrfffc/alydNGp/nfCo4VDoq8+1SLqlUg6OWO/IuV7xQ6JwUnwmljm+MD8ygDeVMmjT2nZWrbt0xc9Z0KPQ8RwowHBJEgTEuP3rx1+xb+voWqBUdbETgHgckw1bhkvhwtLWd24Me+jOr1y5vHzU6ie1gu7gLHOz7itu2xg2UeIUPZT/wnMH5dtkQKroP/OnzzAFcHlVqQoq9jPHVdVmVUleXcJLmsyDAOiaotD6L8K+RMIGJ1SP6jKj7sZ9HaE7o7/7h30btfW/vHx8/cnQpVqiHOedYW5nTJQ8zdoHeeVc4kv9lOtP6NhR7SVcEtgZyhr6Mx7DiGx2y6dMmn/ny2jU/Xbx48T4OQ3NTlXIlNwDvxqAn9+1YdMQiVOrs2RYF7t0t3kF3Ma1t+5gX3IkTRnetWXP7k1+6a80uzNXiS2xJr74xJQPvgnPvHvpP6Gwwh4nM1X7owUca0bCZ3m9QDMk23w+FMCzdvGTRwl8uX760ecyYMRgpYH8bpqjU7Vfv/3oocytX/NeBD+o0mcMKJYs7fIrc1Dh5Sn7cuMTTjzy6/vllyxd0J+u5IA+tJWPG5ICitZXtFKkXNua3r5DNLtwN9lwRBmX0UOBK5ioi4BWwq0ggiXIJBGzYl6/s8L1cDK3ZdC3nVPkpRQzXhnlAOVQd2KwEb+RiuQ5X2WJerq+i2Wu5LTpiDRQczE6Uh2d/hWutCqSscrD6iTPAWO3rclV2GD05VITee7XwZkgGclVUqoGcvE+N7B8Mg3KaGfjKXLjmhCwimw6N/0Iy2tx8eN2Bjz9Zj2HfRCyWxBApbfRhAtm4kjyc2ZLLd/6ikMfWrqV58z4cVz1ieuDAUjDEBQxzXeFpMybu+vLdy38+dfq48zFsjR7hlrGWFzy5rLHhM2AP3z/Qv/WuodkWYnX3I5FIPV4G5zvcXJaP6AZp74dZ/A13+Pob4JKvSePMmj1u36pVtzyxdPn8k92ZDvhBGXj47Hnuy3gZxFMgwXXRPvI61hnYwXzcwy+Gw5X3nCCpn4BphBnee+DMo1XGF4PK33GRHlgM+LVHHizkpyS33HrPqv9avHR+mvyszFQ49SCgWVfcZAZrxWGvPF4sD8GBAXi30JTLpzpCET8flvmHeQSyM4TxhlFnpiy78UfrN/zuO3PmXl/I57rxCHEiXzvoEP5aGQvixPzL5zDGGfG3NA/ceY88eXhNGcipl6MYVhCm7zedFtMjiFvlmUP+MsNLgCkgc60RYF1hypwtbhZkTlxCqaOAWT1JhY0KKcwVykVlXiqwVPhRVPpU7FhSRM+8OsDvgAwYR1ChFx2wAHsKHTuK+3eDYbuys1VAcFysEGiVFQsqI1YsZoLKwf95OU5UoIESRXhFBUBumGukgvOGrslkYOEbuXAq9Nhj983YtvWVx1rPt0+NYkUw9oGB9zWLl0UwUAAWrXD+mBNK/zSX72qCJiYYCjAog1YEULJSL7jLb5mXu++B1c+tWr30pURdOBeNYYGd8WXaeO+oW5y50trSi/e5CM8/uxFMUtc9go+3fCUUxivNWDFuaQZbpnR47mHQGKCnaJuxUZesi+ZX3HrzM+u+cuePZ82eeo5bmmLkwrB5w/BB2D088vJHMR2C9MC5mG8oJ93j8ONFhWw9csYPjUQsMPQWzbl1E0JO/YJQaBTsB8qvZ5jea2v0F2Unip34Jl53dtX9q//5gQfvfmXuF2fmIHwIUEKJaBxb86LnjzRmWgZFwc78jSNIY+9Me3bgezvOJyEng1YXZS8zzC8WHcaR8XXco12t79/11XU//N73vvvGkiXz88kYJtPxVgMXqHGRng2ju+ytI07kUszf9BfxsPLP/MCyBaHMBP7jh92z9MYP317xzPt9G4aPdX/BAdlQo/i/B7MXf9+h6Wl/BJhrZK5JAixsLP3sgWRQe3JXLva2cR+FzLEhOSpRKlkq/rIDlR2rbXSXOBTpKTLUwawIB2yCuqHCAWXig/Izr3lUm+qsF1QylCG4rnZzOX8HMvV1Dp5Vh0vZeYBpJB766MAneBf6FD6LemgNX5eC6QskI8eKFP+gHcKFNHZg34iFcNucfLfXIqvJq1qGAfxG5b508cLT9957z88XL1lwEIuboJCZHyh7uan+7T+Dkgi79VPj0TEbYuGxU2yYl4qTsQuOcm96ub4B322/9/47/2XDhocfnzd/+knshIZV08izbjCEQSTwsPro4R/TozxN+AEXLFQL4atkdrBRS8XGg3kfeRv6xtO4BawQy8/GHj14L77P9CmFym/f4kX2na/+34Hff/h3/ub3Hr5v0003z+pMJLByzc2EuVDNGhJBo9jyfnXBINuAL0c+snCUPQpFi+Ez+G/xKcWJbaGiAaN7Z04puB3n3nv4wXV//iff/cNN8xbNaE9ivKQr0xGKJ2OhnJOzURkH6eI1xVi2g/CKPvkXAT+cKxR/YL9cVt8J41ZsCFT7F7iruA/PLRysSCyLS4UV/bhSBJjrZa5RAlTbLFIFqxhyuGbPuw7/SwN+YW6FaSY48wcrFu/s9QRQ65VXJPZsAP/oSQ/VxcLMm1ao/TNOFaZcFjwI1kqxIrKeCS2XX1c4HvKPksiQ0cJDRCwuqJ9xtkZRv6HQFxQfJxp5cuNTcw99cvBRNIhGYTzVWBbDoL/VxgsAXUjHCbv57Y7T/VwuczFlIxTGrdrBEH6jcTF7zsy3165d/fSRwyd/cPrTCxUvpqNJ51fYVPSVhnkiYqM/ybWJWPKhQi71EzfcVRmjyl9VHpAlemzoJd504/S2AwebfoRXzc4l6+J/+vGHx29Kd2f5OhR7/TVGM5hHmIfKTBEq7jHdELb3ViDt8jct8NoeIWw2uHgTjRBskYvsNR3z4OMwgIGXuwdg8ggfx4b770HzIL777LmOH4wZO+rIpk3/u+H9fYcauzM5zKp7DeIg3JKvvkx2I4gHzuFCl+Nmj0OZY16McpVc9Liy0ZZCaMmsaXms1dh5+MSZ7zeMbvjWvz/z4qM73/3wpnPnL0TidbEwGpHYigijcpaEXvx7+BXcYAYPyhvvEY8p7H7cBe6LZ88+3ybwDTxGdrZ6hK2oYsUTPNd5GAgUU2MYwlIQV4yAV5FRvfOPFZiVW79y61nZsKKFQRFkK9o6i3DAHnqxfqGF4g9a7sVU2OEPDtvRcIiPFRjvsUKrsEgLn5GhLBZ7nMGKMlI5WI+Fj/icZiDyRkIbNz6dePGlV7958uTJm+z9aPYMAz/oRc/eEgJnX4rPcm2Ok34yk+08aOsdvNZFIIBZGfo/x122ZFHuV6+/9Sw2urn7uf94ea2XH/qPn43YoEGAnjT2Qo98M55IbMa3ZQ5dikxs3jCmdDNv3qyLH3188Cks8Nrf2Pjxt3a8u+v+5tMtkzDSgS61KQjYszNs18IQyAxrYEzl4c3T8j6uzWlpLt3lGpII3ulz3XasyzjshHLPYh68hUoahjIFHvJ3bYMi4Y0jFELXTbz+yP79p/4+mRz3mzlztj68a9cHd5082Tw+1dVd5w3KQIBig5TeU6AeVWwr3g8/YcGb3Vrx9EWBdCyWFBJj/e70mY1N+VzuH8eNHr3tV7Pf+fqu3fvW7d7zwaxUqnsE3rtHbx3feSNKhOvnMFxTjuCEGoLK3G5RNsqLH9YQMlv+P79xZyH7t8qvLW04OkiANsqAlOAudG4X0iWLowPpd6jgpPjeu8wwEuiR24YxbAU1ZAIslCyd/F5mlPtCtECNHkbZwzwdZhA55IVvdFrFDHuBvqYLvBaLugd9+nwujM0jPkUTP4vdOOhhHzUMnvZq6JSG1Q+mBxEeNtTgVl2tqJIOxmKROr72Q1m8o1aPMIy5wfoIhmO5OeUpVMT07JIM/MbrxgmHo6WYTkhhZfMxeGCvK+E34obKDiPdnteMKuTmQjKbmrDhZCqwHHo87VhF5kUHT2ubaOjggRMzTzU1z7vQ2noy4kYhN0UuHux9VjvFDUOMPTiz2wpu6hW3kIYWQpINmn11EP5viAEa6JDlXWwgemLJLQuf2PnennHHjp1IYkc4WkKErYcJmYL0K/cLcmK3M8SJtfcI8MOK90tT6OYbZpstauA8f/6s7lA+/uZbb+3b/+yk8c+/9ebOB8+da7mzqzM9LZPJIp2ADB09yENwWBKAdR7YPAaG1/YJVOYfxIyQYcM2lkF6ctSJ6YokcApUKs3YZe+463bvgvi/xr7oe/KF7jNuIYOcYenuyWSe9PMPwSGxYCkeWrDgjovXT6177seP/+XWO1cuW7Rt6477duz8zYqWlvYZuWxhwsWLqfoI3o+PxRJugQ0HKmSK65tIONaMUtGJkR1/egU2ejF0xhxoqpM/MLQQj2KVnxt6c/eOD/cuWTj3yQ9XLFz39vZ31x470TS3vT3dmE65ozO5fJSb6uTw/QDgIzo45nUONYU3zUaGzAPhMOYPLPEt/XGNSoFSm7FBfL9JwYrGKzfgieYDykfIbYM/5zGydB7rck46Tu5owckcRp1yFEnQhKlA2vG80v9hISCFPiyYr0wgrMBYAlFwWChx3fZyLJHZj49JOCj4qEh4eArMdgf1v95EZc76gavJM93doWTD6NbTZ463x9Am4PekizppkGKzvoUCCe3Y+Ya7YMGyzcnO1AEMC0ajdQjSFDqmMym2XyeXgsFkAR7Fklgmnkicd8MpW6Jcet7/FZQP9llBzwzf0y64XafDsba/jddfvI6vbYELNt3yKiVv8RP9gxzWU2IDA7Ufh2ixOUu6u/NgppDmukFjS5sVhrLj86VHjr3fkuo+/U/xREcdI2jzt6j+2YMs+VvhkjUc8cOSc6S1tZMVYlDrWbJU2B7SD8TVycLPiLt2za2Zf/3ZU/9z/dRRh0+c7ErG4+hUwviVNMOtYdAsLEqGyj3iNnVfeorAXx8h/cIRjjmhVasWtSGNNj//wqtvbd++Y86L//3SYmwRuyibKcyDjVn4zOwXspl8AxpWEWy340BBRmJxbmue44ASFl5BMuuls//sUoG3ILc3oUd+CJ3q/bD4QcFJI9+lT0GRYfUYepBcdGlpQ0FqJyseVBpfZi93YDv00Gn31KfdkYe+tr4F+9i9tm/vR1v37N53/euvb/3iO++8Owcr7mcgE08H0MZ0OoP95QsT4GgUGrNR7I+PpknsI9dNwy1k4YrUPsRg0FTmPJvBBXKrjaktuXUxNhWIvP/Dv/rr/d//iz/7xd49++ZufuX1uaeazs9IZbIzsQXutEgsPxnFf3I2kxuJNy6iyUQS2ZsNJcz18EUXtOLdUIpeWxBU/HgYBIeUzrPH3YnnbeCJffBdyB06Ew47p2HvNNyfAduTaCydzReyKTQ4EBsUMM74QVD7QmDgG0ORueIEkC4y1zoBJmIEbfkYlzKjpNprNyhXZQZWWMJ8g0JGlerZgOZn9UgtzIU1cG8K3bfK+1bvB26L5zL/ivcQChr4VJbc3Qu9mjBkCuWxRadN8HFO0Azclg9zF93juTfpb6LF8LnRPBYD03BotaccFXH0faFc+OA4VprjGxPo1aHCYqeDOhYDGeYHIxhE0rpPdMO2LcKiBgtjz2pCRdvGU8q47sXE8M3qfBYfT/HbA7boDE0J3z1c0e8axuu2+a5Y61lcvFBrWB/cLYSNJhTg8Ywvn+MFddTsSBTUtQiPHwZhfMvnVCsCojtwscYJ7NucL2UtM1U/y574l4x/VTp580JwSYXGVy5xA0PF3/j6Iw3HjjaNa229MPZCWye+hx5tzGXdsVCGaN8lG/CN8MjFjk58V9QSD+9w5bCgMHcWg0vnsGK+Bfm+De//tzpuvh3pi8SkEvc37rF+ctBaLZOyX/mtl2ypaGtTuCOgxYcyMLkQP/JFCeLvB766vq61tW30oYPHRkO2BmhwypvE6ENDJus0OIXw8Vzh4j63cDHHV9RsW1fLj7Xyic+NwcAwqRIIL8Pw0UD10630tFAX3vTClujevXtHb9q06bqz50+NqquLjkylsiPq4iNHt5zvxA5IdYgAFztGR4TC3Wi+ok+PIQ32usEqi01zM3jYCZmhyPPI2BjtCJnWxx7Abhpluwt1RMaxsszyTBkr0teXB2Wnz7wFZzKXnUAA/7J7LA+HlQBrk1A0FsPwHHvYvuJkZVWrwvKrIq8ZzZlHX6H7BdOrLz35e1foQfwqKyLaZ0uffvCvV4VW0niBR6ixUDFQlbITYR0vPPI8gZ+9NSxKzktXrHQDBU2lZQLxXLJScUUEeMYKyGYfTWHQsh96heVaPyh1pW3vdy27vFf2lJGl0jFTdt+/M+QT4uY3aBA/jrd6YTlsUeGSzO2il4BsuJzPKirtkuVA8tKdqivmjwq3HJxhg4ctSmRBfPcD6gRTQ5CC0bceJC44PcJlXhTeDdXXj4hMmTIlfLr5TIRrFRwXX6SzTAIFxHgYU6Ybbntx8sK1dwcDvpYpabdk+pXfSyzGwkqVN1FP95Vp5TXQcBdNZYjMiXfbDdjBNBbFCmNczIsjhj2yiDl76PCF7vi8LzkYEg3seC1AhI22meev/9D88Fb482tpaLh5CNlAtlEmuuQGQeCNzjk+3IL9c/KgiNE9rM0ENxxs2ZW37siySjCLix+mpSvsVKYvJS2ZKuelB7q6EgSClLkSfsvPYSZgU75+AWK569eYneoKt/p3f77QfqVhFWxD2oPNXXQXyB+cK4MYwK8a8RiMPAMJfzD+BjEYiP+B3SGdwaOo6Ibkked4wHLXSAf4wLZVZR6lvX7MgDlTyfRjivLXlq/aNYM2J7RevKgVTnk8yp9X3Q/iUm6lOtDgd2AX4RblCO4Fdorn8nCKN6/QxQCEL3K+QiLI2woCvWaLClv6cU0QKO+AVlaWwyt+sTc92NxVrLUg9+WsEAYjz0DCH4y/QZIMxP/A7lDPQ5GzOuzhlDsI+2qQ/3LKwHgNhGMQZrnd4F7A5mo9l8t8tcr4WyQXx2FkfksIUJF6bfjPtrR7cgweqo1fqyIYPEC5FAER+FwSGM7xmc8lYEVaBERABERABIaDgBT6cFBWGCIgAiIgAiJwhQlIoV9hwPJeBERABERABIaDgBT6cFBWGCIgAiIgAiJwhQlIoV9hwPJeBERABERABERABC6JAFeXD3WF+SUFKMsiIAIiIAJXDQH10K+apJAgIiACIiACIiACIiACIiACIiACIiACIiACIiACIiACIiACIiACIiACIiACIiACIiACIiACIiACIiACIiACIiACIiACIiACIiACIiACIiACIiACIiACIiACIiACIiACIiACIiACIiACIiACIiACIiACIiACIiACIiACIiACIiACIiACIiACIiACIiACIiACIiACIiACIiACIiACIiACIiACIiACIiACIiACIiACIiACIiACIiACIiACIiACIiACIiACIiACIiACIiACIiACIiACIiACIiACIiACIiACIiACIiACIiACIiACIiACIiACIiACIiACIiACIiACIiACIiACIiACIiACIiACIiACIiACIiACIiACIiACIiACIiACIiACIiACIiACIiACIiACIiACIiACIiACIiACIiACIiACIiACIiACIiACIiACIiACIiACIiACIiACIiACIiACIiACIiACIiACIiACIiACIiACIiACIiACIiACIiACIiACIiACIiACIiACIiACIiACIiACIiACIiACIiACIiACIiACIiACIiACIiACIiACIiACIiACIiACIiACIiACIiACIiACIiACIiACIiACIiACIiACIiACIiACIiACIiACIiACIiACIiACIiACIiACIiACIiACIiACIiACIiACIiACIiACIiACIiACIiACIiACIiACIiACIiACIiACIiACIiACIiACIiACIiACIiACIiACIiACIiACIiACIiACIiACIiACIiACIiACIiACIiACIiACIiACIiACIiACIiACIiACIiACIiACIiACIiACIiACIiACIiACIiACIiACIiACIiACIiACIiACIiACIiACIiACIiACIiACIiACIiACIiACIiACIiACIiACIiACIiACIiACIiACIiACIiACIiACIiACIiACIiACIiACIiACIiACIiACIiACIiACIiACIiACIiACIiACIiACIiACIiACIiACIiACIiACIiACIiACIiACIiACIiACIiACIiACIiACIiACIiACIiACIiACIiACIiACIiACIiACIiACIiACIiACIiACIiACIiACIiACIiACIiACIiACIiACIiACIiACIiACIiACIiACIiACIiACIiACIiACIiACIiACIiACIiACIiACIiACIiACIiACIiACIiACIiACIiACIiACIiACIiACIiACIiACIiACIiACIiACIiACIiACIiACIiACIiACIiACIiACIiACIiACIiACIiACIiACIiACIiACIiACIiACIiACIiACIiACIiACIiACIiACIiACIiACIiACIiACIiACIiACIiACIiACIiACIiACIiACIiACIiACIiACInBtE/h/GeQthOXTsZgAAAAASUVORK5CYII=;" vertex="1" parent="1">
          <mxGeometry x="490" y="580" width="100" height="74" as="geometry" />
        </mxCell>
        <mxCell id="lbS3CkcZTFjXa5OfJz5R-67" value="" style="group" vertex="1" connectable="0" parent="1">
          <mxGeometry x="140" y="250" width="80" height="30" as="geometry" />
        </mxCell>
        <mxCell id="lbS3CkcZTFjXa5OfJz5R-17" value="&lt;b&gt;GET&lt;/b&gt;" style="text;html=1;align=center;verticalAlign=middle;whiteSpace=wrap;rounded=0;" vertex="1" parent="lbS3CkcZTFjXa5OfJz5R-67">
          <mxGeometry x="20" width="60" height="30" as="geometry" />
        </mxCell>
        <mxCell id="lbS3CkcZTFjXa5OfJz5R-19" value="" style="endArrow=classic;html=1;rounded=0;" edge="1" parent="lbS3CkcZTFjXa5OfJz5R-67">
          <mxGeometry width="50" height="50" relative="1" as="geometry">
            <mxPoint x="30" y="14.5" as="sourcePoint" />
            <mxPoint y="14.5" as="targetPoint" />
          </mxGeometry>
        </mxCell>
        <mxCell id="lbS3CkcZTFjXa5OfJz5R-68" value="" style="group" vertex="1" connectable="0" parent="1">
          <mxGeometry x="140" y="300" width="80" height="30" as="geometry" />
        </mxCell>
        <mxCell id="lbS3CkcZTFjXa5OfJz5R-33" value="&lt;b&gt;Data&lt;/b&gt;" style="text;html=1;align=center;verticalAlign=middle;whiteSpace=wrap;rounded=0;" vertex="1" parent="lbS3CkcZTFjXa5OfJz5R-68">
          <mxGeometry x="20" width="60" height="30" as="geometry" />
        </mxCell>
        <mxCell id="lbS3CkcZTFjXa5OfJz5R-34" value="" style="endArrow=none;html=1;rounded=0;startArrow=classic;startFill=1;" edge="1" parent="lbS3CkcZTFjXa5OfJz5R-68">
          <mxGeometry width="50" height="50" relative="1" as="geometry">
            <mxPoint x="30" y="14.5" as="sourcePoint" />
            <mxPoint y="14.5" as="targetPoint" />
          </mxGeometry>
        </mxCell>
      </root>
    </mxGraphModel>
  </diagram>
</mxfile>
